<?xml version="1.0" encoding="utf-8"?>
<!-- Generator: Adobe Illustrator 23.0.1, SVG Export Plug-In . SVG Version: 6.00 Build 0)  -->
<svg version="1.1" id="Layer_1" xmlns="http://www.w3.org/2000/svg" xmlns:xlink="http://www.w3.org/1999/xlink" x="0px" y="0px"
	 viewBox="0 0 52 52" style="enable-background:new 0 0 52 52;" xml:space="preserve">
<style type="text/css">
	.st0{fill:#EE3B44;}
	.st1{fill:#D93843;}
</style>
<g>
	<path class="st0" d="M34.8,17.8c0-0.6-0.2-1.1-0.6-1.5c-0.3-0.3-0.6-0.5-1-0.6l-1.8,4.2l1.2,0C33.9,19.9,34.8,19,34.8,17.8"/>
	<path class="st0" d="M28.2,14.7c0-0.5,0-1,0-1.5c-0.1-1.1-0.9-1.9-1.9-2c-0.1,0-0.2,0-0.2,0c-1.1,0-1.9,0.6-2.1,1.7
		c-0.1,0.6-0.1,1.2-0.1,1.7c0,0.7-0.2,1-0.9,1.1c-3.4,0.5-5.8,3.3-5.7,6.7c0.1,3.2,2.2,5.7,5.2,6.3l1.8-4.1c-0.3,0-0.6,0-0.9-0.1
		c-0.8-0.2-1.4-0.8-1.6-1.6c-0.2-0.7,0-1.4,0.6-2.1c0.6-0.6,1.4-0.7,2-0.7c0.6,0,1.2,0,1.8,0h0.1l2-4.7C28.2,15,28.2,14.9,28.2,14.7
		"/>
	<path class="st0" d="M23.8,39.1c0,0.4,0,0.8,0.1,1.1c0.2,1.1,1,1.8,2.1,1.8c0.1,0,0.1,0,0.2,0c1.1-0.1,1.9-1,1.9-2.1
		c0-0.5,0-1,0-1.5c0-0.5,0.2-0.7,0.7-0.8c3.3-0.3,5.8-3,5.9-6.2c0.1-3.4-2.1-6.3-5.4-6.9l-1.8,4.2h0.1c0.4,0,0.8,0.1,1.2,0.2
		c1,0.3,1.6,1.1,1.6,2.2c0,1-0.6,1.8-1.6,2.1c-0.5,0.1-0.9,0.2-1.3,0.2c0,0-0.9,0-1.9,0l-1.9,4.5c0.1,0.2,0.1,0.5,0.1,0.9L23.8,39.1
		z"/>
	<path class="st0" d="M17.2,35.5c0,0.9,0.6,1.7,1.4,2l1.8-4.1c-0.3,0-0.6,0-1,0C18.1,33.4,17.2,34.3,17.2,35.5"/>
	<path class="st0" d="M36.4,8.4l-0.7,1.7c5.6,3.3,9.5,9.5,9.5,16.5c0,10.5-8.6,19.1-19.1,19.1c-1.9,0-3.7-0.3-5.4-0.8l-0.7,1.7
		c1.9,0.6,4,0.9,6.1,0.9c11.6,0,20.9-9.4,20.9-20.9C46.9,18.8,42.7,12,36.4,8.4"/>
	<path class="st0" d="M6.9,26.6C6.9,16.1,15.5,7.5,26,7.5c1.8,0,3.5,0.3,5.2,0.7l0.7-1.7C30,6,28,5.7,26,5.7
		c-11.6,0-20.9,9.4-20.9,20.9c0,7.7,4.2,14.4,10.4,18.1l0.7-1.7C10.6,39.6,6.9,33.6,6.9,26.6"/>
	<path class="st0" d="M36,3.2c0-0.1,0.1-0.2,0.2-0.3l0,0c0.3-0.6,0-1.3-0.6-1.6c-0.6-0.3-1.3,0-1.6,0.6l-2,4.6l-0.7,1.7l-3,6.9
		l-2,4.7l-2,4.6l-1.8,4.1l-2,4.7l-1.8,4.1L16.2,43l-0.7,1.7l-1.9,4.4c-0.3,0.6,0,1.3,0.6,1.6c0.2,0.1,0.3,0.1,0.5,0.1
		c0.4,0,0.7-0.2,1-0.5L36,3.2z"/>
</g>
</svg>
