<?xml version="1.0" encoding="utf-8"?>
<!-- Generator: Adobe Illustrator 23.0.1, SVG Export Plug-In . SVG Version: 6.00 Build 0)  -->
<svg version="1.1" id="Layer_1" xmlns="http://www.w3.org/2000/svg" xmlns:xlink="http://www.w3.org/1999/xlink" x="0px" y="0px"
	 viewBox="0 0 52 52" style="enable-background:new 0 0 52 52;" xml:space="preserve">
<style type="text/css">
	.st0{fill:#EE3B44;}
	.st1{fill:#D93843;}
</style>
<g>
	<path class="st0" d="M32.3,29.2c-0.4,0-0.8-0.3-0.9-0.7c0-0.1,0-0.3,0-0.5l0-0.1c0-0.4,0-0.5-0.3-0.5l-1.1,0l-0.4,0
		c-0.5,0-0.9-0.4-0.9-0.8c0-0.5,0.4-0.8,0.9-0.8c0.5,0,1,0,1.5,0l1.8,0c0.1,0,0.3,0,0.5-0.1c0.4-0.1,0.6-0.4,0.6-0.8
		c0-0.4-0.2-0.8-0.6-0.9c-0.1,0-0.3-0.1-0.5-0.1l-0.8,0l-0.8,0c-1.4,0-2.6-1.1-2.6-2.6c0-1.4,0.9-2.5,2.3-2.7c0.3,0,0.4-0.1,0.4-0.4
		c0-0.2,0-0.5,0-0.7c0.1-0.4,0.4-0.7,0.9-0.7c0,0,0.1,0,0.1,0c0.4,0,0.7,0.4,0.8,0.8c0,0.2,0,0.4,0,0.6c0,0.1,0,0.2,0.1,0.3
		c0.1,0.1,0.1,0.1,0.3,0.1c0.2,0,0.4,0,0.7,0l0.8,0c0.3,0,0.5,0.1,0.7,0.3c0.2,0.2,0.2,0.4,0.2,0.6c0,0.5-0.4,0.8-0.9,0.8l-2.6,0
		c-0.2,0-0.5,0-0.7,0c-0.2,0-0.6,0-0.8,0.3c-0.2,0.3-0.3,0.5-0.2,0.8c0.1,0.3,0.3,0.6,0.6,0.7c0.2,0.1,0.4,0.1,0.5,0.1l0.3,0
		c0.2,0,0.3,0,0.5,0c0.2,0,0.3,0,0.5,0c0.3,0,0.5,0,0.7,0.1c1.3,0.2,2.2,1.4,2.2,2.7c-0.1,1.3-1.1,2.3-2.4,2.5
		c-0.2,0-0.3,0.1-0.3,0.3c0,0.2,0,0.4,0,0.6C33.1,28.9,32.8,29.2,32.3,29.2C32.3,29.2,32.3,29.2,32.3,29.2"/>
	<path class="st0" d="M37,3.4c0.7,0.1,1.3,0.4,1.9,0.8c0.2,0.1,0.4,0.2,0.6,0.3c0.8,0.3,1,0.9,0.5,1.6c-1.3,1.8-2.5,3.6-3.8,5.4
		c-0.2,0.3-0.2,0.4,0.2,0.5c3.9,0.7,6.8,3.8,7.2,7.7c0.1,0.4,0,0.9,0,1.4c0,3,0,6.1,0,9.1c0,0.6,0,0.6,0.6,0.6
		c1.9,0.1,3.4,1,4.5,2.5c0.4,0.5,0.3,1-0.3,1.5c-1.1,0.8-2.3,1.7-3.4,2.5c-4.9,3.6-9.7,7.2-14.6,10.8c-0.4,0.3-0.9,0.5-1.4,0.4
		c-5.1-1-10.2-2-15.3-3.1c-0.2,0-0.4-0.1-0.7-0.1c-2.7,0-5.4,0-8.1,0c-0.5,0-0.9-0.1-1.1-0.6V33.6C4.2,33.1,4.6,33,5.1,33
		c2.5,0,5,0,7.6,0c0.6,0,1-0.2,1.4-0.6c1-1,2.2-1.8,3.6-2.2c0.8-0.3,1.6-0.4,2.5-0.4c0.6,0,0.6,0,0.6-0.6c0-2.8,0-5.6,0-8.4
		c-0.1-4,2.8-7.9,7.2-8.8c0.5-0.1,0.5-0.1,0.2-0.5c-1.1-1.6-2.3-3.2-3.4-4.9c-0.2-0.2-0.3-0.5-0.5-0.7c-0.3-0.5-0.1-1.1,0.4-1.2
		c1-0.3,1.8-1,2.8-1.2h1.7c0.7,0.2,1.3,0.5,1.8,0.8c0.8,0.5,1.6,0.5,2.4,0.1c0.7-0.4,1.5-0.7,2.3-0.9H37z M5.8,39.2
		c0,1.3,0,2.5,0,3.8c0,0.6,0,0.6,0.6,0.6c2.1,0,4.2,0,6.3,0c1,0,2,0.1,3,0.3c4.5,0.9,8.9,1.8,13.4,2.7c0.3,0.1,0.5,0.1,0.8-0.1
		c5.6-4.1,11.1-8.3,16.7-12.4c0.3-0.2,0.2-0.3,0-0.5c-1.3-1-3.3-1.1-4.8-0.3c-1.7,1-3.4,2.1-5.2,3.1c-0.4,0.2-0.7,0.5-0.7,1
		c-0.3,1.5-1.6,2.8-3,2.8c-2.4,0.1-4.7,0-7.1,0c-0.5,0-0.8-0.4-0.8-0.9c0-0.5,0.3-0.9,0.8-0.9c0.1,0,0.3,0,0.4,0c2,0,4,0,6,0
		c0.8,0,1.4-0.3,1.7-1c0.3-0.6,0.2-1.2-0.2-1.8c-0.4-0.6-1-0.7-1.6-0.7c-1.2,0-2.4,0-3.7,0c-1.2,0.1-2.2-0.4-3.1-1.2
		c-2.4-2.2-5.8-2.6-8.6-0.8c-0.7,0.5-1.3,1.1-2,1.6c-0.3,0.3-0.7,0.4-1.2,0.4c-2.4,0-4.9,0-7.3,0c-0.4,0-0.5,0.1-0.5,0.5
		C5.8,36.6,5.8,37.9,5.8,39.2 M41.9,25.6c0-1.3,0-2.7,0-4c0-0.8,0-1.6-0.2-2.3c-0.6-3-3.2-5.3-6.2-5.5c-1.9-0.1-3.8,0-5.7-0.1
		c-0.5,0-1,0.1-1.5,0.2c-3,0.6-5.2,3.1-5.5,6c-0.3,3.3-0.1,6.6-0.1,9.9c0,0.2,0.1,0.4,0.3,0.4c1.4,0.4,2.6,1.2,3.7,2.2
		c0.5,0.5,1,0.6,1.7,0.6c1.3,0,2.6,0,3.9,0c1.2,0,2.2,0.5,2.9,1.5c0.2,0.3,0.3,0.3,0.6,0.1c0.6-0.4,1.3-0.8,1.9-1.2
		c1.3-0.7,2.4-1.6,3.8-2.2c0.3-0.1,0.4-0.3,0.4-0.7C41.9,29,41.9,27.3,41.9,25.6 M32.3,11.9c0.4,0,0.8,0,1.1,0
		c0.2,0,0.4-0.1,0.5-0.3c1.3-1.8,2.5-3.6,3.8-5.4c0.2-0.2,0.1-0.3-0.1-0.5c-0.9-0.6-1.8-0.5-2.7,0c-0.3,0.1-0.5,0.3-0.8,0.4
		c-1.5,0.6-2.9,0.5-4.3-0.4C28.9,5.1,28,5.1,27,5.6c-0.3,0.2-0.4,0.3-0.1,0.6c1,1.5,2.1,2.9,3.1,4.4C30.5,11.6,31.2,12.2,32.3,11.9"
		/>
	<path class="st0" d="M14.9,19.4L8.9,9l-6,10.4h3.3v6.2c0,1.5,1.2,2.7,2.7,2.7c1.5,0,2.7-1.2,2.7-2.7v-6.2H14.9z"/>
</g>
</svg>
