<?xml version="1.0" encoding="utf-8"?>
<!-- Generator: Adobe Illustrator 23.0.1, SVG Export Plug-In . SVG Version: 6.00 Build 0)  -->
<svg version="1.1" id="Layer_1" xmlns="http://www.w3.org/2000/svg" xmlns:xlink="http://www.w3.org/1999/xlink" x="0px" y="0px"
	 viewBox="0 0 52 52" style="enable-background:new 0 0 52 52;" xml:space="preserve">
<style type="text/css">
	.st0{fill:#EE3B44;}
	.st1{fill:#D93843;}
</style>
<g>
	<path class="st0" d="M42.5,5.2H19.9c-2.4,0-4.3,1.9-4.3,4.3v1.7c0,0.5,0.4,0.9,0.9,0.9c0.5,0,0.9-0.4,0.9-0.9V9.5
		c0-1.4,1.2-2.6,2.6-2.6h22.6c1.4,0,2.6,1.2,2.6,2.6v33c0,1.4-1.2,2.6-2.6,2.6H27.7c-0.5,0-0.9,0.4-0.9,0.9c0,0.5,0.4,0.9,0.9,0.9
		h14.8c2.4,0,4.3-1.9,4.3-4.3v-33C46.8,7.1,44.9,5.2,42.5,5.2"/>
	<path class="st0" d="M21.7,13.9H9.5c-2.4,0-4.3,1.9-4.3,4.3v24.3c0,2.4,1.9,4.3,4.3,4.3h12.1c2.4,0,4.3-1.9,4.3-4.3V18.2
		C26,15.8,24.1,13.9,21.7,13.9 M24.3,40.8L24.3,40.8v1.7c0,1.4-1.2,2.6-2.6,2.6H9.5c-1.4,0-2.6-1.2-2.6-2.6v-1.7v-0.9v-1.7v-2.5
		V18.2c0-1.4,1.2-2.6,2.6-2.6h12.1c1.4,0,2.6,1.2,2.6,2.6v17.5V40.8z"/>
	<path class="st0" d="M20.3,43.4h-9.5c-0.3,0-0.5-0.2-0.5-0.5c0-0.3,0.2-0.5,0.5-0.5h9.5c0.3,0,0.5,0.2,0.5,0.5
		C20.8,43.2,20.6,43.4,20.3,43.4"/>
	<rect x="31.4" y="16.1" transform="matrix(0.7483 -0.6633 0.6633 0.7483 -2.154 27.3578)" class="st0" width="7.2" height="0.8"/>
	<polygon class="st0" points="38.5,16 39.8,12.3 35.9,13.1 	"/>
	
		<rect x="13.6" y="33.4" transform="matrix(0.7006 -0.7136 0.7136 0.7006 -18.9394 22.3852)" class="st0" width="7.2" height="0.8"/>
	<polygon class="st0" points="13.7,34.5 12.7,38.3 16.5,37.3 	"/>
</g>
</svg>
