<?xml version="1.0" encoding="utf-8"?>
<!-- Generator: Adobe Illustrator 23.0.1, SVG Export Plug-In . SVG Version: 6.00 Build 0)  -->
<svg version="1.1" id="Layer_1" xmlns="http://www.w3.org/2000/svg" xmlns:xlink="http://www.w3.org/1999/xlink" x="0px" y="0px"
	 viewBox="0 0 52 52" style="enable-background:new 0 0 52 52;" xml:space="preserve">
<style type="text/css">
	.st0{fill:#EE3B44;}
	.st1{fill:#D93843;}
</style>
<g>
	<path class="st0" d="M27,50.1c-0.8,0-1.5,0-2.3,0c-0.6,0-0.9-0.3-0.9-0.9c0-2,0-8.9,0-10.9c0-3.2,0-6.4,0-9.6
		c0-5.2-3.4-9.4-8.4-10.6c-0.2,0-0.3-0.1-0.5-0.1c-0.1,0-0.2,0-0.3-0.1l-0.7-0.1V19c0,0.3,0,0.5,0,0.8c0,0.4-0.1,0.6-0.4,0.7
		c-0.1,0.1-0.2,0.1-0.3,0.1c-0.2,0-0.3-0.1-0.5-0.2l-1.1-0.9c-1.9-1.4-3.9-2.9-5.8-4.4c-0.2-0.2-0.3-0.4-0.3-0.6
		c0-0.2,0.1-0.4,0.3-0.6c1.8-1.4,3.7-2.8,5.5-4.1l1.5-1.1c0.2-0.1,0.3-0.2,0.5-0.2c0.1,0,0.2,0,0.3,0.1c0.3,0.1,0.4,0.4,0.4,0.7
		c0,0.3,0,0.6,0,0.9l0,1l0.5,0c3.1,0.2,5.9,1.2,8.5,3l0.9,0.6V10h-0.6c-0.1,0-0.2,0-0.4,0c-0.1,0-0.2,0-0.4,0c-0.2,0-0.3,0-0.5,0h0
		c-0.5,0-0.6-0.2-0.7-0.4c-0.1-0.2-0.2-0.5,0.1-0.9c0.5-0.6,0.9-1.2,1.4-1.9c1.2-1.6,2.5-3.3,3.7-5c0.1-0.1,0.2-0.2,0.4-0.3
		c0,0,0.1-0.1,0.1-0.1h0.3c0.1,0.1,0.1,0.1,0.2,0.1c0.2,0.2,0.4,0.4,0.6,0.6C29,3.5,30,4.8,30.9,6c0.7,0.9,1.3,1.8,2,2.7
		c0.3,0.5,0.3,0.7,0.2,1C33,9.9,32.8,10,32.4,10c0,0,0,0-0.1,0c-0.1,0-0.3,0-0.4,0c-0.1,0-0.2,0-0.3,0c-0.1,0-0.2,0-0.3,0h-0.6v13.5
		l0.9-0.6c2.6-1.7,5.4-2.7,8.5-3l0.5,0v-0.5c0-0.1,0-0.3,0-0.4c0-0.3,0-0.6,0-0.8c0-0.5,0.2-0.7,0.4-0.8c0.1-0.1,0.2-0.1,0.3-0.1
		c0.2,0,0.4,0.1,0.6,0.2c1.2,0.9,2.4,1.8,3.6,2.7c1,0.8,2,1.5,3,2.3c0.3,0.2,0.5,0.5,0.5,0.7c0,0.2-0.2,0.5-0.5,0.7
		c-0.9,0.7-1.9,1.4-2.8,2.1c-1.3,1-2.6,1.9-3.9,2.9c-0.2,0.2-0.4,0.3-0.6,0.3c-0.1,0-0.2,0-0.3-0.1c-0.2-0.1-0.4-0.3-0.4-0.8
		c0-0.2,0-0.5,0-0.7c0-0.1,0-0.2,0-0.3v-0.7l-0.7,0.1c-2,0.3-3.8,1-5.3,2.3c-2.6,2.1-3.9,4.9-4,8.3c0,1.6,0,3.2,0,4.7
		c0,0.8,0,6.4,0,7.1c0,0.7-0.3,0.9-1,0.9C28.7,50.1,27.9,50.1,27,50.1 M13.3,16.5c0.1,0,0.1,0,0.2,0c0.7,0,1.6,0.1,2.4,0.3
		c2.8,0.6,5.1,2.1,6.8,4.3c1.7,2.2,2.6,4.8,2.6,7.6c0,3.2,0,6.5,0,9.7c0,1.4,0,7.7,0,9.2v1.1h3.6l0.1-0.4l0,0c0-0.1,0.1-0.2,0.1-0.3
		c0-0.5,0-5.7,0-6.2c0-0.9,0-1.9,0-2.9c0-0.2,0-0.4,0-0.6c0-0.9,0-1.9,0.2-2.8c0.8-5.6,5.9-10,11.5-10.2c0.1,0,0.1,0,0.1,0
		c0.7,0,0.8,0,1.1,0.9l0.3,0.7l4.7-3.5l-4.8-3.6L42,20.6c-0.2,0.7-0.4,0.9-1.1,0.9c-2.5,0.1-4.9,0.7-7.1,1.8
		c-1.2,0.6-2.3,1.4-3.5,2.5C30.2,25.9,30,26,29.8,26c-0.3,0-0.6-0.2-0.7-0.6c0-0.1,0-0.2,0-0.3l0-0.1l0-2.5c0-4.2,0-8.5,0-12.7
		c0-0.5,0.1-0.8,0.2-0.8c0.1-0.1,0.3-0.2,0.4-0.3c0.1-0.1,0.2-0.1,0.4-0.2L30.6,8l-3.4-4.5l-3.6,4.8l0.8,0.2
		c0.8,0.2,0.9,0.4,0.9,1.1v0.1c0,0.7,0,1.4,0,2.1c0,1.5,0,3.1,0,4.6c0,0.4-0.1,0.6-0.4,0.7c-0.1,0.1-0.2,0.1-0.3,0.1
		c-0.2,0-0.3-0.1-0.5-0.2c-0.1-0.1-0.1-0.1-0.2-0.2c-0.1-0.1-0.1-0.1-0.2-0.2c-2.9-2.5-6.2-3.8-10-4c-0.2,0-0.6,0-0.9-0.2
		c-0.1-0.1-0.2-0.3-0.3-0.4c-0.1-0.1-0.1-0.2-0.2-0.4l-0.3-0.5l-4.5,3.4l4.8,3.6l0.2-0.8C12.6,16.6,12.8,16.5,13.3,16.5"/>
	<path class="st0" d="M9.4,50.4c-0.6-0.3-0.8-0.5-0.8-1.2c0.2-3.3,0.3-6.7,0.5-10c0.1-1.5,0-3.1,0-4.6c0,0,0,0,0-0.1
		c-0.1,0.1-0.2,0.2-0.3,0.3c-0.5,0.5-1,0.9-1.6,1.1c-0.9,0.4-1.6,0.2-2.3-0.4C4.4,35,4,34.3,3.6,33.6c-0.2-0.4-0.4-0.7-0.5-1.1
		C2.9,32,3,31.4,3.5,31.2c0.5-0.2,1-0.1,1.3,0.4c0.4,0.6,0.8,1.2,1.2,1.8c0.1,0.1,0.2,0.2,0.3,0.3c0.2-0.1,0.3-0.3,0.5-0.4
		c0.6-0.5,1.1-1.1,1.8-1.6c2.1-1.5,5.2-1.3,7.1,0.5c0.4,0.4,0.8,0.8,1.2,1.2c0.1,0.1,0.3,0.2,0.4,0.3c0.5-0.6,0.9-1.2,1.3-1.8
		c0.1-0.2,0.2-0.4,0.3-0.5c0.3-0.4,0.8-0.5,1.2-0.3c0.4,0.2,0.7,0.7,0.5,1.1c-0.4,1.1-0.9,2.2-1.8,3.1c-0.8,0.9-1.7,1-2.8,0.3
		c-0.5-0.3-0.9-0.7-1.4-1.1c-0.1,0-0.1-0.1-0.2-0.2v0.3c0,1.3,0,2.6,0,3.9c0,1.5,0.1,3,0.2,4.5c0.1,1.9,0.2,3.7,0.3,5.6
		c0,0.1,0,0.2,0,0.3c0.1,0.6-0.1,1.1-0.7,1.3h-0.4c-0.6-0.2-0.8-0.6-0.8-1.2c0-0.6-0.1-1.2-0.2-1.8c-0.2-1.7-0.4-3.4-0.6-5.1
		c-0.1-0.6-0.1-1.2-0.2-1.8c-0.3-0.1-0.3-0.1-0.4,0.3c-0.1,1-0.2,2-0.3,2.9c-0.2,1.8-0.4,3.6-0.6,5.5c-0.1,0.6-0.3,1-0.8,1.1H9.4z"
		/>
	<path class="st0" d="M11.8,30.3c-1.2,0-2.2-1-2.2-2.2c0-1.2,1-2.2,2.2-2.2c1.2,0,2.2,1,2.2,2.2C14,29.3,13,30.3,11.8,30.3"/>
</g>
</svg>
