<?xml version="1.0" encoding="utf-8"?>
<!-- Generator: Adobe Illustrator 23.0.1, SVG Export Plug-In . SVG Version: 6.00 Build 0)  -->
<svg version="1.1" id="Layer_1" xmlns="http://www.w3.org/2000/svg" xmlns:xlink="http://www.w3.org/1999/xlink" x="0px" y="0px"
	 viewBox="0 0 52 52" style="enable-background:new 0 0 52 52;" xml:space="preserve">
<style type="text/css">
	.st0{fill:#EE3B44;}
	.st1{fill:#D93843;}
</style>
<g>
	<path class="st0" d="M49,36h-3V14c0-2.2-1.8-4-4-4H10c-2.2,0-4,1.8-4,4v22H3c-0.6,0-1,0.4-1,1v1c0,2.2,1.8,4,4,4h40
		c2.2,0,4-1.8,4-4v-1C50,36.4,49.6,36,49,36 M8,14c0-1.1,0.9-2,2-2h32c1.1,0,2,0.9,2,2v22H31H21H8V14z M46,40H6c-1.1,0-2-0.9-2-2h3
		h13.6l0.7,0.7c0.2,0.2,0.4,0.3,0.7,0.3h8c0.3,0,0.5-0.1,0.7-0.3l0.7-0.7H45h3C48,39.1,47.1,40,46,40"/>
	<path class="st0" d="M33.6,27.9h-10c-0.3,0-0.5-0.2-0.6-0.5l-1.5-4.8c-0.1-0.3,0.1-0.7,0.4-0.8c0.3-0.1,0.7,0.1,0.8,0.4l1.4,4.4h9
		l0.3-1h-8.2c-0.3,0-0.5-0.2-0.6-0.5l-0.6-2c-0.1-0.2,0-0.4,0.1-0.6c0.1-0.2,0.3-0.3,0.5-0.3h10l0.3-0.9H21.3
		c-0.3,0-0.5-0.2-0.6-0.5l-0.8-2.8h-3.6c-0.4,0-0.7-0.3-0.7-0.7c0-0.4,0.3-0.7,0.7-0.7h4.1c0.3,0,0.5,0.2,0.6,0.5l0.8,2.8h14
		c0.2,0,0.4,0.1,0.5,0.3c0.1,0.2,0.2,0.4,0.1,0.6l-0.8,2.2c-0.1,0.3-0.3,0.4-0.6,0.4h-9.5l0.2,0.7h8.6c0.2,0,0.4,0.1,0.5,0.3
		c0.1,0.2,0.2,0.4,0.1,0.6l-0.7,2.3C34.1,27.7,33.9,27.9,33.6,27.9"/>
	<path class="st0" d="M27,29.9c0,0.8-0.6,1.4-1.4,1.4c-0.8,0-1.4-0.6-1.4-1.4c0-0.8,0.6-1.4,1.4-1.4C26.4,28.5,27,29.2,27,29.9"/>
	<path class="st0" d="M32.1,29.9c0,0.8-0.6,1.4-1.4,1.4c-0.8,0-1.4-0.6-1.4-1.4c0-0.8,0.6-1.4,1.4-1.4
		C31.5,28.5,32.1,29.2,32.1,29.9"/>
</g>
</svg>
