<?xml version="1.0" encoding="utf-8"?>
<!-- Generator: Adobe Illustrator 23.0.1, SVG Export Plug-In . SVG Version: 6.00 Build 0)  -->
<svg version="1.1" id="Layer_1" xmlns="http://www.w3.org/2000/svg" xmlns:xlink="http://www.w3.org/1999/xlink" x="0px" y="0px"
	 viewBox="0 0 52 52" style="enable-background:new 0 0 52 52;" xml:space="preserve">
<style type="text/css">
	.st0{fill:#EE3B44;}
	.st1{fill:#D93843;}
</style>
<g>
	<path class="st0" d="M36.4,8.4l-0.7,1.7c5.6,3.3,9.5,9.5,9.5,16.5c0,10.5-8.6,19.1-19.1,19.1c-1.9,0-3.7-0.3-5.4-0.8l-0.7,1.7
		c1.9,0.6,4,0.9,6.1,0.9c11.6,0,20.9-9.4,20.9-20.9C46.9,18.8,42.7,12,36.4,8.4"/>
	<path class="st0" d="M6.9,26.6C6.9,16.1,15.5,7.5,26,7.5c1.8,0,3.5,0.3,5.2,0.7l0.7-1.7C30,6,28,5.7,26,5.7
		c-11.6,0-20.9,9.4-20.9,20.9c0,7.7,4.2,14.4,10.4,18.1l0.7-1.7C10.6,39.6,6.9,33.6,6.9,26.6"/>
	<path class="st1" d="M21.7,30.2v-3.4v-1c0,0,0.1,0.1,0.1,0.1c0.2,0.6,0.4,1.2,0.6,1.8c0.1,0.2,0.1,0.3,0.2,0.4l1.1-2.7
		c-0.6-1.8-1.2-3.6-1.9-5.4c-0.2-0.7-0.5-0.9-1.2-0.9c-1.2,0-2.4,0-3.6,0c-0.7,0-1,0.2-1.2,0.9c-0.5,1.4-1,2.8-1.5,4.2
		c-0.3,1-0.7,1.9-1,2.9v0.6c0,0,0,0.1,0.1,0.1c0.2,0.4,0.6,0.7,1,0.6c0.5,0,0.8-0.3,0.9-0.7c0.1-0.2,0.1-0.4,0.2-0.6
		c0.2-0.4,0.3-0.9,0.5-1.3c0,0,0,0,0,0V26c0,3.3,0,6.5,0,9.8c0,0.3,0,0.6,0,1c0,0.8,0.8,1.4,1.5,1.2c0.6-0.1,0.9-0.6,0.9-1.3
		c0-1.1,0-2.2,0-3.3c0-1.1,0-2.3,0-3.4c0-0.2,0.1-0.3,0.3-0.3c0,0,0.1,0,0.1,0c0.4,0,0.4,0,0.4,0.3c0,2,0,3.9,0,5.9l1.1-2.5
		L21.7,30.2z"/>
	<path class="st1" d="M25.1,36.6c0.6,0,1.1-0.5,1.1-1.2c0-1.3,0-2.5,0-3.8l-2,4.5C24.4,36.5,24.7,36.6,25.1,36.6"/>
	<path class="st1" d="M28.5,26.8c0-0.1-0.1-0.3-0.1-0.4l-0.7,1.6C28.3,28.1,28.8,27.5,28.5,26.8"/>
	<path class="st1" d="M26.1,20c-0.2-0.2-0.4-0.3-0.9-0.3c-0.7,0-1.3,0-2,0c-0.8,0-0.8,0-0.5,0.7c0.5,1.4,0.9,2.7,1.4,4.1l0-0.1
		L26.1,20z"/>
	<path class="st1" d="M32.7,26.8c0-0.1-0.1-0.3-0.1-0.4c-0.6-1.8-1.2-3.5-1.8-5.3l-2,4.6c0.1,0.4,0.2,0.7,0.4,1.1
		c0.3,0.9-0.2,1.6-1,1.9c0,0-0.1,0-0.1,0.1c0.4,0.1,0.4,0.1,0.4,0.6v3.1c0,0.7,0,1.4,0,2.2c0,0.7,0.7,1.2,1.3,1
		c0.4-0.2,0.7-0.5,0.7-1.1c0-2.4,0-4.9,0-7.3v-1.5c0,0,0,0,0,0c0.2,0.5,0.4,1,0.5,1.5c0.2,0.4,0.6,0.6,1,0.5
		C32.4,27.6,32.7,27.2,32.7,26.8"/>
	<path class="st1" d="M36.1,26.3c-0.6-1.8-1.2-3.5-1.8-5.3c-0.2-0.4-0.4-0.6-0.9-0.6c-0.7,0-1.3,0-2,0c-0.3,0-0.3,0-0.2,0.3
		c0.4,1.1,0.8,2.3,1.2,3.4c0.3,0.8,0.5,1.5,0.8,2.3c0.2,0.7-0.1,1.3-0.7,1.6c-0.2,0.1-0.2,0.2-0.2,0.3c0,1.6,0.1,3.2,0,4.8
		c0,0.2,0,0.4,0,0.5c0.1,0.4,0.4,0.7,0.9,0.8c0.5,0,0.8-0.3,0.9-0.7c0-0.2,0-0.3,0-0.5c0-1.7,0-3.4,0-5.1c0-0.9,0-1.8,0-2.7l0,0
		c0,0,0,0.1,0,0.1c0.1,0.4,0.3,0.8,0.4,1.3c0.1,0.4,0.5,0.6,0.8,0.5C36,27.3,36.3,26.8,36.1,26.3"/>
	<path class="st1" d="M39.1,26.2c-0.5-1.5-1-3-1.6-4.5c-0.1-0.4-0.3-0.6-0.8-0.6c-0.6,0-1.1,0-1.7,0c-0.2,0-0.3,0.1-0.2,0.3
		c0,0.1,0,0.1,0.1,0.2c0.5,1.5,1,3,1.5,4.5c0.1,0.2,0.2,0.5,0.1,0.7c-0.1,0.6-0.5,1-1.1,1.1c0.3,0,0.2,0.2,0.2,0.3c0,1.3,0,2.6,0,4
		c0,0.2,0,0.3,0,0.5c0.1,0.4,0.5,0.7,0.9,0.6c0.4-0.1,0.7-0.4,0.7-0.9c0-2.2,0-4.3,0-6.5v-0.3c0.2,0.3,0.3,0.7,0.4,1.1
		c0,0.1,0.1,0.2,0.2,0.3c0.2,0.2,0.6,0.3,0.8,0.1C39.2,26.9,39.3,26.6,39.1,26.2"/>
	<path class="st1" d="M18.9,18.8c1.3,0,2.3-1.1,2.3-2.3c0-1.2-0.9-2.3-2.3-2.3c-1.4,0-2.4,1.1-2.3,2.4
		C16.5,17.7,17.6,18.8,18.9,18.8"/>
	<path class="st1" d="M24,19.2c1-0.2,1.7-1.1,1.7-2.1c0-0.2,0-0.4-0.1-0.7C25,15,23.1,14.6,22,15.7c-0.1,0.1-0.2,0.2-0.2,0.4
		c0.1,0.5,0,1-0.2,1.5c-0.1,0.2-0.1,0.3,0,0.5C22.1,18.9,23,19.4,24,19.2"/>
	<path class="st1" d="M27.8,15.9c-0.9,0.1-1.5,0.7-1.5,1.6c0,0.1,0,0.2-0.1,0.3c-0.1,0.2,0,0.3,0,0.5c0.1,0.2,0.2,0.4,0.3,0.6
		L27.8,15.9C27.8,15.9,27.8,15.9,27.8,15.9"/>
	<path class="st1" d="M32.4,20.1c0.8-0.2,1.4-0.9,1.4-1.7c0-0.8-0.4-1.4-1.1-1.7c0,0,0,0,0,0l-1.4,3.2C31.6,20.1,32,20.2,32.4,20.1"
		/>
	<path class="st1" d="M34.1,19.4c0,0.8,0.7,1.5,1.5,1.5c0.8,0,1.5-0.7,1.5-1.5c0-0.9-0.7-1.5-1.5-1.5C34.7,17.8,34.1,18.6,34.1,19.4
		"/>
	<path class="st1" d="M26.8,32.2c0,0.9,0,2,0,3.2c0,0.2,0.1,0.3,0.3,0.2c0.4-0.1,0.6-0.4,0.7-0.9c0.1-0.9,0-1.9,0-2.9
		c0-1,0-1.9,0-2.9c0-0.2-0.1-0.3-0.3-0.3c0,0,0,0,0,0l-0.7,1.6V32.2z"/>
	<path class="st1" d="M31.5,28.2c0,0-0.1,0-0.1,0C31,28.1,31,28.1,31,28.4v5.2c0,0.2,0,0.4,0,0.6c0,0.2,0.1,0.3,0.3,0.1
		c0.3-0.2,0.5-0.4,0.5-0.8c0-0.8,0-1.7,0-2.5c0-0.8,0-1.7,0-2.5C31.7,28.3,31.7,28.2,31.5,28.2"/>
	<path class="st1" d="M34.9,27.8c-0.2-0.1-0.2-0.1-0.2,0.1c0,1.7,0,3.5,0,5.2c0,0.2,0.1,0.2,0.2,0.1c0.3-0.2,0.5-0.4,0.5-0.8v-2.1
		v-1.8C35.3,27.9,35.3,28,34.9,27.8"/>
	<path class="st0" d="M17.4,45.9l0.7-1.7l2.4-5.5l1.8-4.1l2-4.7l1.8-4.1l2-4.6l2-4.7l3-6.9l0.7-1.7l2-4.6c0.1-0.2,0.2-0.4,0.4-0.5
		c0.1-0.6-0.2-1.1-0.7-1.4c-0.6-0.3-1.3,0-1.6,0.6l-2,4.6l-0.7,1.7l-3,6.9l-0.3,0.8L26.5,19l-0.4,0.9L26.1,20l-1.9,4.4l0,0.1
		l-0.4,0.9l-1.1,2.7l-0.2,0.5l-0.7,1.6l-1.4,3.1l-1.1,2.5l-0.7,1.6L16.2,43l-0.7,1.7l-1.9,4.4c-0.3,0.6,0,1.3,0.6,1.6
		c0.2,0.1,0.3,0.1,0.5,0.1c0.3,0,0.5-0.1,0.8-0.3c0-0.1,0-0.2,0.1-0.3L17.4,45.9z"/>
</g>
</svg>
