<?xml version="1.0" encoding="utf-8"?>
<!-- Generator: Adobe Illustrator 23.0.1, SVG Export Plug-In . SVG Version: 6.00 Build 0)  -->
<svg version="1.1" id="Layer_1" xmlns="http://www.w3.org/2000/svg" xmlns:xlink="http://www.w3.org/1999/xlink" x="0px" y="0px"
	 viewBox="0 0 52 52" style="enable-background:new 0 0 52 52;" xml:space="preserve">
<style type="text/css">
	.st0{fill:#EE3B44;}
	.st1{fill:#D93843;}
</style>
<g>
	<path class="st0" d="M5.2,46.5c-1.5,0-2.7-1.2-2.7-2.7V17.1c0-1.5,1.2-2.7,2.7-2.7h16.3c0.7,0,1.2,0.6,1.2,1.2
		c0,0.7-0.6,1.2-1.2,1.2H5v6.4h16.5c0.7,0,1.2,0.6,1.2,1.2c0,0.7-0.6,1.2-1.2,1.2H5V44h42V33.4c0-0.7,0.6-1.2,1.2-1.2
		c0.7,0,1.2,0.6,1.2,1.2v10.4c0,1.5-1.2,2.7-2.7,2.7H5.2z"/>
	<path class="st0" d="M9.5,34.9c-0.7,0-1.3-0.6-1.3-1.4c0-0.8,0.6-1.4,1.3-1.4h6.1c0.7,0,1.3,0.6,1.3,1.4c0,0.8-0.6,1.4-1.3,1.4H9.5
		z"/>
	<path class="st0" d="M48.7,10L38.4,5.6c-0.2-0.1-0.3-0.1-0.5-0.1c-0.2,0-0.3,0-0.5,0.1L27,10c-0.5,0.2-0.8,0.6-0.8,1.1v5.9
		c0,8.1,3,12.8,11,17.4c0.2,0.1,0.4,0.2,0.6,0.2c0.2,0,0.4-0.1,0.6-0.2c8-4.6,11-9.3,11-17.4v-5.9C49.5,10.7,49.2,10.2,48.7,10z
		 M43.3,16.4l-5.9,7.4c-0.2,0.3-0.6,0.5-1,0.5h-0.1c-0.4,0-0.8-0.2-1-0.6l-3-4.4c-0.2-0.3-0.2-0.6-0.2-0.9c0.1-0.3,0.3-0.6,0.5-0.8
		c0.2-0.1,0.4-0.2,0.7-0.2c0.4,0,0.8,0.2,1,0.6l2,3l4.9-6.1c0.2-0.3,0.6-0.5,1-0.5c0.3,0,0.6,0.1,0.8,0.3
		C43.6,15.1,43.7,15.9,43.3,16.4z"/>
</g>
</svg>
