<?xml version="1.0" encoding="utf-8"?>
<!-- Generator: Adobe Illustrator 23.0.1, SVG Export Plug-In . SVG Version: 6.00 Build 0)  -->
<svg version="1.1" id="Layer_1" xmlns="http://www.w3.org/2000/svg" xmlns:xlink="http://www.w3.org/1999/xlink" x="0px" y="0px"
	 viewBox="0 0 52 52" style="enable-background:new 0 0 52 52;" xml:space="preserve">
<style type="text/css">
	.st0{fill:none;stroke:#EE3B44;stroke-width:1.6274;stroke-miterlimit:10;}
</style>
<g>
	<g>
		<path class="st0" d="M16.6,8.8h5.6h22.4c0.4,0,0.7,0.3,0.7,0.7v7.4c0,0.4-0.3,0.7-0.7,0.7H11.2c-0.4,0-0.7-0.3-0.7-0.7V9.5
			c0-0.4,0.3-0.7,0.7-0.7h3.1"/>
		<path class="st0" d="M22.3,8.8l1.6,3c0.1,0.2,0.3,0.4,0.6,0.4h7.1c0.2,0,0.4-0.1,0.6-0.3l1.8-3"/>
	</g>
	<g>
		<path class="st0" d="M20.1,17.5h5.6h23.1v7.7c0,0.6-0.5,1-1,1H15c-0.6,0-1-0.5-1-1v-7.7h3.8"/>
		<polyline class="st0" points="25.8,17.5 27.5,20.9 35.4,20.9 37.4,17.5 		"/>
	</g>
	<g>
		<polyline class="st0" points="13.1,29.6 13.1,26.2 16.9,26.2 		"/>
		<path class="st0" d="M19.1,26.2h5.6h23.1v7.7c0,0.6-0.5,1-1,1H34.1"/>
		<polyline class="st0" points="24.8,26.2 26.6,29.5 34.4,29.5 36.5,26.2 		"/>
	</g>
	<path class="st0" d="M3.3,34v-2.2c0-0.2,0.2-0.4,0.4-0.4h6.2c0.2,0,0.4,0.2,0.4,0.4v9.8c0,0.2-0.2,0.4-0.4,0.4H3.7
		c-0.2,0-0.4-0.2-0.4-0.4V36"/>
	<rect x="10.4" y="32.5" class="st0" width="2.7" height="8.8"/>
	<path class="st0" d="M13.1,33c0,0,2.9,0.6,5.5-0.5c2.6-1.2,6.7-2.5,6.6-0.2C25,34.5,22.3,35,22.3,35s2.7,1.6,7.6-0.9
		s4.4,1.9,3.8,2.6c-0.6,0.7-5.7,7-10.9,6.5c-5.2-0.5-9.8-2.3-9.8-2.3V33z"/>
	<path class="st0" d="M13.1,31.5"/>
</g>
</svg>
