<?xml version="1.0" encoding="utf-8"?>
<!-- Generator: Adobe Illustrator 23.0.1, SVG Export Plug-In . SVG Version: 6.00 Build 0)  -->
<svg version="1.1" id="Layer_1" xmlns="http://www.w3.org/2000/svg" xmlns:xlink="http://www.w3.org/1999/xlink" x="0px" y="0px"
	 viewBox="0 0 52 52" style="enable-background:new 0 0 52 52;" xml:space="preserve">
<style type="text/css">
	.st0{fill:none;stroke:#EE3B44;stroke-width:1.75;stroke-linecap:round;stroke-linejoin:round;stroke-miterlimit:10;}
	.st1{fill:#EE3B44;}
	.st2{stroke:#EE3B44;stroke-miterlimit:10;}
	.st3{fill:#FFFFFF;stroke:#EE3B44;stroke-width:1.75;stroke-linecap:round;stroke-linejoin:round;stroke-miterlimit:10;}
</style>
<g>
	<path class="st0" d="M41.4,22.3H40c-1,0-1.8-0.8-1.8-1.8V20c0-1,0.8-1.8,1.8-1.8h1.4c1,0,1.8,0.8,1.8,1.8v0.6
		C43.2,21.6,42.4,22.3,41.4,22.3z"/>
	<path class="st0" d="M41.4,26.5H40c-1,0-1.8-0.8-1.8-1.8v-0.6c0-1,0.8-1.8,1.8-1.8h1.4c1,0,1.8,0.8,1.8,1.8v0.6
		C43.2,25.7,42.4,26.5,41.4,26.5z"/>
	<path class="st0" d="M41.4,30.6H40c-1,0-1.8-0.8-1.8-1.8v-0.6c0-1,0.8-1.8,1.8-1.8h1.4c1,0,1.8,0.8,1.8,1.8v0.6
		C43.2,29.8,42.4,30.6,41.4,30.6z"/>
	<path class="st0" d="M41.4,34.7H40c-1,0-1.8-0.8-1.8-1.8v-0.6c0-1,0.8-1.8,1.8-1.8h1.4c1,0,1.8,0.8,1.8,1.8V33
		C43.2,33.9,42.4,34.7,41.4,34.7z"/>
	<path class="st0" d="M15.8,40.7V20c0-1,1.1-1.5,1.9-1l2.5,1.8"/>
	<polyline class="st0" points="9.8,49.3 14.8,40.4 30.5,46.1 28.9,49.7 	"/>
	<line class="st0" x1="36.9" y1="36.5" x2="29.1" y2="45.6"/>
	<path class="st0" d="M39,22.3"/>
	<path class="st0" d="M39.3,18.2V8.5c0-0.9-0.7-1.7-1.7-1.7H21.9c-0.9,0-1.7,0.7-1.7,1.7v26.4c0,0.9,0.7,1.7,1.7,1.7h15.7
		c0.9,0,1.7-0.7,1.7-1.7v-0.2"/>
	<line class="st0" x1="23.4" y1="26.5" x2="35.9" y2="26.5"/>
	<path class="st0" d="M24.6,26c0-2.8,2.3-5.1,5.1-5.1s5.1,2.3,5.1,5.1"/>
	<circle class="st1" cx="29.7" cy="19.3" r="1.6"/>
	<circle class="st2" cx="15.9" cy="45.9" r="0.8"/>
	<circle class="st1" cx="29.7" cy="33.2" r="1.6"/>
	<line class="st3" x1="26.5" y1="10.3" x2="33" y2="10.3"/>
</g>
</svg>
