<?xml version="1.0" encoding="utf-8"?>
<!-- Generator: Adobe Illustrator 23.0.1, SVG Export Plug-In . SVG Version: 6.00 Build 0)  -->
<svg version="1.1" id="Layer_1" xmlns="http://www.w3.org/2000/svg" xmlns:xlink="http://www.w3.org/1999/xlink" x="0px" y="0px"
	 viewBox="0 0 52 52" style="enable-background:new 0 0 52 52;" xml:space="preserve">
<style type="text/css">
	.st0{fill:#EE3B44;}
	.st1{fill:#D93843;}
</style>
<g>
	<path class="st0" d="M33.5,12.8c-0.1,0-0.2,0-0.3-0.1c-0.1-0.1-0.1-0.2-0.1-0.3c0-0.1,0-0.3,0-0.4c0-4.2-3.5-7.7-7.7-7.7
		c-2.4,0-4.6,1.1-6.1,3l-0.1,0.1l1,1c0.1,0.1,0.1,0.2,0.1,0.4C20.3,8.9,20.1,9,20,9l-3.8,0.5c0,0,0,0,0,0c-0.1,0-0.2,0-0.3-0.1
		c-0.1-0.1-0.1-0.2-0.1-0.3l0.6-3.8c0-0.1,0.1-0.3,0.2-0.3c0.1,0,0.1,0,0.1,0c0.1,0,0.2,0,0.2,0.1L17.9,6L18,5.8
		c1.9-2.2,4.6-3.5,7.4-3.5c5.3,0,9.6,4.3,9.6,9.6c0,0.1,0,0.2,0,0.3c0,0.2-0.1,0.3-0.3,0.4L33.5,12.8L33.5,12.8z"/>
	<path class="st0" d="M25.4,21.5c-5.2,0-9.5-4.2-9.6-9.4V12c0-0.1,0-0.3,0-0.6c0-0.2,0.1-0.3,0.3-0.3l1.2-0.2h0c0.1,0,0.2,0,0.3,0.1
		c0.1,0.1,0.1,0.2,0.1,0.3c0,0.2,0,0.4,0,0.5l0,0.1c0,4.2,3.5,7.7,7.7,7.7c2.4,0,4.7-1.1,6.1-3l0.1-0.1l-1-1
		c-0.1-0.1-0.1-0.2-0.1-0.4c0-0.1,0.2-0.2,0.3-0.2c0,0,0.6-0.1,3.8-0.5c0,0,0,0,0,0c0.1,0,0.2,0,0.3,0.1c0.1,0.1,0.1,0.2,0.1,0.3
		l-0.6,3.8c0,0.1-0.1,0.3-0.2,0.3c-0.1,0-0.1,0-0.1,0c-0.1,0-0.2,0-0.2-0.1L33,17.8L32.9,18C31,20.2,28.3,21.5,25.4,21.5"/>
	<path class="st0" d="M26,49.7c-0.1,0-0.2,0-0.3-0.1L9.4,41.7C9.1,41.6,9,41.3,9,41V30.9l-3.5-1.7c-0.2-0.1-0.3-0.3-0.4-0.5
		c-0.1-0.2,0-0.4,0.1-0.6L9,20.8c0.1-0.2,0.3-0.3,0.5-0.4l6.1-1.6c0.3,0.5,0.7,0.9,1.1,1.3l-4.3,1.2L26,26.3l13.7-5.1l-4.3-1.2
		c0.4-0.4,0.8-0.9,1.1-1.3l6.1,1.6c0.2,0.1,0.4,0.2,0.5,0.4l3.9,7.4c0.1,0.2,0.1,0.4,0.1,0.6c-0.1,0.2-0.2,0.4-0.4,0.5l-3.4,1.6
		l0,0.1l0,10.1c0,0.3-0.2,0.6-0.4,0.7l-16.3,7.9C26.3,49.7,26.2,49.7,26,49.7 M26.8,31.9v15.8l14.7-7.1v-9l-11.2,5.3
		c-0.1,0.1-0.2,0.1-0.3,0.1c-0.1,0-0.2,0-0.3,0c-0.2-0.1-0.4-0.2-0.4-0.4l-2.1-4.6L26.8,31.9z M10.5,40.5l14.7,7.1V31.7l-0.4-0.1
		l-2.2,4.8c-0.1,0.2-0.2,0.3-0.4,0.4c-0.1,0-0.2,0-0.3,0c-0.1,0-0.2,0-0.3-0.1l-11.1-5.2V40.5z M6.9,28.1l14.7,6.9l3.4-7.5
		l-14.9-5.5L6.9,28.1z M27.1,27.6l3.4,7.5l14.7-6.9l-3.2-6L27.1,27.6z"/>
</g>
</svg>
