<?xml version="1.0" encoding="utf-8"?>
<!-- Generator: Adobe Illustrator 23.0.1, SVG Export Plug-In . SVG Version: 6.00 Build 0)  -->
<svg version="1.1" id="Layer_1" xmlns="http://www.w3.org/2000/svg" xmlns:xlink="http://www.w3.org/1999/xlink" x="0px" y="0px"
	 viewBox="0 0 52 52" style="enable-background:new 0 0 52 52;" xml:space="preserve">
<style type="text/css">
	.st0{fill:#EE3B44;}
	.st1{fill:#D93843;}
</style>
<g>
	<path class="st0" d="M30.4,20c-0.1,0-0.2-0.1-0.4-0.2c-1.7-1.2-3.4-2.5-5.1-4c-1.8-1.6-3-2.9-4-4.2c-0.8-1-1.5-2.2-1.7-3.5
		c-0.3-1.5,0-3,0.9-4.4c1.1-1.8,2.7-2.9,4.8-3.2c0,0,0.1,0,0.1,0h1.8l0.1,0c0.1,0,0.2,0,0.3,0.1c1.1,0.2,2.1,0.7,2.9,1.3
		c0.1,0.1,0.2,0.2,0.4,0.2c0.1,0,0.3,0,0.4-0.1c0.9-0.7,2-1.2,3.3-1.4h1.8c1.3,0.2,2.4,0.7,3.4,1.5c1.3,1.1,2.1,2.5,2.5,4.2
		c0.3,1.6-0.1,3.1-1.4,4.9c-1,1.5-2.3,2.9-4.1,4.5c-1.6,1.4-3.2,2.7-5,4l0,0c-0.1,0.1-0.2,0.2-0.4,0.2C30.6,19.9,30.5,20,30.4,20"/>
	<path class="st0" d="M11.3,51.2c0.4,0.4,1.1,0.4,1.5,0l5.1-5c0.9-0.9,1.1-2.1,0.7-3.2l1.1-1c0.6-0.6,1.4-0.9,2.2-0.9h13.9
		c2.5,0,4.8-0.9,6.5-2.7c0.1-0.1-0.6,0.7,9.5-11.3c1.5-1.8,1.3-4.4-0.5-5.9c-1.7-1.5-4.4-1.3-5.9,0.5L39.2,28c-0.8-1-2-1.6-3.2-1.6
		H24.3c-1.7-0.7-3.4-1-5.2-1c-5,0-9.4,2.3-11.8,6.7c-1-0.2-2,0.1-2.8,0.9l-5,5c-0.4,0.4-0.4,1.1,0,1.5L11.3,51.2z M19.1,27.5
		c1.6,0,3.1,0.3,4.6,1c0.1,0.1,0.3,0.1,0.4,0.1H36c1.1,0,2.1,0.9,2.1,2.1c0,1.2-0.9,2.1-2.1,2.1h-8.5c-0.6,0-1,0.5-1,1
		c0,0.6,0.5,1,1,1H36c2.3,0,4.2-1.9,4.2-4.2c0-0.2,0-0.4,0-0.5c6-6.1,6.8-7,6.8-7c0.7-0.9,2.1-1,2.9-0.2c0.9,0.7,1,2.1,0.2,2.9
		L40.8,37c-1.4,1.3-3.2,2-5.1,2H21.8c-1.4,0-2.6,0.5-3.6,1.5l-0.9,0.9l-8.2-8.2C11.1,29.6,14.7,27.5,19.1,27.5 M6,34.4
		c0.3-0.3,0.9-0.4,1.3-0.1c0.2,0.1-0.3-0.4,9,9c0.4,0.4,0.4,1.1,0,1.5L12.1,49L1.8,38.7L6,34.4z"/>
</g>
</svg>
