<?xml version="1.0" encoding="utf-8"?>
<!-- Generator: Adobe Illustrator 23.0.1, SVG Export Plug-In . SVG Version: 6.00 Build 0)  -->
<svg version="1.1" id="Layer_1" xmlns="http://www.w3.org/2000/svg" xmlns:xlink="http://www.w3.org/1999/xlink" x="0px" y="0px"
	 viewBox="0 0 52 52" style="enable-background:new 0 0 52 52;" xml:space="preserve">
<style type="text/css">
	.st0{fill:#EE3B44;}
	.st1{fill:#D93843;}
</style>
<g>
	<path class="st0" d="M22.1,38.5c-0.4,0-0.6-0.3-0.6-0.6c0-0.4,0.3-0.6,0.6-0.6h1.8c0.4,0,0.6,0.3,0.6,0.6c0,0.4-0.3,0.6-0.6,0.6
		H22.1z"/>
	<path class="st0" d="M11,35.5c-1.3,0-2.5-0.9-2.8-2.2c-0.1-0.5,0.1-1.1,0.6-1.3c0.9-0.5,1.7-1.1,2.4-1.9c1.6-1.6,3.7-2.4,5.9-2.4
		h1.7c0.5,0,0.9,0.4,0.9,0.9v5.9c0,0.5-0.4,0.9-0.9,0.9H11z M17.1,28.9c-1.9,0-3.7,0.7-5,2.1c-0.8,0.8-1.7,1.4-2.6,2l-0.1,0l0,0.1
		c0.2,0.6,0.8,1.1,1.5,1.1h7.5v-5.2H17.1z"/>
	<path class="st0" d="M22.1,35.5c-0.5,0-0.8-0.4-0.8-0.8v-6.1c0-0.5,0.4-0.8,0.8-0.8h3.5c1.7,0,3.3,0.5,4.7,1.4l4.6,3.1
		c0.3,0.2,0.6,0.4,0.9,0.5c0.6,0.4,1,1,1,1.7c0,0.5-0.4,1-1,1H22.1z M22.5,34.2h13L35.4,34c-0.1-0.1-0.1-0.1-0.2-0.2
		c-0.3-0.2-0.7-0.4-1-0.6l-4.6-3.1c-1.2-0.8-2.6-1.2-4-1.2h-3.1V34.2z"/>
	<path class="st0" d="M10.2,45.2c-0.6,0-1.2-0.2-1.6-0.7c-0.4-0.4-0.7-1-0.7-1.6c0-0.6,0.2-1.2,0.7-1.6c0.4-0.4,1-0.7,1.6-0.7
		c0.6,0,1.2,0.2,1.6,0.7c0.4,0.4,0.7,1,0.7,1.6s-0.2,1.2-0.7,1.6C11.4,44.9,10.8,45.2,10.2,45.2 M10.2,41.9c-0.3,0-0.5,0.1-0.7,0.3
		c-0.2,0.2-0.3,0.4-0.3,0.7c0,0.3,0.1,0.5,0.3,0.7c0.2,0.2,0.4,0.3,0.7,0.3c0.3,0,0.5-0.1,0.7-0.3c0.2-0.2,0.3-0.4,0.3-0.7
		c0-0.3-0.1-0.5-0.3-0.7C10.7,42,10.5,41.9,10.2,41.9"/>
	<path class="st0" d="M41.7,45.2c-0.6,0-1.2-0.2-1.6-0.7c-0.4-0.4-0.7-1-0.7-1.6c0-0.6,0.2-1.2,0.7-1.6c0.4-0.4,1-0.7,1.6-0.7
		c0.6,0,1.2,0.2,1.6,0.7c0.4,0.4,0.7,1,0.7,1.6s-0.2,1.2-0.7,1.6C42.9,44.9,42.3,45.2,41.7,45.2 M41.7,41.9c-0.3,0-0.5,0.1-0.7,0.3
		c-0.2,0.2-0.3,0.4-0.3,0.7c0,0.3,0.1,0.5,0.3,0.7c0.2,0.2,0.4,0.3,0.7,0.3c0.3,0,0.5-0.1,0.7-0.3c0.2-0.2,0.3-0.4,0.3-0.7
		c0-0.3-0.1-0.5-0.3-0.7C42.2,42,42,41.9,41.7,41.9"/>
	<path class="st0" d="M41.7,47.3c-1.2,0-2.3-0.5-3.1-1.3c-0.7-0.7-1.1-1.5-1.2-2.4l0-0.1H14.6l0,0.1c-0.1,0.9-0.6,1.8-1.2,2.4
		c-0.8,0.8-1.9,1.3-3.1,1.3S7.9,46.9,7.1,46c-0.7-0.7-1.2-1.7-1.3-2.7l0,0l-3.1-1.4c-0.7-0.3-1.2-1-1.2-1.8v-6
		c0-1.5,1.1-2.8,2.5-3.1l1-0.2c1.8-0.4,3.4-1.2,4.6-2.5c2-2,4.6-3.1,7.4-3.1h4.9l0-0.1c0,0,0-0.1,0-0.1v-5.2l-0.1,0
		C20.8,19.4,20,18.2,20,17l0-1.3l0-0.1l0-0.1l1.3-3.3c0.2-0.5,0.6-0.8,1.2-0.8h20.2c0.5,0,1,0.3,1.2,0.8l1.3,3.3l0,0.1l0,0.1l0,0.1
		V17c0,1.2-0.6,2.2-1.7,2.7l0,0V25c0,1-0.8,1.8-1.8,1.8H31.1l0.4,0.2l4.6,3.1c0.8,0.6,2.1,1.3,3.4,1.6l6.4,1.3
		c1.6,0.3,2.9,1.3,3.8,2.6l0.2,0.4c0.4,0.6,0.6,1.4,0.6,2.1V41c0,1.4-1.1,2.5-2.5,2.5h-1.8l0,0.1c-0.1,0.9-0.6,1.8-1.2,2.4
		C44,46.9,42.9,47.3,41.7,47.3 M41.7,39.8c-0.8,0-1.6,0.3-2.2,0.9c-0.6,0.6-0.9,1.4-0.9,2.2c0,0.8,0.3,1.6,0.9,2.2
		c0.6,0.6,1.4,0.9,2.2,0.9c0.8,0,1.6-0.3,2.2-0.9c0.6-0.6,0.9-1.4,0.9-2.2c0-0.8-0.3-1.6-0.9-2.2C43.3,40.1,42.6,39.8,41.7,39.8
		 M10.2,39.8c-0.8,0-1.6,0.3-2.2,0.9c-0.6,0.6-0.9,1.4-0.9,2.2c0,0.8,0.3,1.6,0.9,2.2c0.6,0.6,1.4,0.9,2.2,0.9
		c0.8,0,1.6-0.3,2.2-0.9c1.2-1.2,1.2-3.2,0-4.4C11.8,40.1,11,39.8,10.2,39.8 M41.7,38.5c1.2,0,2.3,0.5,3.1,1.3
		c0.7,0.7,1.1,1.5,1.2,2.4l0,0.1h1.8c0.7,0,1.3-0.6,1.3-1.3v-1.5h-2.3c-0.6,0-1.1-0.5-1.1-1.1v-1.1c0-1,0.7-1.8,1.7-2l0.2,0
		l-0.1-0.1c-0.6-0.5-1.2-0.8-1.9-0.9L39.3,33c-1.5-0.3-2.8-1.1-3.8-1.8l-4.6-3.1c-0.9-0.6-1.9-1.1-3-1.3l-0.1,0
		c-0.7-0.2-1.4-0.3-2.1-0.3h-8.5c-2.5,0-4.8,1-6.5,2.7c-1.4,1.4-3.3,2.4-5.3,2.8l-1,0.2c-0.9,0.2-1.5,1-1.5,1.9v1.2h1.3
		c0.6,0,1,0.5,1,1v2.1c0,0.6-0.5,1-1,1H2.8v0.6c0,0.3,0.2,0.5,0.4,0.6l2.6,1.2l0-0.1c0.2-0.8,0.6-1.5,1.2-2.1
		c0.8-0.8,1.9-1.3,3.1-1.3c1.2,0,2.3,0.5,3.1,1.3c0.7,0.7,1.1,1.5,1.2,2.4l0,0.1h22.8l0-0.1c0.1-0.9,0.6-1.8,1.2-2.4
		C39.4,38.9,40.5,38.5,41.7,38.5 M47.9,36.6c-0.4,0-0.8,0.3-0.8,0.8v0.9h2.1v-0.1c0-0.5-0.1-1-0.4-1.5l0,0l-0.1-0.1H47.9z M2.8,38.2
		h1.1v-1.6H2.8V38.2z M25.3,18.9c-0.5,0.6-1.2,1-1.9,1.1l-0.1,0v5c0,0.1,0,0.1,0,0.2l0,0.1h2.2c0.8,0,1.6,0.1,2.4,0.3l13.6,0
		c0.3,0,0.5-0.2,0.5-0.5v-5l-0.1,0c-0.9,0-1.7-0.4-2.3-1.1l-0.1-0.1l-0.1,0.1c-0.6,0.7-1.4,1.1-2.3,1.1c-0.9,0-1.8-0.4-2.3-1.1
		L35,18.8l-0.1,0.1c-0.6,0.7-1.4,1.1-2.3,1.1c-0.9,0-1.8-0.4-2.3-1.1l-0.1-0.1l-0.1,0.1c-0.6,0.7-1.4,1.1-2.3,1.1
		c-0.9,0-1.8-0.4-2.3-1.1H25.3L25.3,18.9z M40.4,17c0,1,0.8,1.8,1.8,1.8c0.1,0,0.1,0,0.2,0c0.1,0,0.1,0,0.2,0
		c0.8-0.2,1.4-0.9,1.4-1.7v-0.6h-3.5V17z M35.6,17c0,1,0.8,1.8,1.8,1.8c1,0,1.8-0.8,1.8-1.8v-0.6h-3.5V17z M30.8,17
		c0,1,0.8,1.8,1.8,1.8c1,0,1.8-0.8,1.8-1.8v-0.6h-3.5V17z M26,17c0,1,0.8,1.8,1.8,1.8c1,0,1.8-0.8,1.8-1.8v-0.6H26V17z M21.2,17
		c0,0.9,0.7,1.6,1.6,1.7c0.1,0,0.2,0,0.2,0c1,0,1.8-0.8,1.8-1.8v-0.6h-3.5V17z M21.5,15.1h22.1l-1-2.4H22.5L21.5,15.1z"/>
	<path class="st0" d="M47.2,31.4c-0.4,0-0.6-0.3-0.6-0.6V9.3H19v13.2c0,0.4-0.3,0.6-0.6,0.6c-0.4,0-0.6-0.3-0.6-0.6V9.3h-0.9
		c-0.5,0-1-0.4-1-1V5.7c0-0.5,0.4-1,1-1h32c0.5,0,1,0.4,1,1v2.7c0,0.5-0.4,1-1,1h-0.9v21.5C47.8,31.2,47.5,31.4,47.2,31.4 M17.1,8
		h31.4V6H17.1V8z"/>
</g>
</svg>
