<?xml version="1.0" encoding="utf-8"?>
<!-- Generator: Adobe Illustrator 23.0.1, SVG Export Plug-In . SVG Version: 6.00 Build 0)  -->
<svg version="1.1" id="Layer_1" xmlns="http://www.w3.org/2000/svg" xmlns:xlink="http://www.w3.org/1999/xlink" x="0px" y="0px"
	 viewBox="0 0 52 52" style="enable-background:new 0 0 52 52;" xml:space="preserve">
<style type="text/css">
	.st0{fill:#D93843;stroke:#FFFFFF;stroke-width:0.5365;stroke-miterlimit:10;}
	.st1{fill:#FFFFFF;stroke:#D93843;stroke-width:1.6096;stroke-miterlimit:10;}
	.st2{fill:#FFFFFF;stroke:#D93843;stroke-width:1.2871;stroke-linecap:round;stroke-miterlimit:10;}
	.st3{fill:#D93843;stroke:#FFFFFF;stroke-width:0.5806;stroke-miterlimit:10;}
</style>
<g>
	<path class="st0" d="M40.6,41.8H11.2c-2.4,0-4.4-2-4.4-4.4V11.2c0-2.4,2-4.4,4.4-4.4h29.4c2.4,0,4.4,2,4.4,4.4v26.2
		C44.9,39.8,43,41.8,40.6,41.8z M11.2,9.2c-1.1,0-2,0.9-2,2v26.2c0,1.1,0.9,2,2,2h29.4c1.1,0,2-0.9,2-2V11.2c0-1.1-0.9-2-2-2H11.2z"
		/>
</g>
<circle class="st1" cx="37.6" cy="37.8" r="10.9"/>
<g>
	<line class="st2" x1="33.4" y1="33.6" x2="41.9" y2="42"/>
	<line class="st2" x1="41.9" y1="33.6" x2="33.4" y2="42"/>
</g>
<g>
	<path class="st0" d="M25.9,19.1v4.8H14.8v-4.8h-2.4v6c0,0.7,0.5,1.2,1.2,1.2h13.5c0.7,0,1.2-0.5,1.2-1.2v-6H25.9z"/>
	<polygon class="st3" points="21.6,21.6 24,19.3 21.6,19.3 21.6,13.1 19,13.1 19,19.3 16.7,19.3 19,21.6 19,21.7 19.1,21.7 
		20.3,22.9 21.6,21.7 21.6,21.7 	"/>
</g>
</svg>
