<?xml version="1.0" encoding="utf-8"?>
<!-- Generator: Adobe Illustrator 23.0.1, SVG Export Plug-In . SVG Version: 6.00 Build 0)  -->
<svg version="1.1" id="Layer_1" xmlns="http://www.w3.org/2000/svg" xmlns:xlink="http://www.w3.org/1999/xlink" x="0px" y="0px"
	 viewBox="0 0 52 52" style="enable-background:new 0 0 52 52;" xml:space="preserve">
<style type="text/css">
	.st0{fill:none;stroke:#D93843;stroke-width:1.5;stroke-linecap:round;stroke-linejoin:round;stroke-miterlimit:10;}
	.st1{fill:none;stroke:#D93843;stroke-width:1.5957;stroke-linecap:round;stroke-linejoin:round;stroke-miterlimit:10;}
	.st2{fill:none;stroke:#D93843;stroke-width:1.0638;stroke-linecap:round;stroke-linejoin:round;stroke-miterlimit:10;}
</style>
<g>
	<path class="st0" d="M4.3,37.6v-26c0-2.3,1.8-4.1,4.1-4.1h35.9c2.3,0,4.1,1.8,4.1,4.1v26"/>
	<path class="st0" d="M31.4,37.6c-0.3,1.5-1.6,2.7-3.3,2.7h-4c-1.6,0-3-1.2-3.3-2.7h-20V38c0,3.6,2.9,6.5,6.5,6.5h37.4
		c3.6,0,6.5-2.9,6.5-6.5v-0.4H31.4z"/>
	<path class="st0" d="M9.3,33.6V16.7c0-2.2,1.8-4,4-4h26.2c2.2,0,4,1.8,4,4v16.9"/>
	<g>
		<line class="st1" x1="15" y1="30.2" x2="37.7" y2="30.2"/>
		<path class="st1" d="M33.8,30.2c0-4.1-3.3-7.4-7.4-7.4S19,26.1,19,30.2"/>
		<path class="st2" d="M26,25.2c-2,0-3.7,1.5-3.9,3.4"/>
		<path class="st1" d="M26.4,22.8c0.7,0,1.4,0.1,2.1,0.3c0.1-0.3,0.2-0.6,0.2-0.9c0-1.3-0.9-2.3-1.9-2.3c-1.1,0-1.9,1-1.9,2.3
			c0,0.3,0,0.5,0.1,0.7C25.4,22.9,25.9,22.8,26.4,22.8z"/>
	</g>
</g>
</svg>
