<?xml version="1.0" encoding="utf-8"?>
<!-- Generator: Adobe Illustrator 23.0.1, SVG Export Plug-In . SVG Version: 6.00 Build 0)  -->
<svg version="1.1" id="Layer_1" xmlns="http://www.w3.org/2000/svg" xmlns:xlink="http://www.w3.org/1999/xlink" x="0px" y="0px"
	 viewBox="0 0 52 52" style="enable-background:new 0 0 52 52;" xml:space="preserve">
<style type="text/css">
	.st0{fill:#D93843;stroke:#FFFFFF;stroke-width:0.5365;stroke-miterlimit:10;}
	.st1{fill:#D93843;}
	.st2{fill:none;stroke:#D93843;stroke-miterlimit:10;}
</style>
<path class="st0" d="M41.8,47.6H10.2c-2.4,0-4.4-2-4.4-4.4V10.1c0-2.4,2-4.4,4.4-4.4h31.6c2.4,0,4.4,2,4.4,4.4v33.2
	C46.2,45.7,44.2,47.6,41.8,47.6z M10.2,8.1c-1.1,0-2,0.9-2,2v33.2c0,1.1,0.9,2,2,2h31.6c1.1,0,2-0.9,2-2V10.1c0-1.1-0.9-2-2-2H10.2z
	"/>
<rect x="20.1" y="14.5" class="st1" width="18.9" height="1.8"/>
<rect x="20.1" y="21.8" class="st1" width="18.9" height="1.8"/>
<circle class="st1" cx="14.4" cy="30" r="1.4"/>
<rect x="20.1" y="29.2" class="st1" width="18.9" height="1.8"/>
<circle class="st1" cx="14.4" cy="37.4" r="1.4"/>
<rect x="20.1" y="36.5" class="st1" width="18.9" height="1.8"/>
<polyline class="st2" points="13,15.1 14.2,16.3 17.4,13.1 "/>
<polyline class="st2" points="13,22.2 14.2,23.4 17.4,20.2 "/>
</svg>
