<?xml version="1.0" encoding="utf-8"?>
<!-- Generator: Adobe Illustrator 23.0.1, SVG Export Plug-In . SVG Version: 6.00 Build 0)  -->
<svg version="1.1" id="Layer_1" xmlns="http://www.w3.org/2000/svg" xmlns:xlink="http://www.w3.org/1999/xlink" x="0px" y="0px"
	 viewBox="0 0 52 52" style="enable-background:new 0 0 52 52;" xml:space="preserve">
<style type="text/css">
	.st0{fill:none;stroke:#D93843;stroke-width:1.507;stroke-linecap:round;stroke-linejoin:round;stroke-miterlimit:10;}
	.st1{fill:#D93843;}
	.st2{fill:none;stroke:#D93843;stroke-miterlimit:10;}
</style>
<g>
	<path class="st0" d="M3.9,36.6V9.9c0-2,1.6-3.6,3.6-3.6h36.9c2,0,3.6,1.6,3.6,3.6v26.7"/>
	<path class="st0" d="M3.9,15.4v26.7c0,2,1.6,3.6,3.6,3.6h36.9c2,0,3.6-1.6,3.6-3.6V15.4"/>
</g>
<g>
	<g>
		<g>
			<path class="st1" d="M29.6,11.7H10c-0.3,0-0.6,0.3-0.6,0.6V27c0,0.3,0.3,0.6,0.6,0.6h19.6c0.3,0,0.6-0.3,0.6-0.6V12.3
				C30.2,12,29.9,11.7,29.6,11.7z M10.6,26.4V26l6.7-6.7l4.5,5.6c0.1,0.1,0.3,0.2,0.4,0.2c0.2,0,0.3-0.1,0.5-0.2l2-2l3.4,3.4H10.6z
				 M29,25.5l-3.9-3.8c-0.2-0.2-0.6-0.2-0.9,0l-2,2l-4.5-5.6c-0.1-0.1-0.3-0.2-0.4-0.2c-0.2,0-0.3,0.1-0.5,0.2l-6.3,6.3V12.9H29
				V25.5z M23.4,19c1,0,1.8-0.8,1.8-1.8c0-1-0.8-1.8-1.8-1.8c-1,0-1.8,0.8-1.8,1.8C21.6,18.2,22.4,19,23.4,19z M23.4,16.6
				c0.3,0,0.6,0.3,0.6,0.6c0,0.3-0.3,0.6-0.6,0.6s-0.6-0.3-0.6-0.6C22.8,16.9,23.1,16.6,23.4,16.6z"/>
		</g>
	</g>
	<line class="st2" x1="9.3" y1="31.8" x2="42.7" y2="31.8"/>
	<line class="st2" x1="9.3" y1="36.1" x2="42.7" y2="36.1"/>
	<line class="st2" x1="9.3" y1="40.3" x2="42.7" y2="40.3"/>
</g>
</svg>
