<?xml version="1.0" encoding="utf-8"?>
<!-- Generator: Adobe Illustrator 23.0.1, SVG Export Plug-In . SVG Version: 6.00 Build 0)  -->
<svg version="1.1" id="Capa_1" xmlns="http://www.w3.org/2000/svg" xmlns:xlink="http://www.w3.org/1999/xlink" x="0px" y="0px"
	 viewBox="0 0 35 35" style="enable-background:new 0 0 35 35;" xml:space="preserve">
<style type="text/css">
	.st0{fill:#EE252F;}
</style>
<g>
	<g>
		<g>
			<path class="st0" d="M28.3,6.7c-2.9-2.9-6.7-4.5-10.8-4.5s-8,1.6-10.8,4.5c-2.9,2.9-4.5,6.7-4.5,10.8s1.6,8,4.5,10.8
				s6.7,4.5,10.8,4.5s8-1.6,10.8-4.5s4.5-6.7,4.5-10.8S31.3,9.5,28.3,6.7z M17.5,31C10,31,4,25,4,17.5S10,4,17.5,4S31,10,31,17.5
				S25,31,17.5,31z"/>
		</g>
	</g>
	<g>
		<g>
			<path class="st0" d="M24.8,12.6c-0.4-0.4-0.9-0.4-1.3,0l-7.9,7.9l-4.2-4.2c-0.4-0.4-0.9-0.4-1.3,0c-0.3,0.4-0.4,0.9,0,1.3
				l4.8,4.8c0.2,0.2,0.4,0.3,0.6,0.3c0.2,0,0.5-0.1,0.6-0.3l8.6-8.6C25.2,13.5,25.2,12.9,24.8,12.6z"/>
		</g>
	</g>
</g>
</svg>
