<svg xmlns="http://www.w3.org/2000/svg" xmlns:xlink="http://www.w3.org/1999/xlink" width="72" height="72" viewBox="0 0 72 72">
  <defs>
    <clipPath id="clip-ico-easy-operate">
      <rect width="72" height="72"/>
    </clipPath>
  </defs>
  <g id="ico-easy-operate" clip-path="url(#clip-ico-easy-operate)">
    <rect width="72" height="72" fill="#fff"/>
    <g id="Group_28" data-name="Group 28" transform="translate(8 8)">
      <path id="Path_29" data-name="Path 29" d="M460.4,694.146a2.06,2.06,0,0,0-2.058-2.058h-3.372l-.029-.111a23.211,23.211,0,0,0-2.442-5.9l-.058-.1,2.384-2.384a2.061,2.061,0,0,0,0-2.91l-5.3-5.3a2.06,2.06,0,0,0-2.91,0l-2.384,2.384-.1-.058a23.211,23.211,0,0,0-5.9-2.442l-.111-.029v-3.372a2.06,2.06,0,0,0-2.058-2.058h-7.5a2.06,2.06,0,0,0-2.058,2.058v3.38l-.111.029a23.178,23.178,0,0,0-5.889,2.444l-.1.058-2.394-2.394a2.06,2.06,0,0,0-2.91,0l-5.3,5.3a2.06,2.06,0,0,0,0,2.91l2.4,2.4-.058.1a23.194,23.194,0,0,0-2.432,5.881l-.029.111h-3.4a2.06,2.06,0,0,0-2.058,2.058v7.5a2.06,2.06,0,0,0,2.058,2.058h3.408l.029.111a23.181,23.181,0,0,0,2.434,5.87l.058.1-2.412,2.412a2.06,2.06,0,0,0,0,2.91l5.3,5.3a2.06,2.06,0,0,0,2.91,0L420.417,718l.1.058a23.186,23.186,0,0,0,5.871,2.434l.111.029v3.408a2.06,2.06,0,0,0,2.058,2.058h7.5a2.06,2.06,0,0,0,2.058-2.058v-3.4l.111-.029a23.205,23.205,0,0,0,5.881-2.432l.1-.058,2.4,2.4a2.061,2.061,0,0,0,2.91,0l5.3-5.3a2.06,2.06,0,0,0,0-2.91l-2.394-2.394.058-.1a23.212,23.212,0,0,0,2.445-5.888l.029-.111h3.38a2.06,2.06,0,0,0,2.058-2.058Zm-1.91,7.649H454.2a.96.96,0,0,0-.932.748,21.284,21.284,0,0,1-2.859,6.886.961.961,0,0,0,.129,1.19l3.033,3.033-5.513,5.513-3.039-3.039a.961.961,0,0,0-1.188-.13,21.282,21.282,0,0,1-6.88,2.845.961.961,0,0,0-.75.933v4.3h-7.8v-4.31a.949.949,0,0,0-.748-.932,21.26,21.26,0,0,1-6.869-2.849.956.956,0,0,0-1.189.13l-3.05,3.05-5.513-5.514,3.05-3.05a.949.949,0,0,0,.13-1.189,21.27,21.27,0,0,1-2.849-6.869.949.949,0,0,0-.932-.748h-4.31V694h4.3a.949.949,0,0,0,.933-.75,21.287,21.287,0,0,1,2.844-6.88.96.96,0,0,0-.13-1.188l-3.039-3.04,5.513-5.513,3.033,3.033a.96.96,0,0,0,1.189.129,21.279,21.279,0,0,1,6.886-2.859.949.949,0,0,0,.748-.932v-4.282h7.8v4.276a.96.96,0,0,0,.75.932,21.282,21.282,0,0,1,6.9,2.855.961.961,0,0,0,1.189-.13l3.022-3.022,5.513,5.513-3.022,3.022a.95.95,0,0,0-.13,1.189,21.267,21.267,0,0,1,2.855,6.9.96.96,0,0,0,.932.75h4.276Z" transform="translate(-404.216 -669.807)" fill="#ef343e"/>
      <path id="Path_30" data-name="Path 30" d="M470.294,735.864a15.956,15.956,0,1,0,25.562,4.152.955.955,0,1,0-1.708.853,14.042,14.042,0,0,1-12.569,20.317h0a14.045,14.045,0,1,1,6.866-26.3.955.955,0,0,0,.934-1.665,16.054,16.054,0,0,0-7.823-2.03,15.9,15.9,0,0,0-11.26,4.671Z" transform="translate(-453.487 -719.057)" fill="#ef343e"/>
      <path id="Path_31" data-name="Path 31" d="M597.3,754.623a.955.955,0,1,0,.675.28A.961.961,0,0,0,597.3,754.623Z" transform="translate(-558.365 -737.855)" fill="#ef343e"/>
      <path id="Path_32" data-name="Path 32" d="M498.314,779.565a.947.947,0,0,0,.28.675l6.975,6.976a.955.955,0,0,0,1.351,0l10.089-10.089a.956.956,0,0,0,0-1.35l-3.957-3.957a.954.954,0,0,0-1.35,0l-5.458,5.457-2.344-2.344a.962.962,0,0,0-.676-.279.948.948,0,0,0-.675.279l-3.956,3.957A.948.948,0,0,0,498.314,779.565Zm4.911-2.606,2.344,2.344a.949.949,0,0,0,.675.28.961.961,0,0,0,.675-.28l5.457-5.457,2.606,2.606-8.739,8.738-5.625-5.625Z" transform="translate(-479.711 -751.428)" fill="#ef343e"/>
    </g>
  </g>
</svg>
