<?xml version="1.0" encoding="utf-8"?>
<!-- Generator: Adobe Illustrator 23.0.1, SVG Export Plug-In . SVG Version: 6.00 Build 0)  -->
<svg version="1.1" id="Layer_1" xmlns="http://www.w3.org/2000/svg" xmlns:xlink="http://www.w3.org/1999/xlink" x="0px" y="0px"
	 viewBox="0 0 115 115" style="enable-background:new 0 0 115 115;" xml:space="preserve">
<style type="text/css">
	.st0{fill:#EE3A44;}
	.st1{fill:none;stroke:#EE3A44;stroke-width:3.8025;stroke-miterlimit:10;}
	.st2{fill:#FFFFFF;}
</style>
<g>
	<path class="st0" d="M82.2,63.7V18.4c0-5.7-4.6-10.3-10.3-10.3H26.6c-0.5,0-1.1,0.2-1.5,0.6L8.7,25.1c-0.4,0.4-0.6,0.9-0.6,1.5v70
		c0,5.7,4.6,10.3,10.3,10.3h53.6c5.7,0,10.3-4.6,10.3-10.3v-4.1h-4.1v4.1c0,3.4-2.8,6.2-6.2,6.2H18.4c-3.4,0-6.2-2.8-6.2-6.2V27.5
		l15.3-15.3h44.5c3.4,0,6.2,2.8,6.2,6.2v45.3H82.2z"/>
	<path class="st1" d="M106.3,57.6l-5.7-5.7c-0.8-0.8-2.1-0.8-2.9,0L66.3,83.3c-0.3,0.3-0.5,0.6-0.5,1h-0.1v6.2
		c0,1.1,0.9,2.1,2.1,2.1H74v-0.1c0.4-0.1,0.7-0.3,1-0.5l31.4-31.4C107.1,59.7,107.1,58.4,106.3,57.6z"/>
	<path class="st0" d="M61.6,36.9h-33c-1.1,0-2.1,0.9-2.1,2.1v28.8c0,0.8,0.4,1.5,1.2,1.9l14.3,7c0.9,0.5,2,0.8,3.1,0.8
		c1,0,2-0.3,2.9-0.8l14.4-7.1c0.7-0.3,1.2-1.1,1.2-1.9V39C63.7,37.8,62.8,36.9,61.6,36.9"/>
	<path class="st2" d="M54,48.1L43.1,59l-4.7-4.7l-2.9,2.9l6.2,6.2c0.4,0.4,0.9,0.6,1.5,0.6c0.5,0,1.1-0.2,1.5-0.6L56.9,51L54,48.1z"
		/>
	<path class="st0" d="M49.3,88.4c-1.1,0-2.1-0.9-2.1-2.1v-4.1h-4.1v4.1c0,3.4,2.8,6.2,6.2,6.2h12.4v-4.1H49.3z"/>
</g>
</svg>
