<svg xmlns="http://www.w3.org/2000/svg" xmlns:xlink="http://www.w3.org/1999/xlink" width="72" height="72" viewBox="0 0 72 72">
  <defs>
    <clipPath id="clip-ico-color-coded-ticket">
      <rect width="72" height="72"/>
    </clipPath>
  </defs>
  <g id="ico-color-coded-ticket" clip-path="url(#clip-ico-color-coded-ticket)">
    <rect width="72" height="72" fill="#fff"/>
    <g id="Group_40" data-name="Group 40" transform="translate(15.66 6.005)">
      <path id="Path_33" data-name="Path 33" d="M799.673,671.448a6.531,6.531,0,0,0-4.67-1.842c-6.449.066-13.006.055-19.348.044q-4.071-.007-8.141-.009h-.108a6.453,6.453,0,0,0-1.1.061,5.958,5.958,0,0,0-5.147,6.168q-.006,8.308,0,16.615v7.175q0,3.443.006,6.886c.008,5.541.016,11.271-.025,16.907a6.293,6.293,0,0,0,1.8,4.448,5.824,5.824,0,0,0,4.151,1.735c8.751.023,17.649.014,26.253.005l2.188,0a5.691,5.691,0,0,0,3.525-1.206,6.137,6.137,0,0,0,2.419-5.236c-.009-3.38-.007-6.816-.006-10.14q0-2.086,0-4.172,0-4.683-.005-9.366c-.007-7.679-.013-15.62.021-23.43A6.332,6.332,0,0,0,799.673,671.448Zm-1.392,55.017a4.47,4.47,0,0,1-3.207,1.262h-.024c-6.437-.029-12.982-.025-19.312-.021q-4.147,0-8.294,0a4.106,4.106,0,0,1-4.276-3.294,4.525,4.525,0,0,1-.073-.931q0-23.82,0-47.641a4.057,4.057,0,0,1,4.3-4.272q13.893-.005,27.786,0a4.043,4.043,0,0,1,4.316,4.306q.008,8.538,0,17.075v6.656q0,3.291-.006,6.582c-.008,5.6-.016,11.393.028,17.088A4.406,4.406,0,0,1,798.282,726.465Z" transform="translate(-761.136 -669.605)" fill="#ef343e"/>
      <path id="Path_34" data-name="Path 34" d="M822.362,710.825H801.081c-.99,0-1.292.3-1.292,1.3q-.006,10.64,0,21.281c0,1.017.3,1.311,1.344,1.311q3.832,0,7.663,0h13.558c1.107,0,1.378-.274,1.378-1.393q0-10.551,0-21.1C823.732,711.1,823.463,710.825,822.362,710.825Zm-3.488,17.258c.809,0,1.574,0,2.35.015a.647.647,0,0,1,.545.5c.018,1.039.017,2.055.016,3.131v1.025h-3.858v-4.245H816.5c-.2,0-.407,0-.611.008a14.208,14.208,0,0,1-1.433-.021.536.536,0,0,0-.379.057c-.059.057-.084.2-.075.435.025.719.019,1.449.013,2.154,0,.238,0,.477,0,.716,0,.148-.01.3-.02.457,0,.074-.01.152-.014.232l-.01.2h-12.21V731.6q0-.527,0-1.054c0-.885.006-1.8-.01-2.7a.786.786,0,0,1,.182-.6.771.771,0,0,1,.584-.166c.633.027,1.268.027,1.889,0a.648.648,0,0,1,.776.761c-.017.624-.012,1.261-.007,1.877l0,.441c0,.136.012.277.024.425,0,.01,0,.02,0,.03h3.478v-3.544h-3.658v-3.331h-3.211V712.807h10.54v2.537h2.579v-2.531h6.8v5.4h-4.069v-2.528h-2.56v2.5h2.509v3.74h4.17v.212c0,.179,0,.354,0,.524.005.482.01.938-.028,1.393-.023.273-.473.485-.7.492-.738.021-1.467.019-2.238.016l-.586,0v3.519Z" transform="translate(-791.601 -702.095)" fill="#ef343e"/>
      <path id="Path_35" data-name="Path 35" d="M818.534,859.5q-4.506-.007-9.012,0H798.085c-1.407,0-2.863,0-4.294.006a1.1,1.1,0,0,0-.831.308.977.977,0,0,0-.214.766c.063.708.686.857,1.2.857q4.984,0,9.969,0h8.36q3.089,0,6.177.005h.007a1.1,1.1,0,0,0,1.142-.573.877.877,0,0,0-.018-.873A1.2,1.2,0,0,0,818.534,859.5Z" transform="translate(-786.048 -819.281)" fill="#ef343e"/>
      <path id="Path_36" data-name="Path 36" d="M792.745,881c.027.6.419.9,1.2.9q4.354.005,8.709,0h15.574a5.2,5.2,0,0,0,.615-.021.942.942,0,0,0,.17-1.848,3.054,3.054,0,0,0-.768-.076q-6.385,0-12.771,0l-11.257,0a3.461,3.461,0,0,0-.723.051A.9.9,0,0,0,792.745,881Z" transform="translate(-786.05 -835.408)" fill="#ef343e"/>
      <path id="Path_37" data-name="Path 37" d="M863.962,838.794a3.46,3.46,0,0,0-.469-.014H851.721c-.07,0-.136,0-.2,0l-.195,0a2.741,2.741,0,0,0-.347.018,1.037,1.037,0,0,0-.759.444.994.994,0,0,0-.1.837c.129.434.491.646,1.108.648q2.239.007,4.478,0l1.775-.007,1.8,0c1.518,0,3.088,0,4.632-.008a.943.943,0,0,0,.984-.94A1,1,0,0,0,863.962,838.794Z" transform="translate(-831.235 -802.953)" fill="#ef343e"/>
      <path id="Path_38" data-name="Path 38" d="M800.875,838.792H799.4c-1.819,0-3.7,0-5.55,0-.7,0-1.117.373-1.114.99s.385.942,1.136.949c.808.008,1.631.006,2.426,0l1.047,0,.941,0c.834,0,1.7.006,2.542-.013a1.625,1.625,0,0,0,.785-.2.861.861,0,0,0,.315-1.071A.975.975,0,0,0,800.875,838.792Z" transform="translate(-786.047 -802.962)" fill="#ef343e"/>
      <g id="Group_29" data-name="Group 29" transform="translate(25.859 50.184)">
        <path id="Path_39" data-name="Path 39" d="M883.248,906.588h2.212c0,.53,0,1.055,0,1.58,0,.674.019,1.35-.016,2.022-.008.149-.2.4-.326.413-.607.043-1.218.02-1.87.02Z" transform="translate(-883.248 -906.588)" fill="#ef343e"/>
      </g>
      <path id="Path_40" data-name="Path 40" d="M793.15,910.645v-4.027h2.092c0,1.271.007,2.513-.014,3.755,0,.092-.194.255-.3.26C794.354,910.659,793.781,910.645,793.15,910.645Z" transform="translate(-786.371 -856.428)" fill="#ef343e"/>
      <g id="Group_30" data-name="Group 30" transform="translate(20.144 50.185)">
        <path id="Path_41" data-name="Path 41" d="M856.264,906.59h1.658v3.98h-1.658Z" transform="translate(-856.264 -906.59)" fill="#ef343e"/>
      </g>
      <g id="Group_31" data-name="Group 31" transform="translate(15.857 50.183)">
        <path id="Path_42" data-name="Path 42" d="M836.019,906.584h1.056v4a4.254,4.254,0,0,1-.748.02c-.113-.015-.293-.175-.295-.271C836.012,909.091,836.019,907.849,836.019,906.584Z" transform="translate(-836.018 -906.584)" fill="#ef343e"/>
      </g>
      <path id="Path_43" data-name="Path 43" d="M811.716,906.61h.985v3.981h-.985Z" transform="translate(-801.005 -856.421)" fill="#ef343e"/>
      <g id="Group_32" data-name="Group 32" transform="translate(30.99 50.201)">
        <path id="Path_44" data-name="Path 44" d="M907.479,910.6v-3.929h1.008c.017.184.052.39.054.6.006.851,0,1.7,0,2.554C908.542,910.764,908.465,910.823,907.479,910.6Z" transform="translate(-907.479 -906.668)" fill="#ef343e"/>
      </g>
      <g id="Group_33" data-name="Group 33" transform="translate(24.295 50.189)">
        <path id="Path_45" data-name="Path 45" d="M875.869,906.609h.777c.015.2.045.4.046.609,0,.99-.005,1.979,0,2.969,0,.323-.112.465-.45.458s-.381-.183-.38-.458C875.874,909,875.869,907.821,875.869,906.609Z" transform="translate(-875.866 -906.609)" fill="#ef343e"/>
      </g>
      <g id="Group_34" data-name="Group 34" transform="translate(14.528 50.092)">
        <path id="Path_46" data-name="Path 46" d="M830.265,906.306c0,1.21.006,2.421-.01,3.631,0,.11-.15.217-.23.326-.093-.1-.266-.2-.268-.3-.019-1.152-.023-2.305,0-3.457,0-.121.225-.236.345-.354Z" transform="translate(-829.741 -906.151)" fill="#ef343e"/>
      </g>
      <g id="Group_35" data-name="Group 35" transform="translate(28.609 50.097)">
        <path id="Path_47" data-name="Path 47" d="M896.752,906.286c0,1.227.006,2.453-.011,3.68,0,.107-.155.212-.237.318-.089-.1-.254-.208-.256-.314-.019-1.15-.022-2.3,0-3.451,0-.116.231-.228.354-.342Z" transform="translate(-896.234 -906.176)" fill="#ef343e"/>
      </g>
      <g id="Group_36" data-name="Group 36" transform="translate(29.761 50.109)">
        <path id="Path_48" data-name="Path 48" d="M901.864,906.234c.11.146.313.289.316.437.027,1.09.023,2.18,0,3.27,0,.131-.16.259-.245.389-.087-.122-.247-.243-.249-.367-.019-1.206-.011-2.413-.011-3.62Z" transform="translate(-901.676 -906.234)" fill="#ef343e"/>
      </g>
      <g id="Group_37" data-name="Group 37" transform="translate(13.414 50.111)">
        <path id="Path_49" data-name="Path 49" d="M824.665,906.242c.1.123.285.244.288.368.023,1.127.02,2.254,0,3.381,0,.112-.15.223-.23.334-.081-.127-.232-.252-.234-.381-.018-1.185-.011-2.37-.011-3.555Z" transform="translate(-824.48 -906.242)" fill="#ef343e"/>
      </g>
      <g id="Group_38" data-name="Group 38" transform="translate(18.627 50.108)">
        <path id="Path_50" data-name="Path 50" d="M849.587,906.372c0,1.2.006,2.41-.01,3.614,0,.11-.148.218-.227.327-.083-.109-.236-.217-.238-.327-.018-1.127-.02-2.255,0-3.382,0-.128.185-.252.284-.378Z" transform="translate(-849.098 -906.227)" fill="#ef343e"/>
      </g>
      <g id="Group_39" data-name="Group 39" transform="translate(33.065 50.167)">
        <path id="Path_51" data-name="Path 51" d="M917.767,908.565c0,.534.015,1.069-.012,1.6-.007.127-.159.246-.245.369-.075-.116-.215-.23-.216-.347-.017-1.107-.018-2.214,0-3.321,0-.121.165-.24.253-.359.073.132.2.262.21.4C917.781,907.457,917.767,908.011,917.767,908.565Z" transform="translate(-917.28 -906.507)" fill="#ef343e"/>
      </g>
      <path id="Path_52" data-name="Path 52" d="M822.47,743.356c0,.366,0,.737,0,1.112l1.446,0,1.6,0c.878,0,1.74,0,2.61.018a.521.521,0,0,0,.338-.065c.047-.047.068-.164.065-.369-.017-1.188-.015-2.4-.013-3.563q0-.841,0-1.683c0-.118-.011-.241-.023-.382l0-.044H821.95v-3.218h-4.175q0,.467,0,.929c0,.968.007,1.882-.012,2.817a.477.477,0,0,0,.065.32.5.5,0,0,0,.344.066c.482-.01.971-.006,1.444,0,.62,0,1.261.01,1.887-.017a.806.806,0,0,1,.983.986C822.458,741.275,822.464,742.285,822.47,743.356Z" transform="translate(-805.773 -721.275)" fill="#ef343e"/>
    </g>
  </g>
</svg>
