<svg xmlns="http://www.w3.org/2000/svg" xmlns:xlink="http://www.w3.org/1999/xlink" width="115" height="115" viewBox="0 0 115 115">
  <defs>
    <clipPath id="clip-ico-Improve-effeciency">
      <rect width="115" height="115"/>
    </clipPath>
  </defs>
  <g id="ico-Improve-effeciency" clip-path="url(#clip-ico-Improve-effeciency)">
    <rect width="115" height="115" fill="#fff"/>
    <g id="Group_48" data-name="Group 48" transform="translate(-158.408 -194.844)">
      <path id="Path_77" data-name="Path 77" d="M236.646,284.677h-.014V272.959A15.561,15.561,0,0,0,230.9,261.7l-12.246-9v-1.529l12.245-9a15.558,15.558,0,0,0,5.731-11.263V219.19h.014a3.843,3.843,0,0,0,3.838-3.852V214.7a3.843,3.843,0,0,0-3.838-3.852H194.263a3.858,3.858,0,0,0-3.855,3.852v.643a3.856,3.856,0,0,0,3.853,3.852l.017,11.717a15.478,15.478,0,0,0,5.692,11.254l12.266,9.014v1.515L199.962,261.7a15.484,15.484,0,0,0-5.7,11.254v11.718h0a3.857,3.857,0,0,0-3.855,3.852v.642a3.858,3.858,0,0,0,3.855,3.852h42.384a3.843,3.843,0,0,0,3.838-3.852v-.642a3.842,3.842,0,0,0-3.838-3.852m-2.582,0h-3.21V274.606a11.441,11.441,0,0,0-4.194-8.316l-10.42-7.685a1.277,1.277,0,0,0-1.52,0L204.244,266.3a11.433,11.433,0,0,0-4.207,8.31v10.071h-3.21V272.959a13.041,13.041,0,0,1,4.66-9.184l12.8-9.4a1.278,1.278,0,0,0,.52-1.035v-2.817a1.278,1.278,0,0,0-.516-1.035l-12.8-9.4a13.038,13.038,0,0,1-4.657-9.185V219.19h37.237v11.717a13.117,13.117,0,0,1-4.686,9.2l-12.747,9.382a1.3,1.3,0,0,0-.545,1.032v2.829a1.283,1.283,0,0,0,.522,1.033l12.77,9.382a13.122,13.122,0,0,1,4.686,9.2Z" transform="translate(0)" fill="#e72133"/>
      <path id="Path_78" data-name="Path 78" d="M222.592,227.824a1.283,1.283,0,0,0-1.221-.883l-20.9-.006a1.283,1.283,0,0,0-.76,2.318l10.476,7.692a1.28,1.28,0,0,0,.76.249,1.266,1.266,0,0,0,.762-.25l10.428-7.686a1.283,1.283,0,0,0,.458-1.434" transform="translate(4.537 8.318)" fill="#e72133"/>
    </g>
  </g>
</svg>
