<svg xmlns="http://www.w3.org/2000/svg" xmlns:xlink="http://www.w3.org/1999/xlink" width="72" height="72" viewBox="0 0 72 72">
  <defs>
    <clipPath id="clip-ico-support-any-menu">
      <rect width="72" height="72"/>
    </clipPath>
  </defs>
  <g id="ico-support-any-menu" clip-path="url(#clip-ico-support-any-menu)">
    <rect width="72" height="72" fill="#fff"/>
    <g id="Group_43" data-name="Group 43" transform="translate(-1424.806 -697.678)">
      <path id="Path_60" data-name="Path 60" d="M1477.37,756.375q1.4,0,2.795,0c1.33,0,1.5-.17,1.5-1.5V739.9q0-16.47,0-32.941c0-1.15-.128-1.282-1.244-1.282h-34.979a4.349,4.349,0,0,0-4.636,4.645q0,20.625,0,41.249a4.373,4.373,0,0,0,4.729,4.7h21.671v.81q0,.671,0,1.341c0,1.031-.007,2.1.009,3.145a1.055,1.055,0,0,0,.486.965,1.066,1.066,0,0,0,1.083-.13c.639-.411,1.317-.85,1.967-1.318a.812.812,0,0,1,.473-.182.8.8,0,0,1,.468.18c.4.292.829.571,1.24.841.169.111.339.222.507.335l.1.071a2.985,2.985,0,0,0,.275.175,1.038,1.038,0,0,0,1.037.021,1.009,1.009,0,0,0,.471-.893c.011-1.185.008-2.352.006-3.587q0-.772,0-1.563v-.106Zm-31.3-2.253-.078.021a3.053,3.053,0,0,1-.8.109,2.434,2.434,0,0,1-2.487-2.546c0-13.513,0-27.5,0-41.578a2.44,2.44,0,0,1,.768-1.9,3.1,3.1,0,0,1,2.5-.589l.093.012Zm27.416,5.577-.625-.445c-.3-.213-.575-.408-.847-.607a1.066,1.066,0,0,0-1.386,0c-.275.2-.554.4-.857.613l-.611.433v-3.507h4.326Zm-25.468-5.475V707.632h31.812v46.592Z" fill="#ef343e"/>
      <path id="Path_61" data-name="Path 61" d="M1523.564,875.575q-2.993-.008-5.987,0h-4.633q-3,0-6,0a1.171,1.171,0,0,0-.856.29.91.91,0,0,0-.231.687c.019.753.6.915,1.085.919.81.006,1.62.005,2.43,0h7.2q3.43,0,6.862,0h.008c.576,0,.947-.095,1.141-.575a.929.929,0,0,0-.054-.89A1.122,1.122,0,0,0,1523.564,875.575Z" transform="translate(-51.319 -134.035)" fill="#ef343e"/>
      <path id="Path_62" data-name="Path 62" d="M1520.864,896.566c.016.617.392.919,1.15.921q1.776.005,3.553,0h2.976q1.813,0,3.625,0a1.261,1.261,0,0,0,.929-.3.9.9,0,0,0,.225-.679c-.015-.619-.391-.92-1.15-.921q-5.076-.005-10.154,0a1.258,1.258,0,0,0-.928.3A.9.9,0,0,0,1520.864,896.566Z" transform="translate(-63.161 -149.826)" fill="#ef343e"/>
      <path id="Path_63" data-name="Path 63" d="M1521.27,822.573l0,.061-.054.028-.059.033a.423.423,0,0,1-.109.049c-3.518.868-5.19,2.7-5.773,6.311a.876.876,0,0,1-.241.516.982.982,0,0,0-.28,1.246c.163.405.487.57,1.088.575q2.257-.008,4.513-.006h4.787c.336,0,.672,0,1.007.005.9.008,1.833.015,2.745-.034a1.117,1.117,0,0,0,.82-.5,1.7,1.7,0,0,0-.111-.924c-.023-.077-.045-.153-.065-.227a1.45,1.45,0,0,0-.156-.332,1.282,1.282,0,0,1-.19-.469,6.754,6.754,0,0,0-5.161-5.916c-.173-.045-.345-.092-.512-.138l-.287-.078-.005-.075c-.095-1.454-.378-1.677-1.018-1.659C1521.622,821.06,1521.333,821.295,1521.27,822.573Zm1.2,2.051a4.793,4.793,0,0,1,4.8,4.72l0,.1h-10.032l-.007-.1a4.237,4.237,0,0,1,1.266-3.136A5.19,5.19,0,0,1,1522.466,824.624Z" transform="translate(-58.254 -91.014)" fill="#ef343e"/>
      <path id="Path_64" data-name="Path 64" d="M1531.2,746.31a6.34,6.34,0,1,0,1.857,4.483A6.3,6.3,0,0,0,1531.2,746.31Zm.617,4.483a5.1,5.1,0,1,1-5.1-5.1A5.106,5.106,0,0,1,1531.818,750.793Z" transform="translate(-62.777 -30.591)" fill="#ef343e" stroke="#000" stroke-width="0.2"/>
      <path id="Path_65" data-name="Path 65" d="M1541.281,763.7h0a.621.621,0,0,0-.876,0l-2.957,2.958-1.469-1.469a.62.62,0,1,0-.877.877l1.907,1.906a.619.619,0,0,0,.876,0l3.4-3.4A.621.621,0,0,0,1541.281,763.7Z" transform="translate(-74.25 -45.629)" fill="#ef343e"/>
    </g>
  </g>
</svg>
