<svg xmlns="http://www.w3.org/2000/svg" xmlns:xlink="http://www.w3.org/1999/xlink" width="115" height="115" viewBox="0 0 115 115">
  <defs>
    <clipPath id="clip-ico-customer-loyalty">
      <rect width="115" height="115"/>
    </clipPath>
  </defs>
  <g id="ico-customer-loyalty" clip-path="url(#clip-ico-customer-loyalty)">
    <rect width="115" height="115" fill="#fff"/>
    <g id="Group_49" data-name="Group 49" transform="translate(-167.204 -287.114)">
      <path id="Path_79" data-name="Path 79" d="M190.237,381.314c-2.007,0-3.219-1.111-3.243-2.973-.02-1.652-.01-3.335,0-4.963v-.068c.01-1.838.916-2.819,2.85-3.087a1.4,1.4,0,0,0,1-.529,1.276,1.276,0,0,0,.015-1.162l-.63-1.715c-.671-1.818-1.362-3.695-2-5.553-.6-1.749-1.241-3.514-1.862-5.221a95.44,95.44,0,0,1-4.461-14.636,69.691,69.691,0,0,1-1.16-8.354,3.676,3.676,0,0,0-.087-.529c-.01-.044-.019-.089-.029-.135V316.339a5.59,5.59,0,0,1,4.3-3.9,5.9,5.9,0,0,1,1.292-.143,5.376,5.376,0,0,1,5.555,5.118q.008,1.27,0,2.538c0,2.562-.005,5.212.162,7.823a32.193,32.193,0,0,0,1.64,8.163c.073.218.3.891,1,.891a1.469,1.469,0,0,0,.906-.4,6.277,6.277,0,0,1,3.93-1.425,5.91,5.91,0,0,1,4.586,2.2c2.179,2.609,4.338,5.285,6.543,8.025a12.928,12.928,0,0,1,2.509,11.484c-.575,2.669-1.06,5.4-1.531,8.035q-.333,1.887-.681,3.77a1.379,1.379,0,0,0,.249,1.2,1.433,1.433,0,0,0,1.12.416l.208,0c.263,0,.534.024.823.049l.305.026a2.828,2.828,0,0,1,2.918,2.913c.027,1.64.032,3.359.015,5.111-.021,1.956-1.229,3.077-3.319,3.077l-11.463,0q-5.734,0-11.465,0m.8-8.931a1.7,1.7,0,0,0-1.2.382,1.413,1.413,0,0,0-.375,1.121c.044,1.413.039,2.492-.015,3.5a1.565,1.565,0,0,0,.393,1.261,1.891,1.891,0,0,0,1.372.428h.046q2.593-.021,5.186-.019l5.726.005,5.34-.005q2.388,0,4.773.019h0a1.874,1.874,0,0,0,1.348-.416,1.575,1.575,0,0,0,.391-1.248c-.051-1.106-.051-2.283,0-3.5a1.434,1.434,0,0,0-.372-1.145,1.739,1.739,0,0,0-1.253-.393c-1.722.012-3.412.015-5.1.015l-6.171,0v.008l-4.871,0q-2.593,0-5.19-.015ZM186.1,314.537a3.3,3.3,0,0,0-3.195,3.572c-.009,1.208-.007,2.418-.005,3.451l0,1.12c-.038,3.753.061,7.093.311,10.508a63.123,63.123,0,0,0,3.29,16c1.427,4.132,2.937,8.311,4.4,12.353q1.326,3.666,2.635,7.333a1.749,1.749,0,0,0,1.841,1.261q2.593-.01,5.163-.01,3.067,0,6.132.01a1.471,1.471,0,0,0,1.661-1.307c.712-3.968,1.468-8,2.2-11.9l.224-1.19a10.462,10.462,0,0,0-2.005-8.967c-2.027-2.529-4.058-5.023-6.483-7.985a3.805,3.805,0,0,0-2.947-1.493,3.538,3.538,0,0,0-1.864.543,3.065,3.065,0,0,0-.91,4.483c.527.852,1.079,1.7,1.613,2.529q.4.619.8,1.242,1.981,3.087,3.956,6.176a1.044,1.044,0,0,1-.009,1.333,1.063,1.063,0,0,1-.915.437,1.956,1.956,0,0,1-.374-.036c-.43-.075-.681-.422-1.014-.94q-.945-1.469-1.9-2.932c-1.427-2.186-2.9-4.448-4.265-6.712a33.516,33.516,0,0,1-4.975-17.051c-.019-1.63-.015-3.289-.01-4.895,0-1.123.005-2.244,0-3.369a3.329,3.329,0,0,0-3.331-3.567Z" transform="translate(0 5.98)" fill="#e72133"/>
      <path id="Path_80" data-name="Path 80" d="M215.508,381.1c-2.089,0-3.3-1.123-3.318-3.077-.015-1.753-.012-3.471.014-5.111A2.829,2.829,0,0,1,215.122,370l.311-.026c.287-.026.558-.051.819-.051l.208,0a1.441,1.441,0,0,0,1.121-.415,1.383,1.383,0,0,0,.247-1.2c-.236-1.256-.457-2.514-.683-3.772-.469-2.637-.956-5.364-1.531-8.033a12.939,12.939,0,0,1,2.509-11.482c2.2-2.736,4.359-5.407,6.545-8.026a5.908,5.908,0,0,1,4.586-2.2,6.264,6.264,0,0,1,3.93,1.425,1.469,1.469,0,0,0,.906.4c.7,0,.923-.672,1-.893a32.136,32.136,0,0,0,1.64-8.159c.167-2.615.164-5.263.16-7.825,0-.846,0-1.693,0-2.538a5.378,5.378,0,0,1,5.557-5.118,6.03,6.03,0,0,1,1.292.143,5.585,5.585,0,0,1,4.3,3.9v16.049c-.009.046-.017.089-.027.133a3.348,3.348,0,0,0-.087.531,70.045,70.045,0,0,1-1.16,8.354,95.125,95.125,0,0,1-4.463,14.636c-.621,1.707-1.265,3.471-1.862,5.221-.633,1.859-1.326,3.739-2,5.557l-.63,1.712a1.281,1.281,0,0,0,.015,1.162,1.405,1.405,0,0,0,1.005.529c1.935.268,2.84,1.249,2.85,3.086v.068c.01,1.628.017,3.313,0,4.965-.024,1.86-1.236,2.973-3.244,2.973q-5.732,0-11.463,0Zm16.754-2.258c1.72,0,3.441,0,5.159.02h.046a1.9,1.9,0,0,0,1.374-.43,1.576,1.576,0,0,0,.391-1.261c-.055-1.007-.06-2.085-.015-3.5a1.424,1.424,0,0,0-.374-1.121,1.7,1.7,0,0,0-1.2-.382c-1.758.012-3.487.015-5.217.015l-4.871,0-.676-.009-5.533,0q-2.514,0-5.028-.017h0a1.77,1.77,0,0,0-1.285.394,1.442,1.442,0,0,0-.374,1.145c.051,1.215.051,2.393,0,3.5a1.568,1.568,0,0,0,.391,1.248,1.838,1.838,0,0,0,1.309.416c1.625-.015,3.207-.019,4.791-.019l5.366.005Zm-4.115-8.931q2.565,0,5.132.01a1.752,1.752,0,0,0,1.853-1.261q1.306-3.671,2.635-7.33c1.461-4.043,2.971-8.224,4.4-12.356a63.127,63.127,0,0,0,3.294-16c.246-3.413.345-6.753.307-10.511l0-1.115c0-1.032,0-2.242,0-3.451a3.287,3.287,0,1,0-6.55,0q-.005,1.682,0,3.367c0,1.606.009,3.265-.012,4.895a33.514,33.514,0,0,1-4.973,17.051c-1.36,2.263-2.836,4.524-4.263,6.71-.638.976-1.277,1.954-1.906,2.934-.331.519-.584.865-1.012.942a2.28,2.28,0,0,1-.372.034,1.061,1.061,0,0,1-.916-.437,1.044,1.044,0,0,1-.009-1.333q1.974-3.09,3.956-6.178c.265-.411.532-.823.8-1.236.534-.826,1.089-1.681,1.618-2.534a3.1,3.1,0,0,0-.91-4.483,3.547,3.547,0,0,0-1.864-.543,3.8,3.8,0,0,0-2.947,1.493c-1.963,2.4-4.244,5.19-6.484,7.985a10.467,10.467,0,0,0-2.007,8.967l.242,1.28c.724,3.869,1.475,7.871,2.179,11.808a1.472,1.472,0,0,0,1.652,1.307q3.09-.008,6.159-.01" transform="translate(22.291 5.827)" fill="#e72133"/>
      <path id="Path_81" data-name="Path 81" d="M218.724,352.764a2.108,2.108,0,0,1-1.084-.469,134.506,134.506,0,0,1-12.793-9.975,68.286,68.286,0,0,1-10.093-10.569c-1.915-2.577-3.767-5.412-4.352-8.661a15.593,15.593,0,0,1,2.251-11.129,16.733,16.733,0,0,1,12.088-8.047,1.44,1.44,0,0,0,.273-.079h4.4l.212.043c.225.048.451.1.674.138a16.9,16.9,0,0,1,7.362,3.328,1.727,1.727,0,0,0,1.08.469,1.473,1.473,0,0,0,.934-.367,17.522,17.522,0,0,1,8.361-3.611h4.5a17.835,17.835,0,0,1,8.414,3.705,17.158,17.158,0,0,1,6.158,10.595c.736,3.975-.323,7.758-3.429,12.272a63.877,63.877,0,0,1-10.356,11.308,137.7,137.7,0,0,1-12.511,9.91l-.094.065c-.294.207-.589.413-.889.609a2.22,2.22,0,0,1-1.1.464" transform="translate(6.729)" fill="#e72133"/>
    </g>
  </g>
</svg>
