<svg xmlns="http://www.w3.org/2000/svg" xmlns:xlink="http://www.w3.org/1999/xlink" width="72" height="72" viewBox="0 0 72 72">
  <defs>
    <clipPath id="clip-ico-loss-ticket">
      <rect width="72" height="72"/>
    </clipPath>
  </defs>
  <g id="ico-loss-ticket" clip-path="url(#clip-ico-loss-ticket)">
    <rect width="72" height="72" fill="#fff"/>
    <g id="Group_41" data-name="Group 41" transform="translate(-232.115 -301.531)">
      <g id="Group_27" data-name="Group 27" transform="translate(246 305.798)">
        <path id="Path_23" data-name="Path 23" d="M189.431,688.03l5.136,4.9c1.154-1.26,2.37-2.664,3.682-3.972a4.78,4.78,0,0,1,1.542-.68,4.732,4.732,0,0,1,.6,1.54q.047,29.8,0,59.608a5.118,5.118,0,0,1-.485,1.486,5.426,5.426,0,0,1-1.669-.667c-1.4-1.23-2.7-2.567-4.3-4.119-1.175,1.268-2.38,2.607-3.629,3.906-1.224,1.271-1.5,1.269-2.7.038-1.268-1.3-2.507-2.628-3.9-4.1-1.454,1.513-2.781,2.823-4.022,4.209-.914,1.021-1.65.932-2.535-.034-1.225-1.337-2.534-2.6-3.753-3.834-1.422,1.353-2.776,2.614-4.1,3.909-1.089,1.066-1.438,1.088-2.531.007q-1.89-1.87-3.773-3.746a2.26,2.26,0,0,0-.292-.2c-1.336,1.32-2.646,2.691-4.051,3.956a5.337,5.337,0,0,1-1.667.672,5.235,5.235,0,0,1-.561-1.6q-.044-29.735,0-59.47c0-.518.284-1.323.65-1.473a1.846,1.846,0,0,1,1.52.548c1.316,1.316,2.532,2.733,4.065,4.419l4.934-5.307h.84l4.745,4.52,4.771-4.52h.84l4.9,5.225,4.9-5.225Zm8.842,59.259V691.943l-.3-.189c-.878.962-1.767,1.915-2.632,2.889-.8.9-1.533.849-2.337-.031-1.277-1.4-2.605-2.746-4.049-4.26-1.485,1.545-2.8,2.86-4.053,4.236-.866.954-1.592.91-2.433-.025-1.261-1.4-2.58-2.754-3.9-4.156-1.579,1.581-2.922,2.875-4.2,4.227a1.366,1.366,0,0,1-2.338-.01c-1.28-1.4-2.61-2.75-4.022-4.231-1.521,1.548-2.878,2.888-4.183,4.276a1.315,1.315,0,0,1-2.233.007c-.934-.98-1.937-1.895-3.063-2.987V747.5c.838-.855,1.479-1.505,2.116-2.157,2.068-2.115,2.075-2.123,4.086-.057,1.067,1.1,2.1,2.222,3,3.176,1.5-1.4,2.847-2.621,4.154-3.88,1.218-1.173,1.45-1.209,2.607-.028,1.289,1.317,2.548,2.664,3.764,3.939a3.854,3.854,0,0,0,.5-.294q1.636-1.629,3.264-3.264c1.673-1.674,1.686-1.686,3.3-.044,1.173,1.191,2.307,2.421,3.616,3.8,1.514-1.578,2.873-2.973,4.207-4.392a1.265,1.265,0,0,1,2.13.023C196.2,745.3,197.19,746.223,198.273,747.289Z" transform="translate(-156.406 -688.03)" fill="#ef343e"/>
        <path id="Path_24" data-name="Path 24" d="M267.005,794.257c1.048,1.063,2.147,2.083,3.116,3.214a2.152,2.152,0,0,1,.422,1.573,4.669,4.669,0,0,1-.883,1.463c-.356-.406-.925-.762-1.032-1.225-.449-1.944-1.278-2.724-3.117-2.68a2.655,2.655,0,0,0-2.784,2.545,2.8,2.8,0,0,0,2.231,3.223,7.447,7.447,0,0,0,.971.1,5.207,5.207,0,0,1,4.606,4.048,4.744,4.744,0,0,1-2.616,5.233,1.85,1.85,0,0,0-1.27,2.225c.024.183.076.432-.016.548-.309.394-.676.742-1.021,1.108a9.954,9.954,0,0,1-.934-1.047c-.11-.16-.05-.457-.024-.686a1.755,1.755,0,0,0-1.219-2.118,4.5,4.5,0,0,1-2.695-3.668c-.107-.714-.147-1.518.808-1.64.936-.12,1.111.586,1.185,1.359a2.552,2.552,0,0,0,2,2.418,2.918,2.918,0,0,0,3.193-.855,2.991,2.991,0,0,0,.387-3.288,2.94,2.94,0,0,0-2.841-1.648c-3.73-.255-6-4.24-4.115-7.306a6.313,6.313,0,0,1,2.317-2.125,1.532,1.532,0,0,0,1-1.692c-.056-.776-.166-1.762,1.024-1.734,1.063.025.967.927.963,1.68,0,.372,0,.744,0,1.116Z" transform="translate(-234.166 -765.265)" fill="#ef343e"/>
        <path id="Path_25" data-name="Path 25" d="M199.557,746.086c3.306,0,6.612-.008,9.918,0,.728,0,1.645-.139,1.6,1.007-.046,1.039-.873,1.025-1.649,1.024q-9.918-.007-19.836,0c-.8,0-1.6-.038-1.6-1.07.007-1.115.918-.96,1.651-.961Q194.6,746.083,199.557,746.086Z" transform="translate(-179.96 -731.324)" fill="#ef343e"/>
        <path id="Path_26" data-name="Path 26" d="M194.169,779.083c1.679,0,3.363-.066,5.035.045.429.029.822.616,1.231.946-.41.345-.813.979-1.231.989q-5.035.123-10.074,0c-.418-.01-.821-.645-1.232-.99.411-.33.805-.917,1.236-.945C190.806,779.017,192.49,779.083,194.169,779.083Z" transform="translate(-179.892 -755.92)" fill="#ef343e"/>
        <path id="Path_27" data-name="Path 27" d="M194.236,812.11c1.632,0,3.269-.065,4.895.041.454.029.876.562,1.313.863-.426.374-.843,1.061-1.278,1.073q-4.964.136-9.933,0c-.447-.012-.877-.677-1.315-1.04.427-.313.839-.867,1.284-.9C190.873,812.046,192.557,812.111,194.236,812.11Z" transform="translate(-179.906 -780.55)" fill="#ef343e"/>
        <path id="Path_28" data-name="Path 28" d="M192.879,847.2a28.19,28.19,0,0,1-3.477-.045,1.842,1.842,0,0,1-1.351-.959c-.2-.817.51-1.035,1.252-1.031q3.622.021,7.244,0c.718,0,1.466.16,1.286,1a1.824,1.824,0,0,1-1.337.986A30.236,30.236,0,0,1,192.879,847.2Z" transform="translate(-179.981 -805.217)" fill="#ef343e"/>
      </g>
    </g>
  </g>
</svg>
