<svg xmlns="http://www.w3.org/2000/svg" xmlns:xlink="http://www.w3.org/1999/xlink" width="72" height="72" viewBox="0 0 72 72">
  <defs>
    <clipPath id="clip-ico-multiple-screens">
      <rect width="72" height="72"/>
    </clipPath>
  </defs>
  <g id="ico-multiple-screens" clip-path="url(#clip-ico-multiple-screens)">
    <rect width="72" height="72" fill="#fff"/>
    <g id="Group_46" data-name="Group 46" transform="translate(-1664.482 -720.545)">
      <path id="Path_69" data-name="Path 69" d="M1731.83,752.55a3.243,3.243,0,0,0-3.448-3.45h-2.759v-4.3q0-4.3,0-8.6a3.289,3.289,0,0,0-3.635-3.654H1672.98a3.266,3.266,0,0,0-3.5,3.472q0,16.26,0,32.52c0,2.318,1.289,3.595,3.627,3.6h16.734l-1.486,5.938-.91,0c-.788,0-1.531-.005-2.285.008a1.239,1.239,0,0,0-.886.367,1.141,1.141,0,0,0-.309.83,1.17,1.17,0,0,0,1.183,1.134c.08,0,.16,0,.24,0h43.021a3.238,3.238,0,0,0,3.417-3.422Q1731.835,764.769,1731.83,752.55Zm-39.575,19.6h4.145v5.876h-5.614Zm30.283-37.235c.348.228.7.56.706.79.048,1.9.043,3.8.038,5.643q0,.776,0,1.539l-23.172,0c-2.471,0-3.723,1.242-3.723,3.693v23.207H1673.1c-1.011,0-1.273-.267-1.273-1.3q0-16.163,0-32.325c0-1.03.252-1.281,1.283-1.281h48.616c.086,0,.177-.007.269-.014A1,1,0,0,1,1722.538,734.919Zm-7.531,28.12q0,6.713,0,13.427c0,.38.022.757.045,1.156.008.146.017.295.025.448h-4.111q-5.478,0-10.955,0c-1.036,0-1.289-.251-1.289-1.277V746.607c0-.611.075-.934.26-1.117s.513-.257,1.132-.257H1721.9c.624,0,.953.074,1.134.256s.253.5.252,1.119c0,.575,0,1.15,0,1.759v.732h-1.358c-1.106,0-2.19,0-3.274,0a3.287,3.287,0,0,0-3.645,3.647Q1715.007,757.893,1715.006,763.04Zm3.6,15.029c-.988,0-1.259-.268-1.259-1.245q0-4.395,0-8.789v-3.16l0-12.219c0-.94.274-1.212,1.222-1.212q4.846,0,9.693,0c.94,0,1.227.284,1.227,1.213q0,12.116,0,24.233c0,.893-.289,1.179-1.189,1.18Q1723.453,778.071,1718.606,778.069Z" fill="#ef343e"/>
      <path id="Path_70" data-name="Path 70" d="M1813.385,885.935a1.34,1.34,0,0,0-.961-.371c-1.249-.012-2.536-.012-3.935,0a1.335,1.335,0,0,0-.959.37,1.112,1.112,0,0,0-.309.815,1.179,1.179,0,0,0,1.3,1.148c.449.007.9,0,1.346,0h.455l.725,0,.591,0q.378,0,.755,0a1.192,1.192,0,0,0,1.3-1.152A1.111,1.111,0,0,0,1813.385,885.935Z" transform="translate(-100.487 -111.629)" fill="#ef343e"/>
      <path id="Path_71" data-name="Path 71" d="M1864.079,885.567c-.24-.019-.482-.014-.718-.01-.107,0-.214.007-.323,0l-.331,0c-.253,0-.513-.007-.771.006a1.164,1.164,0,0,0-.018,2.328c.341.012.687.019,1.035.019.365,0,.733-.007,1.1-.021a1.143,1.143,0,0,0,1.128-1.112A1.163,1.163,0,0,0,1864.079,885.567Z" transform="translate(-139.561 -111.628)" fill="#ef343e"/>
    </g>
  </g>
</svg>
