<?xml version="1.0" encoding="utf-8"?>
<!-- Generator: Adobe Illustrator 15.0.2, SVG Export Plug-In . SVG Version: 6.00 Build 0)  -->
<!DOCTYPE svg PUBLIC "-//W3C//DTD SVG 1.1//EN" "http://www.w3.org/Graphics/SVG/1.1/DTD/svg11.dtd">
<svg version="1.1" id="Layer_2" xmlns="http://www.w3.org/2000/svg" xmlns:xlink="http://www.w3.org/1999/xlink" x="0px" y="0px"
	 width="689.258px" height="165.039px" viewBox="57.242 188.041 689.258 165.039"
	 enable-background="new 57.242 188.041 689.258 165.039" xml:space="preserve">
<path fill="#272525" d="M428.106,304.762c-5.162,0.773-10.797,0.982-15.656,0.982c-4.66,0-9.094-0.319-13.168-0.988h-0.021
	c-10.6-1.736-18.773-5.854-22.279-13.001h-68.873c5.142-8.894,7.521-18.356,7.521-27.757c0-2.766-0.208-5.482-0.614-8.145
	c32.021,26.99,129.177,24.107,129.177,38.485c0,6.216-7.367,9.124-16.084,10.417 M746.01,304.749
	c-1.105-15.214-6.738-30.42-36.291-34.942l1.494-3.226c22.775-5.812,34.723-19.367,34.723-33.354c0-20.44-23.52-41.099-61.98-41.099
	H519.292v84.383c-7.578-11.649-24.326-20.819-45.977-24.562l-85.51-14.848c-2.611-1.507-5.602-3.229-5.602-5.596
	c0-7.101,8.961-11.834,20.91-11.834c14.188,0,36.219,3.443,36.963,13.342h76.172c-4.854-32.709-57.5-44.973-107.533-44.973
	c-49.84,0-99.679,12.699-103.56,44.004c-18.998-26.646-62.469-43.79-119.095-43.79c-79.158,0-128.819,33.567-128.819,77.897
	c0,14.529,5.844,27.619,16.441,38.604v0.004c21.102,21.873,61.051,35.408,111.257,35.408c21.282,0,42.567-2.146,61.609-7.525
	l34.725,20.438l36.965-21.305l-30.99-17.854c4.096-2.896,7.711-5.965,10.871-9.164v-0.007c1.655-1.682,3.184-3.396,4.592-5.146
	c0.921,1.729,2.101,3.453,3.496,5.153v0.005c6.191,7.555,16.676,14.747,28.136,20.305c6.972,3.381,15.424,6.787,25.827,9.384
	c5.377,1.345,11.332,2.642,17.818,3.511c10.338,1.389,22.385,2.417,35.867,2.417c19.027,0,41.086-1.383,62.561-7.666
	c7.373-2.153,14.615-5.093,21.041-8.625c10.066-5.456,17.883-12.178,21.834-18.802v30.584h78.412V313.58v-8.822v-18.164H649.6
	c12.904,0,18.496,12.053,18.926,18.164l0,0c0.02,0.252,0.023,0.492,0.023,0.719c0,10.763,0,19.848,0,30.68h77.914
	c0,0,0.084-9.021,0-12.723c-0.338-5.672,0.02-12.18-0.455-18.678 M231.616,281.857l-25.763-14.848l-36.966,20.012l28.378,16.783
	c-2.614,0.434-5.229,0.646-8.213,0.646c-35.099,0-51.902-21.302-51.902-39.161c0-17,12.695-40.669,48.915-40.669
	c35.472,0,49.287,23.454,49.287,40.669C235.351,270.668,234.23,276.479,231.616,281.857z M646.616,254.314h-48.912v-26.467h52.271
	c10.455,0,13.814,8.178,13.814,12.91C663.792,246.782,658.938,254.314,646.616,254.314z"/>
<g>
	<path fill="#272525" d="M654.002,315.116c6.137,0,10.906,4.77,10.906,10.837c0,6.201-4.771,10.974-10.975,10.974
		c-6.201,0-11.107-4.771-11.107-10.974c0-6.066,4.906-10.837,11.107-10.837H654.002z M653.868,317.023
		c-4.908,0-8.656,4.021-8.656,8.93c0,5.045,3.748,8.997,8.791,8.997c4.84,0.067,8.521-3.952,8.521-8.929s-3.682-8.998-8.588-8.998
		H653.868L653.868,317.023z M651.959,331.952h-2.113v-11.384c1.158-0.205,2.387-0.342,3.953-0.342c1.908,0,2.861,0.342,3.545,0.887
		c0.684,0.477,1.158,1.363,1.158,2.453c0,1.365-1.02,2.25-2.182,2.658v0.137c0.955,0.408,1.5,1.295,1.842,2.795
		c0.34,1.703,0.611,2.386,0.885,2.796h-2.182c-0.34-0.41-0.613-1.433-0.953-2.933c-0.273-1.295-1.023-1.843-2.592-1.843h-1.361
		V331.952L651.959,331.952z M651.959,325.544h1.432c1.498,0,2.932-0.478,2.932-1.771c0-1.092-0.748-1.908-2.727-1.908
		c-0.818,0-1.297,0.066-1.637,0.136V325.544L651.959,325.544z"/>
</g>
</svg>
