<?xml version="1.0" encoding="utf-8"?>
<!-- Generator: Adobe Illustrator 16.0.0, SVG Export Plug-In . SVG Version: 6.00 Build 0)  -->
<!DOCTYPE svg PUBLIC "-//W3C//DTD SVG 1.1//EN" "http://www.w3.org/Graphics/SVG/1.1/DTD/svg11.dtd">
<svg version="1.1" id="Layer_1" xmlns="http://www.w3.org/2000/svg" xmlns:xlink="http://www.w3.org/1999/xlink" x="0px" y="0px"
	 width="126.001px" height="35.066px" viewBox="0 0 126.001 35.066" enable-background="new 0 0 126.001 35.066"
	 xml:space="preserve">
<g>
	<path d="M76.634,26.597c-0.416,0-0.733-0.059-0.97-0.154c-0.178-0.072-0.311-0.165-0.421-0.279
		c-0.166-0.173-0.281-0.406-0.361-0.729c-0.077-0.32-0.112-0.721-0.112-1.19l0,0v-0.002V8.606c0-1.623-1.315-2.938-2.938-2.939
		h-0.23h-0.117v0.35c0,7.833,0,8.75,0,18.222c0,1.706,0.393,3.049,1.205,3.973c0.406,0.46,0.915,0.808,1.506,1.035
		c0.592,0.228,1.266,0.337,2.011,0.337c0.29,0,0.595-0.017,0.907-0.05l0.208-0.022l0.104-0.01v-0.313v-2.638l-0.376,0.028
		C76.901,26.589,76.762,26.597,76.634,26.597z"/>
	<path d="M95.352,20.826c0-2.507-0.893-4.758-2.444-6.382c-1.55-1.625-3.762-2.615-6.356-2.615h-0.002l0,0h-0.004
		c-2.58,0-4.783,0.991-6.329,2.617c-1.548,1.624-2.44,3.875-2.44,6.383l0,0l0,0l0,0v0.001v0.002c0,2.507,0.893,4.768,2.438,6.4
		s3.751,2.632,6.331,2.631h0.002l0,0l0,0h0.004c2.595,0.001,4.807-0.998,6.356-2.631c1.552-1.63,2.44-3.887,2.444-6.389v-0.002
		v-0.01V20.826L95.352,20.826z M92.099,20.832c-0.004,2.085-0.69,3.586-1.715,4.582c-1.025,0.997-2.408,1.491-3.837,1.492
		c-1.41,0-2.786-0.495-3.809-1.492c-1.021-0.996-1.708-2.497-1.71-4.584c0.002-2.087,0.688-3.569,1.707-4.549
		c1.021-0.978,2.397-1.459,3.812-1.46l0,0c1.431,0.001,2.815,0.482,3.839,1.46C91.408,17.261,92.095,18.743,92.099,20.832z"/>
	<path d="M110.541,12.092c-1.799,0-3.4,1.135-3.996,2.83l-2.986,8.481l0,0c-0.146,0.387-0.289,0.999-0.419,1.618
		c-0.018,0.08-0.032,0.16-0.049,0.24c-0.017-0.077-0.03-0.153-0.047-0.23c-0.069-0.316-0.143-0.635-0.217-0.918
		c-0.07-0.276-0.143-0.513-0.216-0.701l-3.015-8.492c-0.602-1.695-2.205-2.827-4.004-2.827h-0.492l6.179,17.445h3.574l6.179-17.445
		H110.541z"/>
	<path d="M126.001,18.885c0.002-2.424-0.896-4.243-2.287-5.424l0,0c-1.389-1.185-3.242-1.735-5.144-1.735
		c-2.285,0.001-4.656,0.788-6.447,2.283l-0.273,0.228l0.235,0.269c0.551,0.634,1.34,0.974,2.142,0.974
		c0.376,0,0.756-0.073,1.115-0.224c0.99-0.416,2.097-0.656,3.141-0.656l0,0l0,0c1.19,0,2.283,0.309,3.064,0.98
		c0.394,0.337,0.713,0.764,0.942,1.309c0.202,0.488,0.325,1.081,0.347,1.775c-1.172-0.546-2.439-0.909-3.749-0.93V17.73
		l-0.114-0.001c-0.059-0.001-0.118-0.001-0.176-0.001l0,0h-0.004c-2.586,0-4.564,0.739-5.899,1.876
		c-1.336,1.135-2.021,2.665-2.021,4.192V23.8l0,0v0.002c0,1.496,0.661,2.984,1.95,4.087c1.295,1.102,3.213,1.813,5.723,1.813
		c0.043,0,0.086-0.001,0.13-0.001h0.003l0,0h0.002c1.568-0.033,3.227-0.477,4.47-1.468c0.385,0.746,1.154,1.237,2.022,1.237h0.828
		V18.897V18.885z M119.003,20.557h0.005c1.299,0,2.73,0.272,3.841,0.936c0,1.248,0,2.378,0,3.659
		c-0.472,0.521-1.11,0.913-1.825,1.177c-0.754,0.279-1.588,0.414-2.35,0.414l0,0l0,0h-0.004c-1.629,0-2.815-0.399-3.582-0.967
		c-0.764-0.569-1.114-1.293-1.114-2.018c0-0.751,0.382-1.528,1.206-2.145C116.003,21.001,117.271,20.564,119.003,20.557z"/>
</g>
<g>
	<path fill="#D3202C" d="M24.374,9.571c-1.028-0.561-2.216-0.823-3.424-0.823c-1.93,0.003-3.924,0.663-5.446,1.931l-0.455,0.38
		l0.432,0.496c0.492,0.566,1.194,0.862,1.904,0.861c0.345,0,0.693-0.069,1.022-0.208c0.781-0.333,1.66-0.522,2.474-0.522
		c0.458,0,0.895,0.059,1.285,0.181c0.587,0.183,1.063,0.495,1.407,0.966c0.254,0.352,0.444,0.806,0.526,1.398
		c-0.885-0.358-1.833-0.584-2.815-0.586l0,0c-0.05-0.001-0.1-0.001-0.148-0.001c-2.164-0.001-3.854,0.621-5.005,1.602
		c-1.152,0.978-1.752,2.313-1.751,3.646c-0.001,1.308,0.577,2.609,1.694,3.56c1.118,0.952,2.756,1.552,4.857,1.55
		c0.037,0,0.073,0,0.11,0h0.003h0.002c0.739-0.014,1.497-0.138,2.214-0.386c0.474-0.166,0.928-0.388,1.342-0.675
		c0.398,0.536,1.033,0.872,1.733,0.872h0.973v-8.918c0-1.027-0.188-1.936-0.53-2.718C26.265,11.003,25.401,10.131,24.374,9.571z
		 M21.303,16.544c0.534,0,1.099,0.057,1.634,0.184c0.43,0.104,0.838,0.254,1.204,0.452c0,0.916,0,1.76,0,2.701
		c-0.335,0.339-0.787,0.607-1.294,0.796c-0.578,0.214-1.225,0.318-1.813,0.318c-1.284,0-2.188-0.314-2.746-0.729
		c-0.28-0.208-0.477-0.44-0.604-0.677c-0.126-0.24-0.186-0.482-0.187-0.729c0.001-0.257,0.065-0.518,0.206-0.776
		c0.209-0.384,0.591-0.763,1.185-1.051C19.479,16.743,20.282,16.549,21.303,16.544z"/>
	<path fill="#D3202C" d="M38.173,9.38c-0.952-0.402-2.042-0.627-3.25-0.627h-0.004h-0.004c-1.74,0.027-3.568,0.191-5.413,0.806
		l-0.398,0.132V26.36c0.001,1.472,1.194,2.666,2.667,2.666h0.582v-5.442c0.828,0.299,1.695,0.443,2.572,0.443
		c1.216,0,2.312-0.252,3.264-0.692c1.43-0.663,2.528-1.747,3.266-3.008c0.737-1.262,1.122-2.703,1.133-4.119v-0.004
		c0-1.891-0.685-3.75-1.995-5.145C39.937,10.361,39.124,9.782,38.173,9.38z M39.339,16.225c-0.009,1.109-0.42,2.33-1.172,3.24
		c-0.377,0.457-0.836,0.838-1.373,1.106c-0.538,0.265-1.156,0.422-1.872,0.424c-0.823,0-1.732-0.136-2.572-0.416v-8.559
		c0.821-0.209,1.688-0.288,2.572-0.287c0.727,0,1.355,0.141,1.899,0.383c0.813,0.363,1.437,0.954,1.865,1.671
		c0.428,0.715,0.654,1.556,0.653,2.387L39.339,16.225z"/>
	<path fill="#D3202C" d="M55.721,11.059c-0.655-0.698-1.467-1.277-2.419-1.679c-0.952-0.402-2.042-0.627-3.25-0.627h-0.005h-0.004
		c-1.74,0.027-3.568,0.191-5.414,0.806l-0.397,0.132V26.36c0,1.472,1.193,2.666,2.665,2.666h0.582v-5.442
		c0.828,0.299,1.695,0.443,2.572,0.443c1.215,0,2.312-0.252,3.264-0.692c1.43-0.663,2.528-1.747,3.266-3.008
		c0.737-1.262,1.123-2.703,1.134-4.119v-0.004C57.716,14.313,57.031,12.454,55.721,11.059z M54.469,16.225
		c-0.01,1.109-0.42,2.33-1.173,3.24c-0.376,0.457-0.835,0.838-1.372,1.106c-0.538,0.265-1.156,0.422-1.871,0.424
		c-0.823,0-1.733-0.136-2.572-0.416v-8.559c0.821-0.209,1.689-0.288,2.572-0.287c0.727,0,1.355,0.141,1.898,0.383
		c0.813,0.363,1.437,0.954,1.866,1.671c0.428,0.715,0.652,1.556,0.652,2.387L54.469,16.225z"/>
</g>
<path fill="#D3202C" d="M65.375,30.468c0,2.539-2.081,4.599-4.648,4.599H4.648C2.081,35.066,0,33.007,0,30.468V4.634
	c0-2.541,2.081-4.6,4.648-4.6h56.079c2.567,0,4.648,2.059,4.648,4.6V30.468z M62.731,5.441c0-1.27-1.04-2.298-2.325-2.298H12.241
	c-1.283,0-2.324,1.029-2.324,2.298v25.067c0,1.269,1.041,2.298,2.324,2.298h48.166c1.285,0,2.325-1.029,2.325-2.298V5.441z
	 M4.922,14.312c-1.893,0-3.426,1.517-3.426,3.39c0,1.872,1.534,3.391,3.426,3.391c1.891,0,3.425-1.519,3.425-3.391
	C8.347,15.829,6.813,14.312,4.922,14.312z"/>
</svg>
