<?xml version="1.0" encoding="utf-8"?>
<!-- Generator: Adobe Illustrator 23.0.1, SVG Export Plug-In . SVG Version: 6.00 Build 0)  -->
<svg version="1.1" id="Capa_1" xmlns="http://www.w3.org/2000/svg" xmlns:xlink="http://www.w3.org/1999/xlink" x="0px" y="0px"
	 viewBox="0 0 115 115" style="enable-background:new 0 0 115 115;" xml:space="preserve">
<style type="text/css">
	.st0{fill:#E9484F;}
</style>
<g>
	<g>
		<g>
			<path class="st0" d="M88.9,19.6H33.3c-3.3,0-6.1,2.7-6.1,6.1v18.9l-6.9,6.9C20.2,51.7,20,52,20,52.3v42.3h2.4V52.7l4.8-4.8v3.2
				c0,0.7,0.5,1.2,1.2,1.2h14.3c-0.5,2.1-2.4,3.6-4.7,3.6h-4.8c-0.7,0-1.2,0.5-1.2,1.2c0,4.1-3.2,7.3-7.3,7.3v2.4
				c0.8,0,1.7-0.1,2.4-0.3v17.1c0,3.3,2.7,6.1,6.1,6.1h3.6v4.8h2.4v-4.8h19.3v2.4c0,0.3,0.2,0.6,0.4,0.8l2.4,2.4l1.7-1.7l-2-2v-7.4
				l2.4-2.4v5.5H66V54c0-1,0.8-1.8,1.8-1.8c1,0,1.8,0.8,1.8,1.8v16.9v10.3H72V71c0-1,0.8-1.8,1.8-1.8c1,0,1.8,0.8,1.8,1.8v10.3h2.4
				V71c0-1,0.8-1.8,1.8-1.8c1,0,1.8,0.8,1.8,1.8v10.3h1.1h1.2V71c0-1,0.8-1.8,1.8-1.8c1,0,1.8,0.8,1.8,1.8v23.6h2.4v-4.9
				c2.7-0.5,4.8-3,4.8-5.9v-58C94.9,22.3,92.3,19.6,88.9,19.6z M92.5,83.6c0,1.6-1,2.9-2.4,3.4V71c0-2.3-1.9-4.2-4.2-4.2
				c-1.2,0-2.3,0.5-3,1.3c-0.8-0.8-1.8-1.3-3-1.3s-2.3,0.5-3,1.3c-0.8-0.8-1.8-1.3-3-1.3c-0.7,0-1.3,0.2-1.8,0.5V54
				c0-2.3-1.9-4.2-4.2-4.2c-2.3,0-4.2,1.9-4.2,4.2v24.2l-4.5,4.5c-0.2,0.2-0.4,0.5-0.4,0.8v3.6H33.3c-2,0-3.6-1.7-3.6-3.6V65.5
				c2.6-1.4,4.4-4.1,4.8-7.2h3.7c4,0,7.3-3.3,7.3-7.3c0-0.7-0.5-1.2-1.2-1.2H29.7V45V25.7c0-2,1.7-3.6,3.6-3.6h55.6
				c2,0,3.6,1.7,3.6,3.6L92.5,83.6L92.5,83.6z"/>
		</g>
	</g>
	<g>
		<g>
			<path class="st0" d="M53.9,24.5H35.8c-0.7,0-1.2,0.5-1.2,1.2v6.1c0,0.7,0.5,1.2,1.2,1.2h18.1c0.7,0,1.2-0.5,1.2-1.2v-6.1
				C55.1,25,54.5,24.5,53.9,24.5z M52.7,30.5H37v-3.6h15.7V30.5z"/>
		</g>
	</g>
	<g>
		<g>
			<path class="st0" d="M86.5,24.5H68.3c-0.7,0-1.2,0.5-1.2,1.2v6.1c0,0.7,0.5,1.2,1.2,1.2h18.1c0.7,0,1.2-0.5,1.2-1.2v-6.1
				C87.7,25,87.1,24.5,86.5,24.5z M85.3,30.5H69.5v-3.6h15.7L85.3,30.5L85.3,30.5z"/>
		</g>
	</g>
	<g>
		<g>
			<path class="st0" d="M53.9,60.7H35.8c-0.7,0-1.2,0.5-1.2,1.2V68c0,0.7,0.5,1.2,1.2,1.2h18.1c0.7,0,1.2-0.5,1.2-1.2v-6.1
				C55.1,61.2,54.5,60.7,53.9,60.7z M52.7,66.7H37v-3.6h15.7V66.7z"/>
		</g>
	</g>
	<g>
		<g>
			<rect x="59.9" y="24.5" class="st0" width="2.4" height="23"/>
		</g>
	</g>
	<g>
		<g>
			<rect x="34.5" y="35.3" class="st0" width="13.3" height="2.4"/>
		</g>
	</g>
	<g>
		<g>
			<rect x="51.4" y="35.3" class="st0" width="3.6" height="2.4"/>
		</g>
	</g>
	<g>
		<g>
			<rect x="34.5" y="40.2" class="st0" width="13.3" height="2.4"/>
		</g>
	</g>
	<g>
		<g>
			<rect x="51.4" y="40.2" class="st0" width="3.6" height="2.4"/>
		</g>
	</g>
	<g>
		<g>
			<rect x="34.5" y="45" class="st0" width="13.3" height="2.4"/>
		</g>
	</g>
	<g>
		<g>
			<rect x="51.4" y="45" class="st0" width="3.6" height="2.4"/>
		</g>
	</g>
	<g>
		<g>
			<rect x="51.4" y="49.8" class="st0" width="3.6" height="2.4"/>
		</g>
	</g>
	<g>
		<g>
			<rect x="51.4" y="54.6" class="st0" width="3.6" height="2.4"/>
		</g>
	</g>
	<g>
		<g>
			<rect x="34.5" y="71.6" class="st0" width="13.3" height="2.4"/>
		</g>
	</g>
	<g>
		<g>
			<rect x="51.4" y="71.6" class="st0" width="3.6" height="2.4"/>
		</g>
	</g>
	<g>
		<g>
			<rect x="34.5" y="76.4" class="st0" width="13.3" height="2.4"/>
		</g>
	</g>
	<g>
		<g>
			<rect x="51.4" y="76.4" class="st0" width="3.6" height="2.4"/>
		</g>
	</g>
	<g>
		<g>
			<rect x="34.5" y="81.2" class="st0" width="13.3" height="2.4"/>
		</g>
	</g>
	<g>
		<g>
			<rect x="51.4" y="81.2" class="st0" width="3.6" height="2.4"/>
		</g>
	</g>
	<g>
		<g>
			<rect x="67.1" y="35.3" class="st0" width="13.3" height="2.4"/>
		</g>
	</g>
	<g>
		<g>
			<rect x="84.1" y="35.3" class="st0" width="3.6" height="2.4"/>
		</g>
	</g>
	<g>
		<g>
			<rect x="67.1" y="40.2" class="st0" width="13.3" height="2.4"/>
		</g>
	</g>
	<g>
		<g>
			<rect x="84.1" y="40.2" class="st0" width="3.6" height="2.4"/>
		</g>
	</g>
	<g>
		<g>
			<rect x="67.1" y="45" class="st0" width="13.3" height="2.4"/>
		</g>
	</g>
	<g>
		<g>
			<rect x="84.1" y="45" class="st0" width="3.6" height="2.4"/>
		</g>
	</g>
	<g>
		<g>
			<rect x="74.4" y="49.8" class="st0" width="6.1" height="2.4"/>
		</g>
	</g>
	<g>
		<g>
			<rect x="84.1" y="49.8" class="st0" width="3.6" height="2.4"/>
		</g>
	</g>
	<g>
		<g>
			<rect x="74.4" y="54.6" class="st0" width="6.1" height="2.4"/>
		</g>
	</g>
	<g>
		<g>
			<rect x="84.1" y="54.6" class="st0" width="3.6" height="2.4"/>
		</g>
	</g>
	<g>
		<g>
			<rect x="74.4" y="59.5" class="st0" width="6.1" height="2.4"/>
		</g>
	</g>
	<g>
		<g>
			<rect x="84.1" y="59.5" class="st0" width="3.6" height="2.4"/>
		</g>
	</g>
</g>
</svg>
