<?xml version="1.0" encoding="utf-8"?>
<!-- Generator: Adobe Illustrator 23.0.1, SVG Export Plug-In . SVG Version: 6.00 Build 0)  -->
<svg version="1.1" id="Layer_1" xmlns="http://www.w3.org/2000/svg" xmlns:xlink="http://www.w3.org/1999/xlink" x="0px" y="0px"
	 viewBox="0 0 115 115" style="enable-background:new 0 0 115 115;" xml:space="preserve">
<style type="text/css">
	.st0{fill:#E9484F;}
</style>
<g id="Outline">
	<g>
		<path class="st0" d="M93.8,65c-0.7,0-1.2,0.5-1.2,1.2v7.5c0,0.7-0.5,1.2-1.2,1.2H23.7c-0.7,0-1.2-0.5-1.2-1.2V41.3
			c0-0.7-0.5-1.2-1.2-1.2c-0.7,0-1.2,0.5-1.2,1.2v32.5c0,2.1,1.7,3.7,3.7,3.7h23L43,85.1h-8c-0.7,0-1.2,0.5-1.2,1.2s0.5,1.2,1.2,1.2
			h45c0.7,0,1.2,0.5,1.2,1.2V90H32.5c-0.7,0-1.2,0.5-1.2,1.2s0.5,1.2,1.2,1.2h50c0.7,0,1.2-0.5,1.2-1.2v-2.5c0-2.1-1.7-3.7-3.7-3.7
			h-8l-3.7-7.5h23c2.1,0,3.7-1.7,3.7-3.7v-7.5C95,65.6,94.5,65,93.8,65z M69.2,85H45.8l3.7-7.5h15.9L69.2,85z"/>
		<path class="st0" d="M91.3,22.5H23.7c-2.1,0-3.7,1.7-3.7,3.7v10c0,0.7,0.5,1.2,1.2,1.2c0.7,0,1.2-0.5,1.2-1.2v-10
			c0-0.7,0.5-1.2,1.2-1.2h67.5c0.7,0,1.2,0.5,1.2,1.2v35c0,0.7,0.5,1.2,1.2,1.2s1.2-0.5,1.2-1.2v-35C95,24.2,93.4,22.5,91.3,22.5z"
			/>
		<path class="st0" d="M43.8,52.5c-2.1,0-3.7,1.7-3.7,3.7c0,0.6,0.2,1.2,0.5,1.8L34,65.3C33.5,65.2,33,65,32.5,65
			c-2.1,0-3.7,1.7-3.7,3.7c0,2.1,1.7,3.7,3.7,3.7c2,0,3.7-1.7,3.7-3.7c0-0.6-0.2-1.2-0.5-1.8l6.5-7.3c0.5,0.2,0.9,0.3,1.5,0.3
			c0.6,0,1.2-0.2,1.8-0.5l6,5.3c-0.8,1.9,0.2,4.1,2.1,4.9c0.5,0.2,0.9,0.3,1.4,0.3c0.7,0,1.2-0.5,1.2-1.2s-0.5-1.2-1.2-1.2
			s-1.2-0.5-1.2-1.2S54.3,65,55,65c0.7,0,1.2,0.5,1.2,1.2s0.5,1.2,1.2,1.2c0.7,0,1.2-0.5,1.2-1.2c0-0.8-0.2-1.6-0.7-2.2l7.2-10.5
			c0.3,0.1,0.6,0.2,0.9,0.2c0.5,0,1.1-0.2,1.6-0.4l3.7,3.7c-0.9,1.9-0.2,4.1,1.7,5c1.9,0.9,4.1,0.2,5-1.7c0.5-1.2,0.5-2.6-0.2-3.6
			l5.6-7c0.4,0.2,0.9,0.2,1.2,0.2c2.1,0,3.7-1.7,3.7-3.7c0-2.1-1.7-3.7-3.7-3.7c-0.7,0-1.2,0.5-1.2,1.2s0.5,1.2,1.2,1.2
			s1.2,0.5,1.2,1.2s-0.5,1.2-1.2,1.2s-1.2-0.5-1.2-1.2s-0.5-1.2-1.2-1.2s-1.2,0.5-1.2,1.2s0.2,1.4,0.5,1.9l-5.5,7
			C75.8,55.1,75.4,55,75,55c-0.5,0-1.1,0.2-1.6,0.4l-3.7-3.7c0.9-1.9,0.1-4.1-1.8-5s-4.1-0.1-5,1.8c-0.2,0.5-0.4,1-0.4,1.6
			c0,0.8,0.2,1.6,0.7,2.2l-7.2,10.5c-0.3-0.1-0.6-0.2-0.9-0.2c-0.6,0-1.2,0.2-1.8,0.5l-6-5.3c0.8-1.9-0.2-4.1-2.1-4.9
			C44.7,52.6,44.2,52.5,43.8,52.5z M76.3,58.7c0,0.7-0.5,1.2-1.2,1.2c-0.7,0-1.2-0.5-1.2-1.2s0.5-1.2,1.2-1.2
			C75.7,57.5,76.3,58,76.3,58.7z M66.3,48.7c0.7,0,1.2,0.5,1.2,1.2c0,0.7-0.5,1.2-1.2,1.2S65,50.7,65,50
			C65,49.3,65.6,48.7,66.3,48.7z M32.5,70c-0.7,0-1.2-0.5-1.2-1.2c0-0.7,0.5-1.2,1.2-1.2s1.2,0.5,1.2,1.2C33.7,69.5,33.2,70,32.5,70
			z M42.5,56.3c0-0.7,0.5-1.2,1.2-1.2c0.7,0,1.2,0.5,1.2,1.2c0,0.7-0.5,1.2-1.2,1.2C43.1,57.5,42.5,57,42.5,56.3z"/>
		<path class="st0" d="M35,27.5c-4.8,0-8.8,4-8.8,8.8s4,8.8,8.8,8.8c4.8,0,8.8-4,8.8-8.8S39.8,27.5,35,27.5z M41.1,35h-4.9v-4.9
			C38.7,30.6,40.7,32.5,41.1,35z M35,42.5c-3.4,0-6.3-2.8-6.3-6.3c0-3,2.1-5.5,5-6.1v6.1c0,0.7,0.5,1.2,1.2,1.2H41
			C40.5,40.4,37.9,42.5,35,42.5z"/>
		<circle class="st0" cx="48.7" cy="35" r="1.2"/>
		<circle class="st0" cx="53.8" cy="35" r="1.2"/>
		<circle class="st0" cx="58.7" cy="35" r="1.2"/>
		<circle class="st0" cx="63.8" cy="35" r="1.2"/>
		<circle class="st0" cx="48.7" cy="40" r="1.2"/>
		<circle class="st0" cx="53.8" cy="40" r="1.2"/>
		<circle class="st0" cx="58.7" cy="40" r="1.2"/>
		<circle class="st0" cx="63.8" cy="40" r="1.2"/>
		<circle class="st0" cx="68.8" cy="40" r="1.2"/>
		<circle class="st0" cx="73.7" cy="40" r="1.2"/>
		<circle class="st0" cx="48.7" cy="30" r="1.2"/>
		<circle class="st0" cx="53.8" cy="30" r="1.2"/>
		<path class="st0" d="M90,66.3c0-0.7-0.5-1.2-1.2-1.2h-6.3c-0.7,0-1.2,0.5-1.2,1.2s0.5,1.2,1.2,1.2h6.3C89.5,67.5,90,67,90,66.3z"
			/>
		<path class="st0" d="M76.3,70c-0.7,0-1.2,0.5-1.2,1.2s0.5,1.2,1.2,1.2h11.3c0.7,0,1.2-0.5,1.2-1.2S88.2,70,87.5,70H76.3z"/>
		<path class="st0" d="M87.5,27.5H72.5c-0.7,0-1.2,0.5-1.2,1.2v5c0,0.7,0.5,1.2,1.2,1.2h15c0.7,0,1.2-0.5,1.2-1.2v-5
			C88.8,28.1,88.2,27.5,87.5,27.5z M73.7,30h2.5v2.5h-2.5V30z M78.8,30h2.5v2.5h-2.5V30z M86.2,32.5h-2.5V30h2.5V32.5z"/>
	</g>
</g>
</svg>
