<?xml version="1.0" encoding="utf-8"?>
<!-- Generator: Adobe Illustrator 23.0.1, SVG Export Plug-In . SVG Version: 6.00 Build 0)  -->
<svg version="1.1" id="Layer_1_1_" xmlns="http://www.w3.org/2000/svg" xmlns:xlink="http://www.w3.org/1999/xlink" x="0px" y="0px"
	 viewBox="0 0 115 115" style="enable-background:new 0 0 115 115;" xml:space="preserve">
<style type="text/css">
	.st0{fill:#E9484F;}
</style>
<g>
	<path class="st0" d="M91.3,70.8c-1-0.9-2.5-1.3-3.9-1l-28.6,4.9l-8-8c-0.3-0.3-0.6-0.4-1-0.4H35.3c0-0.9-0.6-1.4-1.4-1.4h-5.8H18
		v2.9h8.7v20.2H18v2.8h10.1h5.8c0.9,0,1.4-0.6,1.4-1.4h4l15.4,7.6c0.7,0.3,1.4,0.4,2.2,0.4c0.9,0,1.6-0.2,2.3-0.6l31.4-18.3
		c1.4-0.9,2.3-2.5,2.3-4C93,73,92.4,71.7,91.3,70.8z M32.4,87.8h-2.9V67.6h2.9V87.8z M89.3,76.1L57.8,94.3c-0.6,0.3-1.1,0.3-1.8,0
		l-15.7-7.9c-0.3,0-0.4,0-0.7,0h-4.3V69.1h13.9l11.4,11.4c0.4,0.4,0.7,1.1,0.7,1.8c0,1.4-1.1,2.6-2.6,2.6c-0.7,0-1.4-0.3-1.8-0.7
		l-7.5-7.5l-2,2l7.5,7.5c1,1,2.5,1.6,3.9,1.6c3,0,5.5-2.5,5.5-5.5c0-1.4-0.6-2.9-1.6-3.9l-1.1-1.1L88,72.7c0.6-0.2,1,0,1.4,0.4
		c0.4,0.3,0.7,0.9,0.7,1.4C90.1,75,89.8,75.7,89.3,76.1z"/>
	
		<rect x="50.6" y="39.5" transform="matrix(0.6727 -0.7399 0.7399 0.6727 -10.1926 58.7623)" class="st0" width="21.5" height="2.9"/>
	<path class="st0" d="M55.5,41c2.5,0,4.3-1.8,4.3-4.3s-1.8-4.3-4.3-4.3c-2.5,0-4.3,1.8-4.3,4.3S53,41,55.5,41z M55.5,35.2
		c0.9,0,1.4,0.6,1.4,1.4c0,0.9-0.6,1.4-1.4,1.4c-0.9,0-1.4-0.6-1.4-1.4C54,35.8,54.6,35.2,55.5,35.2z"/>
	<path class="st0" d="M62.7,45.3c0,2.5,1.8,4.3,4.3,4.3c2.5,0,4.3-1.8,4.3-4.3S69.5,41,67,41C64.6,41,62.7,42.9,62.7,45.3z
		 M68.5,45.3c0,0.9-0.6,1.4-1.4,1.4c-0.9,0-1.4-0.6-1.4-1.4c0-0.9,0.6-1.4,1.4-1.4C67.9,43.9,68.5,44.5,68.5,45.3z"/>
	<path class="st0" d="M60.2,71.6c0.3,0.3,0.7,0.4,1,0.4c0.3,0,0.7-0.2,1-0.4l22.9-24.1c6.5-6.9,6.5-18.2,0-25.1
		c-3.2-3.3-7.5-5.2-12-5.2c-4.5,0-8.8,1.8-12,5.2c-3.2-3.3-7.4-5.2-12-5.2c-4.5,0-8.8,1.8-12,5.2c-6.5,6.9-6.5,18.2,0,25.1
		L60.2,71.6z M39.4,24.4c2.6-2.7,6.2-4.3,9.9-4.3s7.2,1.6,9.9,4.3l1,1c0.6,0.6,1.6,0.6,2.2,0l0.7-1c2.6-2.7,6.2-4.3,9.9-4.3
		s7.2,1.6,9.9,4.3c5.5,5.8,5.5,15.3,0,21.1L61.3,68.4L39.4,45.5C33.8,39.7,33.8,30.2,39.4,24.4z"/>
	<rect x="54" y="51.8" class="st0" width="2.9" height="2.9"/>
	<rect x="59.8" y="51.8" class="st0" width="2.9" height="2.9"/>
	<rect x="65.6" y="51.8" class="st0" width="2.9" height="2.9"/>
</g>
</svg>
