<?xml version="1.0" encoding="utf-8"?>
<!-- Generator: Adobe Illustrator 23.0.1, SVG Export Plug-In . SVG Version: 6.00 Build 0)  -->
<svg version="1.1" id="Layer_1" xmlns="http://www.w3.org/2000/svg" xmlns:xlink="http://www.w3.org/1999/xlink" x="0px" y="0px"
	 viewBox="0 0 115 115" style="enable-background:new 0 0 115 115;" xml:space="preserve">
<style type="text/css">
	.st0{fill:#E9484F;}
</style>
<g>
	<path class="st0" d="M93.2,55.2c-1.1-1-2.7-1.7-4.2-1.8c-1.8-0.1-3.4,0.5-4.6,1.8l-8.3,8.2c-0.1-0.3-0.4-0.6-0.6-0.8
		c-1-1.3-2.5-1.9-4.2-1.9H59.6c-2.2,0-4.3-0.3-6.4-0.9c-5.3-1.5-10.4-0.4-14.7,3.1c-1.8,1.4-3,2.9-3.8,4.1l-2.1-2
		c-0.3-0.3-0.7-0.4-1-0.4l0,0c-0.4,0-0.8,0.1-1,0.4L20.4,75.7c-0.3,0.3-0.4,0.7-0.4,1s0.1,0.7,0.4,1l17.2,16.4
		c0.3,0.3,0.7,0.4,1,0.4s0.7-0.1,1-0.4l10.1-10.3c0.3-0.3,0.4-0.7,0.4-1s-0.1-0.7-0.4-1L49,80.8l2-0.2c1.3-0.1,2.4-0.2,3.7-0.2h17.8
		c2.9,0,5.3-0.7,7.3-1.8c0,0,0,0,0.1,0c0.7-0.5,1.3-1,1.8-1.7l12-14.1C95.6,60.3,95.4,57.3,93.2,55.2z M38.6,91l-15-14.3l8.1-8.5
		l15,14.5L38.6,91z M91.3,60.8l-12,14.1c-0.4,0.4-0.8,0.9-1.3,1.2c-1.5,1-3.4,1.4-5.7,1.4H54.6c-1.3,0-2.7,0.1-4,0.2l-4.4,0.5
		l-9.3-9c0.7-1,1.8-2.5,3.5-3.9c3.5-2.9,7.6-3.8,12-2.5c2.3,0.7,4.7,1,7.1,1h11.6c2.1,0,2.7,1.8,2.7,2.9c0,0.8-0.2,1.5-0.7,2.1
		c-0.4,0.6-1.2,0.9-2,0.9H61.1c-0.8,0-1.5,0.7-1.5,1.5s0.7,1.5,1.5,1.5h10.2c1.7,0,3.2-0.7,4.3-1.8c0.9-1,1.3-2.4,1.4-3.8l9.6-9.5
		c1.4-1.4,3.5-1,4.7,0.1C91.8,58,92.6,59.1,91.3,60.8z"/>
	<path class="st0" d="M56.5,70.6c-0.2-0.8-1-1.3-1.8-1.1c-0.8,0.2-1.3,1-1.1,1.8v0.1c0.1,0.7,0.7,1.2,1.5,1.2c0.1,0,0.2,0,0.4-0.1
		C56.2,72.2,56.7,71.5,56.5,70.6L56.5,70.6z"/>
	<path class="st0" d="M29.9,51.9h14.4c0.8,0,1.5-0.2,2.1-0.7c0.6,0.4,1.3,0.7,2.1,0.7h14.4c0.8,0,1.5-0.2,2.1-0.7
		c0.6,0.4,1.3,0.7,2.1,0.7h14.5c2,0,3.5-1.6,3.5-3.5v-6.7c0-3-1.7-5.6-4.2-6.9c1.3-1.5,1.9-3.4,1.9-5.5c0-4.7-3.8-8.5-8.5-8.5
		c-4.7,0-8.5,3.8-8.5,8.5c0,2.1,0.7,4,1.9,5.5c-1.1,0.6-2,1.4-2.7,2.4c-0.7-1-1.6-1.8-2.7-2.4c1.3-1.5,1.9-3.4,1.9-5.5
		c0-4.7-3.8-8.5-8.5-8.5s-8.5,3.8-8.5,8.5c0,2.1,0.7,4,1.9,5.5c-1.1,0.6-2,1.4-2.7,2.4c-0.7-1-1.6-1.8-2.7-2.4
		c1.3-1.5,1.9-3.4,1.9-5.5c0-4.7-3.8-8.5-8.5-8.5s-8.5,3.8-8.5,8.5c0,2.1,0.7,4,1.9,5.5c-2.5,1.3-4.2,3.9-4.2,6.9v6.7
		C26.4,50.2,28,51.9,29.9,51.9z M74.3,23.6c3.1,0,5.5,2.5,5.5,5.5c0,3-2.5,5.5-5.5,5.5c-3.1,0-5.5-2.5-5.5-5.5
		C68.8,26.1,71.2,23.6,74.3,23.6z M70.5,36.8c1.2,0.6,2.4,0.9,3.8,0.9c1.4,0,2.7-0.4,3.8-0.9c2.3,0.4,4,2.4,4,4.7v6.7
		c0,0.4-0.3,0.6-0.6,0.6H67.1c-0.4,0-0.6-0.3-0.6-0.6v-6.7C66.5,39.2,68.2,37.2,70.5,36.8z M55.7,23.6c3.1,0,5.5,2.5,5.5,5.5
		c0,3-2.5,5.5-5.5,5.5s-5.5-2.5-5.5-5.5C50.2,26.1,52.6,23.6,55.7,23.6z M51.9,36.8c1.2,0.6,2.4,0.9,3.8,0.9s2.7-0.4,3.8-0.9
		c2.3,0.4,4,2.4,4,4.7v6.7c0,0.4-0.3,0.6-0.6,0.6H48.6c-0.4,0-0.6-0.3-0.6-0.6v-6.7C47.9,39.2,49.6,37.2,51.9,36.8z M37.2,23.6
		c3.1,0,5.5,2.5,5.5,5.5c0,3-2.5,5.5-5.5,5.5s-5.5-2.5-5.5-5.5C31.6,26.1,34.1,23.6,37.2,23.6z M29.4,41.5c0-2.4,1.7-4.3,4-4.7
		c1.2,0.6,2.4,0.9,3.8,0.9s2.7-0.4,3.8-0.9c2.3,0.4,4,2.4,4,4.7v6.7c0,0.4-0.3,0.6-0.6,0.6H29.9c-0.4,0-0.6-0.3-0.6-0.6
		C29.4,48.2,29.4,41.5,29.4,41.5z"/>
</g>
</svg>
