<?xml version="1.0" encoding="utf-8"?>
<!-- Generator: Adobe Illustrator 23.0.1, SVG Export Plug-In . SVG Version: 6.00 Build 0)  -->
<svg version="1.1" id="Capa_1" xmlns="http://www.w3.org/2000/svg" xmlns:xlink="http://www.w3.org/1999/xlink" x="0px" y="0px"
	 viewBox="0 0 115 115" style="enable-background:new 0 0 115 115;" xml:space="preserve">
<style type="text/css">
	.st0{fill:#E9484F;}
</style>
<g>
	<path class="st0" d="M22.6,93V21.9c0-1.5,1.2-2.7,2.7-2.7h49.2V26c0,2.3,1.8,4.1,4.1,4.1h6.8v45.1H88V28.8c0-0.3-0.2-0.7-0.4-1
		l-10.8-11c-0.2-0.2-0.6-0.4-1-0.4H25.3c-3,0-5.5,2.5-5.5,5.5V93c0,3,2.5,5.5,5.5,5.5h38.3v-2.7H25.3C23.8,95.7,22.6,94.5,22.6,93z
		 M77.2,21.1l6.2,6.2h-4.9c-0.7,0-1.4-0.6-1.4-1.4L77.2,21.1L77.2,21.1z"/>
	<path class="st0" d="M25.3,21.9h2.7v2.7h-2.7V21.9z"/>
	<path class="st0" d="M30.8,21.9h2.7v2.7h-2.7V21.9z"/>
	<path class="st0" d="M36.2,21.9H39v2.7h-2.7C36.2,24.7,36.2,21.9,36.2,21.9z"/>
	<path class="st0" d="M25.3,27.4h46.5v2.7H25.3V27.4z"/>
	<path class="st0" d="M41.7,47.9c0-2.2-1.4-4.2-3.5-4.9c-0.3-0.1-0.6-0.4-0.6-0.8l0,0c0-0.2,0.1-0.3,0.2-0.5c1-1.1,1.4-2.7,1.1-4.2
		c-0.4-3-3.2-5.1-6.2-4.6c-2.7,0.4-4.7,2.7-4.7,5.4c0,1.2,0.4,2.5,1.2,3.4c0.1,0.2,0.2,0.3,0.2,0.4c0,0.3-0.2,0.7-0.6,0.8
		c-2.1,0.7-3.5,2.7-3.5,4.9v1.4c0,0.7,0.6,1.4,1.4,1.4h13.7c0.7,0,1.4-0.6,1.4-1.4L41.7,47.9L41.7,47.9z M28.1,47.9
		c0-1.1,0.7-2,1.6-2.3c1.5-0.5,2.5-1.8,2.5-3.4c0-0.8-0.2-1.6-0.7-2.2c-0.4-0.5-0.6-1.1-0.6-1.7c0-1.5,1.2-2.7,2.7-2.7
		c0.2,0,0.3,0,0.5,0.1c1.1,0.2,2,1.1,2.2,2.3c0.1,0.7-0.1,1.5-0.6,2c-0.5,0.7-0.7,1.4-0.7,2.2l0,0c0,1.6,1,2.9,2.5,3.4
		c1,0.3,1.6,1.2,1.6,2.3C39,47.9,28.1,47.9,28.1,47.9z"/>
	<path class="st0" d="M41.7,68.4c0-2.2-1.4-4.2-3.5-4.9c-0.3-0.1-0.6-0.4-0.6-0.8l0,0c0-0.2,0.1-0.3,0.2-0.5c1-1.1,1.4-2.7,1.1-4.2
		c-0.4-3-3.2-5.1-6.2-4.6c-2.7,0.4-4.7,2.7-4.7,5.4c0,1.2,0.4,2.5,1.2,3.4c0.1,0.2,0.2,0.3,0.2,0.4c0,0.3-0.2,0.7-0.6,0.8
		c-2.1,0.7-3.5,2.7-3.5,4.9v1.4c0,0.7,0.6,1.4,1.4,1.4h13.7c0.7,0,1.4-0.6,1.4-1.4L41.7,68.4L41.7,68.4z M28.1,68.4
		c0-1.1,0.7-2,1.6-2.3c1.5-0.5,2.5-1.8,2.5-3.4c0-0.8-0.2-1.6-0.7-2.2c-0.4-0.5-0.6-1.1-0.6-1.7c0-1.5,1.2-2.7,2.7-2.7
		c0.2,0,0.3,0,0.5,0.1c1.1,0.2,2,1.1,2.2,2.3c0.1,0.7-0.1,1.5-0.6,2c-0.5,0.7-0.7,1.4-0.7,2.2l0,0c0,1.6,1,2.9,2.5,3.4
		c1,0.3,1.6,1.2,1.6,2.3H28.1L28.1,68.4z"/>
	<path class="st0" d="M54.4,36l-3,3.1c-2.6-1.6-6-0.7-7.5,2c-1.6,2.6-0.7,6,2,7.5c2.6,1.6,6,0.7,7.5-2c1-1.7,1-3.9,0-5.6l3.1-3.1
		L54.4,36z M48.5,46.5c-1.5,0-2.7-1.2-2.7-2.7c0-1.5,1.2-2.7,2.7-2.7c0.2,0,0.5,0,0.7,0.1l-1.6,1.6l2,2l1.6-1.6
		c0.4,1.5-0.5,3-1.9,3.4C49,46.5,48.8,46.5,48.5,46.5L48.5,46.5z"/>
	<path class="st0" d="M68,36l-3.1,3.1c-2.6-1.6-6-0.7-7.5,2c-1.6,2.6-0.7,6,2,7.5c2.6,1.6,6,0.7,7.5-2c1-1.7,1-3.9,0-5.6l3.1-3.1
		L68,36z M62.2,46.5c-1.5,0-2.7-1.2-2.7-2.7c0-1.5,1.2-2.7,2.7-2.7c0.2,0,0.5,0,0.7,0.1l-1.6,1.6l2,2l1.6-1.6c0.4,1.5-0.5,3-1.9,3.4
		C62.6,46.5,62.5,46.5,62.2,46.5L62.2,46.5z"/>
	<path class="st0" d="M81.7,36l-3.1,3.1c-2.6-1.6-6-0.7-7.5,2c-1.6,2.6-0.7,6,2,7.5c2.6,1.6,6,0.7,7.5-2c1-1.7,1-3.9,0-5.6l3.1-3.1
		L81.7,36z M75.8,46.5c-1.5,0-2.7-1.2-2.7-2.7c0-1.5,1.2-2.7,2.7-2.7c0.2,0,0.5,0,0.7,0.1l-1.6,1.6l2,2l1.6-1.6
		c0.4,1.5-0.5,3-1.9,3.4C76.3,46.5,76.1,46.5,75.8,46.5L75.8,46.5z"/>
	<path class="st0" d="M54.4,56.5l-3,3.1c-2.6-1.6-6-0.7-7.5,2c-1.6,2.6-0.7,6,2,7.5c2.6,1.6,6,0.7,7.5-2c1-1.7,1-3.9,0-5.6l3.1-3.1
		L54.4,56.5z M48.5,67c-1.5,0-2.7-1.2-2.7-2.7s1.2-2.7,2.7-2.7c0.2,0,0.5,0,0.7,0.1l-1.6,1.6l2,2l1.6-1.6c0.4,1.5-0.5,3-1.9,3.4
		C49,67,48.8,67,48.5,67L48.5,67z"/>
	<path class="st0" d="M68,56.5l-3.1,3.1c-2.6-1.6-6-0.7-7.5,2c-1.6,2.6-0.7,6,2,7.5c2.6,1.6,6,0.7,7.5-2c1-1.7,1-3.9,0-5.6l3.1-3.1
		L68,56.5z M62.2,67c-1.5,0-2.7-1.2-2.7-2.7s1.2-2.7,2.7-2.7c0.2,0,0.5,0,0.7,0.1l-1.6,1.6l2,2l1.6-1.6c0.4,1.5-0.5,3-1.9,3.4
		C62.6,67,62.5,67,62.2,67L62.2,67z"/>
	<path class="st0" d="M79.9,67.9c2-2.2,1.8-5.7-0.4-7.7c-2.2-2-5.7-1.8-7.7,0.4c-0.9,1-1.4,2.3-1.4,3.7h2.7c0-1.5,1.2-2.7,2.7-2.7
		s2.7,1.2,2.7,2.7c0,0.7-0.2,1.3-0.7,1.8L79.9,67.9z"/>
	<path class="st0" d="M28.9,84c-2.1,0.7-3.5,2.7-3.5,4.9v1.4c0,0.7,0.6,1.4,1.4,1.4h13.7c0.7,0,1.4-0.6,1.4-1.4v-1.4
		c0-2.2-1.4-4.2-3.5-4.9c-0.3-0.1-0.6-0.4-0.6-0.8l0,0c0-0.2,0.1-0.3,0.2-0.5c1-1.1,1.4-2.7,1.1-4.2c-0.4-3-3.2-5.1-6.2-4.6
		c-2.7,0.4-4.7,2.7-4.7,5.4c0,1.2,0.4,2.5,1.2,3.4c0.1,0.2,0.2,0.3,0.2,0.4C29.4,83.6,29.2,83.9,28.9,84L28.9,84z M29.7,86.6
		c1.5-0.5,2.5-1.8,2.5-3.4c0-0.8-0.2-1.6-0.7-2.2c-0.4-0.5-0.6-1.1-0.6-1.7c0-1.5,1.2-2.7,2.7-2.7c0.2,0,0.3,0,0.5,0.1
		c1.1,0.2,2,1.1,2.2,2.3c0.1,0.7-0.1,1.5-0.6,2c-0.5,0.7-0.7,1.4-0.7,2.2l0,0c0,1.6,1,2.9,2.5,3.4c1,0.3,1.6,1.2,1.6,2.3h-11
		C28.1,87.8,28.7,86.9,29.7,86.6z"/>
	<path class="st0" d="M48.5,79.3c-3,0-5.5,2.5-5.5,5.5s2.5,5.5,5.5,5.5s5.5-2.5,5.5-5.5C54,81.7,51.6,79.3,48.5,79.3z M48.5,87.5
		c-1.5,0-2.7-1.2-2.7-2.7c0-1.6,1.2-2.7,2.7-2.7c1.5,0,2.7,1.2,2.7,2.7C51.2,86.3,50,87.5,48.5,87.5z"/>
	<path class="st0" d="M62.2,82.1c1.1,0,2.2,0.7,2.5,1.8l2.5-0.9c-1-2.9-4.1-4.3-7-3.4c-2.9,1-4.3,4.1-3.4,7l2.5-0.9
		c-0.5-1.4,0.2-3,1.7-3.5C61.6,82.1,61.9,82.1,62.2,82.1z"/>
	<path class="st0" d="M91.6,78c-1.1-0.2-2.4,0.2-3.4,0.9L88.1,79c-1.6-1.4-3.9-1.4-5.5,0c-1.1-1-2.7-1.3-4.1-0.8v-6.9
		c0-2-1.5-3.9-3.4-4.2c-2.2-0.3-4.3,1.1-4.8,3.4c0,0.2-0.1,0.4-0.1,0.7v16.7l-3.6-2.2c-1.1-0.7-2.5-0.7-3.6-0.2l-0.2,0.1
		c-1.9,0.9-2.6,3.2-1.7,5.1c0.2,0.6,0.7,1.1,1.1,1.4l8.5,6.1c0.2,0.2,0.5,0.2,0.8,0.2h21.9c0.7,0,1.4-0.6,1.4-1.4V82.2
		C95,80.1,93.5,78.3,91.6,78L91.6,78z M92.2,95.7h-20L64,89.9c-0.5-0.3-0.6-1-0.2-1.5c0.1-0.2,0.2-0.2,0.4-0.3l0.2-0.1
		c0.3-0.2,0.7-0.2,1,0l5.7,3.4c0.7,0.4,1.5,0.2,1.9-0.5c0.2-0.2,0.2-0.4,0.2-0.7V71.1c0-0.7,0.6-1.4,1.4-1.4c0.1,0,0.2,0,0.2,0
		c0.7,0.1,1.1,0.7,1.1,1.5V82c0,0.7,0.6,1.4,1.4,1.4c0.7,0,1.4-0.6,1.4-1.4c0-0.8,0.6-1.4,1.4-1.4c0.7,0,1.4,0.6,1.4,1.4
		c0,0.8,0.6,1.4,1.4,1.4c0.7,0,1.4-0.6,1.4-1.4c0-0.8,0.6-1.4,1.4-1.4c0.7,0,1.4,0.6,1.4,1.4c0,0.8,0.6,1.4,1.4,1.4
		c0.7,0,1.4-0.6,1.4-1.4c0-0.8,0.6-1.4,1.4-1.4c0.1,0,0.2,0,0.2,0c0.7,0.1,1.1,0.7,1.1,1.5L92.2,95.7z"/>
</g>
</svg>
