<?xml version="1.0" encoding="utf-8"?>
<!-- Generator: Adobe Illustrator 23.0.1, SVG Export Plug-In . SVG Version: 6.00 Build 0)  -->
<svg version="1.1" id="Capa_1" xmlns="http://www.w3.org/2000/svg" xmlns:xlink="http://www.w3.org/1999/xlink" x="0px" y="0px"
	 viewBox="0 0 115 115" style="enable-background:new 0 0 115 115;" xml:space="preserve">
<style type="text/css">
	.st0{fill:#E9484F;}
</style>
<g>
	<g>
		<g>
			<path class="st0" d="M93.6,86.9h-7.6l-1.9-17.5l2,3l0.5,2.5c0.2,1.2,1,2.2,2.1,2.8c0.6,0.4,1.3,0.5,2,0.5c0.5,0,1-0.1,1.6-0.3
				c1-0.4,1.9-1.3,2.4-2.4c0.4-1.1,0.4-2.3-0.1-3.3l-1-2.2l0,0l0,0l-7.5-13.8c-0.1-0.2-0.4-0.4-0.6-0.6L82,54.4
				c2.5-2.1,4.2-5.2,4.2-8.7c0-1.9-0.5-3.7-1.4-5.4l-0.7-6.5c2-0.9,3.3-2.5,3.3-4.4c0-2.7-2.7-4.9-6-5c-1.3-2.3-3.8-3.7-6.5-3.7
				c-2.7,0-5.1,1.5-6.5,3.7c-3.3,0.1-6,2.3-6,5c0,1.9,1.3,3.6,3.3,4.4L65,40.3c-0.9,1.6-1.4,3.5-1.4,5.4c0,3.5,1.6,6.7,4.2,8.7
				l-3.4,1.3c-0.2,0.1-0.4,0.2-0.5,0.4l-4.2,5.3l-5.1-4.1l-1.3-2.2c-0.2-0.4-0.5-0.7-0.8-1v-3.4c0-1.6-1-3-2.5-3.5v-5.2h1.3
				c2.1,0,3.7-1.7,3.7-3.7v-7.5c0-2.1-1.7-3.7-3.7-3.7h-5c-2.1,0-3.7,1.7-3.7,3.7v7.5c0,2.1,1.7,3.7,3.7,3.7h1.3v5.2
				C46,47.6,45,49,45,50.6v5.1l0,0c-0.3,0.7-0.4,1.6-0.4,2.4c0.1,1.5,1,2.7,2.2,3.4l2.4,1.4l8.3,7.3c1.4,1.2,3.4,1.3,4.8,0.1
				l3.5-2.9l-2,19.5H42l1.5-2.9c2.3-0.9,4-3.1,4-5.8v-2.8c1.5-0.5,2.5-1.9,2.5-3.5c0-2.1-1.7-3.7-3.7-3.7H23.8
				c-2.1,0-3.7,1.7-3.7,3.7c0,1.6,1,3,2.5,3.5v2.8c0,2.7,1.6,4.9,4,5.8l1.5,2.9h-6.7c-0.7,0-1.3,0.6-1.3,1.3v5
				c0,0.7,0.6,1.3,1.3,1.3h72.4c0.7,0,1.3-0.6,1.3-1.3v-5C94.9,87.4,94.4,86.9,93.6,86.9z M47.5,39.5h-1.3c-0.7,0-1.3-0.6-1.3-1.3
				v-7.5c0-0.7,0.6-1.3,1.3-1.3h1.3V39.5z M92.4,73.3c0.2,0.4,0.2,0.9,0.1,1.3c-0.1,0.4-0.5,0.8-1,1c-0.4,0.2-1,0.1-1.4-0.1
				s-0.7-0.7-0.9-1.2l-0.3-1.6l2.9-0.7L92.4,73.3z M84,57.9l6.5,11.9L88,70.4l-4.4-6.6l-1.8-6.9L84,57.9z M81.3,65.6l2.2,21.2H66.4
				l2.2-21.2H81.3z M69.1,63.2l1.9-7c0.1,0,0.1,0,0.1,0.1c0.2,0.1,0.5,0.2,0.7,0.2c0.1,0,0.2,0.1,0.3,0.1c0.2,0.1,0.5,0.1,0.7,0.1
				c0.1,0,0.2,0,0.4,0.1c0.2,0,0.4,0.1,0.7,0.1c0.1,0,0.3,0,0.5,0s0.4,0,0.6,0s0.4,0,0.6,0c0.1,0,0.3,0,0.5,0s0.4-0.1,0.7-0.1
				c0.1,0,0.2,0,0.4-0.1c0.2-0.1,0.5-0.1,0.7-0.1c0.1,0,0.2-0.1,0.3-0.1c0.3-0.1,0.5-0.1,0.7-0.2c0.1,0,0.1,0,0.1-0.1l1.9,7H69.1z
				 M64.9,29.4c0-1.3,1.7-2.5,3.7-2.5c0.1,0,0.1,0,0.2,0h0.2c0.5,0,1-0.3,1.3-0.7c0.8-1.9,2.6-3,4.6-3s3.8,1.2,4.6,3
				c0.2,0.5,0.7,0.8,1.3,0.7h0.2c0.1,0,0.1,0,0.2,0c2,0,3.7,1.1,3.7,2.5c0,1-1,1.9-2.5,2.3c-0.6,0.1-1,0.7-1,1.3l0.7,7.6H67.6
				l0.7-7.6c0.1-0.6-0.4-1.2-1-1.3C66,31.3,64.9,30.5,64.9,29.4z M66.2,45.7c0-0.8,0.1-1.7,0.4-2.5h16.7c0.2,0.8,0.4,1.6,0.4,2.5
				c0,3.5-2,6.5-5,7.9c-0.3,0.1-0.6,0.2-0.9,0.4c0,0,0,0-0.1,0c-1.9,0.7-3.9,0.7-5.7,0c0,0,0,0-0.1,0c-0.3-0.1-0.6-0.2-0.9-0.4
				C68.2,52.1,66.2,49.1,66.2,45.7z M50,29.4h1.3c0.7,0,1.3,0.6,1.3,1.3v7.5c0,0.7-0.6,1.3-1.3,1.3H50V29.4z M48.7,49.4
				c0.7,0,1.3,0.6,1.3,1.3v2.2l0,0h-0.1c-0.1,0-0.1,0-0.2,0c-0.2,0-0.4,0-0.7,0c-0.1,0-0.2,0-0.3,0c-0.2,0-0.5,0.1-0.7,0.1
				c-0.1,0-0.2,0.1-0.3,0.1c-0.1,0-0.1,0-0.1,0.1v-2.5l0,0C47.5,49.9,48.1,49.4,48.7,49.4z M48.1,59.4c-0.6-0.4-1-1-1-1.6
				c-0.1-0.4,0-0.9,0.2-1.3l0,0c0.1-0.1,0.1-0.2,0.1-0.3c0.1-0.1,0.1-0.2,0.2-0.3c0.1-0.1,0.4-0.3,0.6-0.4c0,0,0,0,0.1,0
				c0.2-0.1,0.4-0.1,0.7-0.2c0,0,0,0,0.1,0c0.2,0,0.4,0,0.7,0.1h0.1c0.2,0.1,0.4,0.1,0.7,0.3l0,0c0.2,0.1,0.4,0.4,0.7,0.7l1,1.6
				l-2.4,2.4L48.1,59.4z M60.8,68.3c-0.4,0.4-1.2,0.4-1.6,0l-7.4-6.5l2-2l5.4,4.3c0.5,0.4,1.3,0.4,1.8-0.2l4.8-6l2.4-1l-1.8,6.7
				L60.8,68.3z M23.8,73.1c-0.7,0-1.3-0.6-1.3-1.3c0-0.7,0.6-1.3,1.3-1.3h22.4c0.7,0,1.3,0.6,1.3,1.3c0,0.7-0.6,1.3-1.3,1.3H23.8z
				 M25,78.1v-2.5h20v2.5c0,2.1-1.7,3.7-3.7,3.7H28.7C26.7,81.8,25,80.2,25,78.1z M40.5,84.3l-1.3,2.5h-3v-2.5H40.5z M33.7,84.3v2.5
				h-3l-1.3-2.5H33.7z M92.4,91.9H22.6v-2.5h7.5h10h25h20h7.5L92.4,91.9L92.4,91.9z"/>
		</g>
	</g>
	<g>
		<g>
			<path class="st0" d="M78.7,70.6h-7.5c-0.7,0-1.3,0.6-1.3,1.3v3.7c0,2.8,2.2,5,5,5s5-2.2,5-5v-3.7C80,71.2,79.4,70.6,78.7,70.6z
				 M77.4,75.6c0,1.3-1.1,2.5-2.5,2.5c-1.3,0-2.5-1.1-2.5-2.5V73h5L77.4,75.6L77.4,75.6z"/>
		</g>
	</g>
	<g>
		<g>
			<rect x="33.7" y="58.1" class="st0" width="2.5" height="6.2"/>
		</g>
	</g>
	<g>
		<g>
			<rect x="40" y="60.6" class="st0" width="2.5" height="5"/>
		</g>
	</g>
	<g>
		<g>
			<rect x="27.6" y="60.6" class="st0" width="2.5" height="5"/>
		</g>
	</g>
	<g>
		<g>
			<rect x="33.7" y="53.1" class="st0" width="2.5" height="2.5"/>
		</g>
	</g>
	<g>
		<g>
			<rect x="27.6" y="55.7" class="st0" width="2.5" height="2.5"/>
		</g>
	</g>
	<g>
		<g>
			<rect x="40" y="55.7" class="st0" width="2.5" height="2.5"/>
		</g>
	</g>
</g>
</svg>
