<svg xmlns="http://www.w3.org/2000/svg" width="75" height="75" viewBox="0 0 75 75"><g transform="translate(389.434 -1602.566)"><rect width="75" height="75" transform="translate(-389.434 1602.566)" fill="none"/><g transform="translate(-376.869 1608.391)"><g transform="translate(0)"><path d="M51.415,0H8.221A2.88,2.88,0,0,0,5.342,2.88v57.59a2.881,2.881,0,0,0,2.879,2.88H51.415a2.88,2.88,0,0,0,2.879-2.88V2.88A2.88,2.88,0,0,0,51.415,0Zm-2.88,5.758V14.4H11.1V5.758ZM11.1,57.593V20.156H48.534V57.589H11.1Z" transform="translate(-5.342)" fill="#fff"/><path d="M19.167,16.844H13.19a1.44,1.44,0,0,0-1.44,1.44v5.982a1.44,1.44,0,0,0,1.44,1.44h5.978a1.44,1.44,0,0,0,1.44-1.44V18.284A1.436,1.436,0,0,0,19.167,16.844Z" transform="translate(-3.113 5.859)" fill="#fff"/><path d="M27.631,16.844H21.655a1.44,1.44,0,0,0-1.44,1.44v5.982a1.439,1.439,0,0,0,1.44,1.44h5.976a1.44,1.44,0,0,0,1.44-1.44V18.284A1.438,1.438,0,0,0,27.631,16.844Z" transform="translate(-0.168 5.859)" fill="#fff"/><path d="M36.1,16.844H30.118a1.439,1.439,0,0,0-1.438,1.44v5.982a1.439,1.439,0,0,0,1.438,1.44H36.1a1.44,1.44,0,0,0,1.44-1.44V18.284A1.438,1.438,0,0,0,36.1,16.844Z" transform="translate(2.776 5.859)" fill="#fff"/><path d="M19.167,25.555H13.19a1.439,1.439,0,0,0-1.44,1.438v5.982a1.439,1.439,0,0,0,1.44,1.438h5.978a1.439,1.439,0,0,0,1.44-1.438V26.993A1.435,1.435,0,0,0,19.167,25.555Z" transform="translate(-3.113 8.89)" fill="#fff"/><path d="M27.631,25.555H21.655a1.439,1.439,0,0,0-1.44,1.438v5.982a1.438,1.438,0,0,0,1.44,1.438h5.976a1.439,1.439,0,0,0,1.44-1.438V26.993A1.436,1.436,0,0,0,27.631,25.555Z" transform="translate(-0.168 8.89)" fill="#fff"/><path d="M19.167,34.266H13.19A1.439,1.439,0,0,0,11.75,35.7v5.982a1.438,1.438,0,0,0,1.44,1.44h5.978a1.44,1.44,0,0,0,1.44-1.44V35.7A1.434,1.434,0,0,0,19.167,34.266Z" transform="translate(-3.113 11.92)" fill="#fff"/><path d="M27.631,34.266H21.655a1.439,1.439,0,0,0-1.44,1.437v5.982a1.438,1.438,0,0,0,1.44,1.44h5.976a1.44,1.44,0,0,0,1.44-1.44V35.7A1.436,1.436,0,0,0,27.631,34.266Z" transform="translate(-0.168 11.92)" fill="#fff"/><path d="M36.1,25.555H30.118a1.438,1.438,0,0,0-1.438,1.438V44.715a1.437,1.437,0,0,0,1.438,1.44H36.1a1.44,1.44,0,0,0,1.44-1.44V26.993A1.437,1.437,0,0,0,36.1,25.555Z" transform="translate(2.776 8.89)" fill="#fff"/></g></g></g></svg>