<?xml version="1.0" encoding="utf-8"?>
<!-- Generator: Adobe Illustrator 23.0.1, SVG Export Plug-In . SVG Version: 6.00 Build 0)  -->
<svg version="1.1" id="Layer_1" xmlns="http://www.w3.org/2000/svg" xmlns:xlink="http://www.w3.org/1999/xlink" x="0px" y="0px"
	 viewBox="0 0 80 80" style="enable-background:new 0 0 80 80;" xml:space="preserve">
<style type="text/css">
	.st0{fill:none;}
	.st1{fill:#FFFFFF;}
</style>
<g transform="translate(492.549 -1595.241)">
	<g transform="translate(-468.886 1628.555)">
		<rect x="4.7" y="-0.3" class="st0" width="44.7" height="44.7"/>
		<g transform="translate(8.248 3.824)">
			<g transform="translate(0)">
				<path class="st1" d="M31.7-1H5.8c-1,0-1.7,0.8-1.7,1.7c0,0,0,0,0,0v34.5c0,1,0.8,1.7,1.7,1.7h25.9c1,0,1.7-0.8,1.7-1.7
					c0,0,0,0,0,0V0.7C33.4-0.2,32.7-1,31.7-1C31.7-1,31.7-1,31.7-1z M30,2.4v5.2H7.6V2.4H30z M7.6,33.5V11.1H30v22.4L7.6,33.5
					L7.6,33.5z"/>
				<path class="st1" d="M13.7,12.6h-3.6c-0.5,0-0.9,0.4-0.9,0.9V17c0,0.5,0.4,0.9,0.9,0.9h3.6c0.5,0,0.9-0.4,0.9-0.9v-3.6
					C14.6,13,14.2,12.6,13.7,12.6C13.7,12.6,13.7,12.6,13.7,12.6z"/>
				<path class="st1" d="M20.6,12.6H17c-0.5,0-0.9,0.4-0.9,0.9V17c0,0.5,0.4,0.9,0.9,0.9h3.6c0.5,0,0.9-0.4,0.9-0.9v-3.6
					C21.4,13,21,12.6,20.6,12.6C20.6,12.6,20.6,12.6,20.6,12.6z"/>
				<path class="st1" d="M27.4,12.6h-3.6c-0.5,0-0.9,0.4-0.9,0.9V17c0,0.5,0.4,0.9,0.9,0.9h3.6c0.5,0,0.9-0.4,0.9-0.9v-3.6
					C28.3,13,27.9,12.6,27.4,12.6C27.4,12.6,27.4,12.6,27.4,12.6z"/>
				<path class="st1" d="M13.7,19.6h-3.6c-0.5,0-0.9,0.4-0.9,0.9v3.6c0,0.5,0.4,0.9,0.9,0.9h3.6c0.5,0,0.9-0.4,0.9-0.9v-3.6
					C14.6,20,14.2,19.6,13.7,19.6C13.7,19.6,13.7,19.6,13.7,19.6z"/>
				<path class="st1" d="M20.6,19.6H17c-0.5,0-0.9,0.4-0.9,0.9v3.6c0,0.5,0.4,0.9,0.9,0.9c0,0,0,0,0,0h3.6c0.5,0,0.9-0.4,0.9-0.9
					v-3.6C21.4,20,21,19.6,20.6,19.6C20.6,19.6,20.6,19.6,20.6,19.6z"/>
				<path class="st1" d="M13.7,26.7h-3.6c-0.5,0-0.9,0.4-0.9,0.9l0,0v3.6c0,0.5,0.4,0.9,0.9,0.9c0,0,0,0,0,0h3.6
					c0.5,0,0.9-0.4,0.9-0.9v-3.6C14.6,27,14.2,26.7,13.7,26.7C13.7,26.7,13.7,26.7,13.7,26.7z"/>
				<path class="st1" d="M20.6,26.7H17c-0.5,0-0.9,0.4-0.9,0.9l0,0v3.6c0,0.5,0.4,0.9,0.9,0.9c0,0,0,0,0,0h3.6
					c0.5,0,0.9-0.4,0.9-0.9v-3.6C21.4,27,21,26.7,20.6,26.7C20.6,26.7,20.6,26.7,20.6,26.7z"/>
				<path class="st1" d="M27.4,19.6h-3.6c-0.5,0-0.9,0.4-0.9,0.9l0,0v10.6c0,0.5,0.4,0.9,0.9,0.9c0,0,0,0,0,0h3.6
					c0.5,0,0.9-0.4,0.9-0.9V20.5C28.3,20,27.9,19.6,27.4,19.6C27.4,19.6,27.4,19.6,27.4,19.6z"/>
			</g>
		</g>
	</g>
	<g transform="translate(-492.549 1595.241)">
		<g transform="translate(0 0)">
			<path class="st1" d="M30.2,73.3L30.2,73.3c-2.5,0-5,0-7.5,0h-10c-0.7,0-1.5-0.1-2.4-0.2h0l-0.3,0V55.4c0-3.5,0-7.2,0-10.2v-0.1
				c0-8.7,0.1-17.8-0.1-26.7c-0.4-2.9-1.1-5.8-2.2-8.5c-0.3-1-0.6-2-0.8-3c-0.2-1.2,0.2-2.4,1-3.3c0.7-0.8,1.8-1.3,2.9-1.3
				c0.1,0,0.1,0,0.2,0c6.5,0,13,0,19.4,0s12.9,0,19.4,0H50c1.9,0,3.5,1.3,4.1,3.1c1.3,3.3,2.5,6.6,3.7,9.8l0,0.1
				c0.4,1.2,0.9,2.4,1.4,3.6l-3,3.4c-0.4-1-0.7-2-1.1-3v0l-0.3-0.7l0,0l0,0c-1.2-3.2-2.6-6.7-3.8-10.3c-0.4-1.1-0.8-1.9-2.2-1.9h0
				c-7.8,0-15.8,0-22.7,0h-3.6c-3.4,0-6.9,0-10.4,0c-0.4,0-0.8,0.1-1.2,0.2c0.2,0.6,0.5,1.2,0.7,1.9l0,0l0.3,0.9l0,0l0.1,0.2
				c0.8,2.3,1.6,4.4,2.4,6.6c0.5,1.4,1,2.7,1.5,4c0.9,2.5,1.9,5.1,2.8,7.7c0.4,1.2,0.6,2.4,0.6,3.7c0.1,11.7,0.1,23.5,0,35.2
				c0,1.3,0.1,2.2,1.8,2.2h0c2.8,0,5.8,0,9.1,0V73.3L30.2,73.3z M12,24.8v44.7h5.5l-0.5-37L12,24.8z"/>
			<path class="st1" d="M18.6,13H28c6.3,0,12.7,0,19,0c1.5,0,2.4,0.2,3,1.8c2,5.3,4.1,10.6,6.2,15.9c0.1,0.5,0.3,1,0.3,1.5
				c-9.8,0-19.4,0-29-0.1c-0.8-0.1-1.4-0.5-1.8-1.1C23.3,25.2,21.1,19.4,18.6,13z"/>
		</g>
	</g>
</g>
</svg>
