<?xml version="1.0" encoding="utf-8"?>
<!-- Generator: Adobe Illustrator 23.0.1, SVG Export Plug-In . SVG Version: 6.00 Build 0)  -->
<svg version="1.1" id="Layer_1" xmlns="http://www.w3.org/2000/svg" xmlns:xlink="http://www.w3.org/1999/xlink" x="0px" y="0px"
	 viewBox="0 0 80 80" style="enable-background:new 0 0 80 80;" xml:space="preserve">
<style type="text/css">
	.st0{fill:#FFFFFF;}
	.st1{fill:none;}
	.st2{fill:none;stroke:#FFFFFF;stroke-width:1.8277;}
</style>
<g transform="translate(394 -1595)">
	<g transform="translate(-368.638 1634.379)">
		<g transform="translate(0)">
			<path class="st0" d="M39.2-0.4H13.3c-1,0-1.7,0.8-1.7,1.7c0,0,0,0,0,0v34.6c0,1,0.8,1.7,1.7,1.7h25.9c1,0,1.7-0.8,1.7-1.7
				c0,0,0,0,0,0V1.3C40.9,0.4,40.1-0.4,39.2-0.4C39.2-0.4,39.2-0.4,39.2-0.4z M37.5,3.1v5.2H15V3.1H37.5z M15,34.2V11.7h22.5v22.5
				L15,34.2L15,34.2z"/>
			<path class="st0" d="M21.2,13.2h-3.6c-0.5,0-0.9,0.4-0.9,0.9v3.6c0,0.5,0.4,0.9,0.9,0.9h3.6c0.5,0,0.9-0.4,0.9-0.9v-3.6
				C22,13.6,21.7,13.2,21.2,13.2C21.2,13.2,21.2,13.2,21.2,13.2z"/>
			<path class="st0" d="M28,13.2h-3.6c-0.5,0-0.9,0.4-0.9,0.9v3.6c0,0.5,0.4,0.9,0.9,0.9H28c0.5,0,0.9-0.4,0.9-0.9v-3.6
				C28.9,13.6,28.5,13.2,28,13.2C28,13.2,28,13.2,28,13.2z"/>
			<path class="st0" d="M34.9,13.2h-3.6c-0.5,0-0.9,0.4-0.9,0.9v3.6c0,0.5,0.4,0.9,0.9,0.9h3.6c0.5,0,0.9-0.4,0.9-0.9v-3.6
				C35.7,13.6,35.3,13.2,34.9,13.2C34.9,13.2,34.9,13.2,34.9,13.2z"/>
			<path class="st0" d="M21.2,20.3h-3.6c-0.5,0-0.9,0.4-0.9,0.9v3.6c0,0.5,0.4,0.9,0.9,0.9h3.6c0.5,0,0.9-0.4,0.9-0.9v-3.6
				C22,20.7,21.7,20.3,21.2,20.3C21.2,20.3,21.2,20.3,21.2,20.3z"/>
			<path class="st0" d="M28,20.3h-3.6c-0.5,0-0.9,0.4-0.9,0.9v3.6c0,0.5,0.4,0.9,0.9,0.9c0,0,0,0,0,0H28c0.5,0,0.9-0.4,0.9-0.9v-3.6
				C28.9,20.7,28.5,20.3,28,20.3C28,20.3,28,20.3,28,20.3z"/>
			<path class="st0" d="M21.2,27.3h-3.6c-0.5,0-0.9,0.4-0.9,0.9l0,0v3.6c0,0.5,0.4,0.9,0.9,0.9c0,0,0,0,0,0h3.6
				c0.5,0,0.9-0.4,0.9-0.9v-3.6C22,27.7,21.7,27.3,21.2,27.3C21.2,27.3,21.2,27.3,21.2,27.3z"/>
			<path class="st0" d="M28,27.3h-3.6c-0.5,0-0.9,0.4-0.9,0.9l0,0v3.6c0,0.5,0.4,0.9,0.9,0.9c0,0,0,0,0,0H28c0.5,0,0.9-0.4,0.9-0.9
				v-3.6C28.9,27.7,28.5,27.3,28,27.3C28,27.3,28,27.3,28,27.3z"/>
			<path class="st0" d="M34.9,20.3h-3.6c-0.5,0-0.9,0.4-0.9,0.9l0,0v10.6c0,0.5,0.4,0.9,0.9,0.9c0,0,0,0,0,0h3.6
				c0.5,0,0.9-0.4,0.9-0.9V21.1C35.7,20.7,35.3,20.3,34.9,20.3C34.9,20.3,34.9,20.3,34.9,20.3z"/>
		</g>
	</g>
	<g transform="translate(-394 1595)">
		<path class="st1" d="M32,74.3H20.1c-3.5,0-6.4-2.9-6.4-6.4V9.4c0-3.5,2.9-6.4,6.4-6.4h27.4c3.5,0,6.4,2.9,6.4,6.4v24.7H32V74.3z"
			/>
		<path class="st0" d="M20.1,72.5l10.1,0V34.1v-1.8H32h20.1V9.4c0-2.5-2-4.6-4.6-4.6H20.1c-2.5,0-4.6,2-4.6,4.6v58.5
			C15.6,70.4,17.6,72.5,20.1,72.5 M32,74.3L32,74.3L32,74.3H20.1c-3.5,0-6.4-2.9-6.4-6.4V9.4c0-3.5,2.9-6.4,6.4-6.4h27.4
			c3.5,0,6.4,2.9,6.4,6.4v24.7H32V74.3z"/>
	</g>
	<g transform="translate(-394 1595)">
		<path class="st1" d="M20.1,3h27.4c3.5,0,6.4,2.9,6.4,6.4l0,0v1.8l0,0H13.7l0,0V9.4C13.7,5.9,16.6,3,20.1,3z"/>
		<path class="st2" d="M20.1,3.9h27.4c3,0,5.5,2.5,5.5,5.5l0,0c0,0.5-0.4,0.9-0.9,0.9H15.6c-0.5,0-0.9-0.4-0.9-0.9l0,0
			C14.6,6.4,17.1,3.9,20.1,3.9z"/>
	</g>
	<g transform="translate(-394 1629)">
		<path class="st1" d="M32,40.3H20.1c-3.5,0-6.4-2.9-6.4-6.4v-9.1H32V40.3z"/>
		<path class="st0" d="M30.2,38.5V26.6H15.6v7.3c0,2.5,2,4.6,4.6,4.6H30.2 M32,40.3L32,40.3H20.1c-3.5,0-6.4-2.9-6.4-6.4v-9.1H32
			V40.3L32,40.3z"/>
	</g>
	<g transform="translate(-376 1629)">
		<path class="st0" d="M13.5,33.4c-0.6-0.6-0.9-1.4-0.9-2.2c0-0.8,0.3-1.6,0.9-2.2V33.4z"/>
		<path class="st0" d="M14,34.3L14,34.3c-1.1-0.7-1.8-1.9-1.8-3.2c0-1.3,0.7-2.5,1.8-3.2V34.3L14,34.3z"/>
	</g>
	<g transform="translate(-390 1627)">
		<path class="st1" d="M28,38.6H18c-2.5,0-4.6-2-4.6-4.6h0.1c0.4,2.1,2.3,3.7,4.5,3.7H28V38.6z"/>
		<path class="st0" d="M28,38.6L28,38.6H18c-2.5,0-4.6-2-4.6-4.6h0.1c0.4,2.1,2.3,3.7,4.5,3.7H28V38.6L28,38.6z"/>
	</g>
	<rect x="-368.4" y="1601.7" class="st0" width="17.4" height="1.8"/>
</g>
</svg>
